<svg width="28" height="27" viewBox="0 0 28 27" fill="none" xmlns="http://www.w3.org/2000/svg">
<path d="M14.0013 0.666626C12.2503 0.666626 10.5165 1.0115 8.89886 1.68157C7.28118 2.35163 5.81133 3.33375 4.57321 4.57187C2.07273 7.07235 0.667969 10.4637 0.667969 14C0.667969 19.8933 4.49464 24.8933 9.78797 26.6666C10.4546 26.7733 10.668 26.36 10.668 26V23.7466C6.97464 24.5466 6.18797 21.96 6.18797 21.96C5.57464 20.4133 4.70797 20 4.70797 20C3.49464 19.1733 4.8013 19.2 4.8013 19.2C6.13463 19.2933 6.8413 20.5733 6.8413 20.5733C8.0013 22.6 9.9613 22 10.7213 21.68C10.8413 20.8133 11.188 20.2266 11.5613 19.8933C8.6013 19.56 5.49464 18.4133 5.49464 13.3333C5.49464 11.8533 6.0013 10.6666 6.86797 9.71996C6.73464 9.38663 6.26797 7.99996 7.0013 6.19996C7.0013 6.19996 8.1213 5.83996 10.668 7.55996C11.7213 7.26663 12.868 7.11996 14.0013 7.11996C15.1346 7.11996 16.2813 7.26663 17.3346 7.55996C19.8813 5.83996 21.0013 6.19996 21.0013 6.19996C21.7346 7.99996 21.268 9.38663 21.1346 9.71996C22.0013 10.6666 22.508 11.8533 22.508 13.3333C22.508 18.4266 19.388 19.5466 16.4146 19.88C16.8946 20.2933 17.3346 21.1066 17.3346 22.3466V26C17.3346 26.36 17.548 26.7866 18.228 26.6666C23.5213 24.88 27.3346 19.8933 27.3346 14C27.3346 12.249 26.9898 10.5152 26.3197 8.89751C25.6496 7.27984 24.6675 5.80998 23.4294 4.57187C22.1913 3.33375 20.7214 2.35163 19.1037 1.68157C17.4861 1.0115 15.7523 0.666626 14.0013 0.666626Z" fill="#161918"/>
</svg>
