<svg width="48" height="73" viewBox="0 0 48 73" fill="none" xmlns="http://www.w3.org/2000/svg">
<g clip-path="url(#clip0_59_5253)">
<path d="M38.2578 4.42961C38.0939 4.36042 37.913 4.33163 37.7375 4.35271L32.2054 5.04183C31.848 5.08659 31.5357 5.32497 31.3955 5.65714L29.4278 10.3164C29.2856 10.653 29.3343 11.0386 29.5515 11.326L30.4342 12.4921C30.8822 13.0093 31.0842 13.0946 31.3401 13.2026C32.1795 13.5571 32.8739 13.2527 33.2455 12.373L35.2757 7.5656C35.2903 7.53108 35.2906 7.49217 35.2765 7.45745C35.2624 7.42273 35.2351 7.39503 35.2005 7.38045L34.6394 7.1435C34.6224 7.13601 34.604 7.13202 34.5854 7.13176C34.5667 7.1315 34.5483 7.13498 34.531 7.14199C34.5137 7.149 34.4981 7.1594 34.4849 7.17257C34.4717 7.18575 34.4613 7.20143 34.4543 7.2187L32.426 12.0216C32.2591 12.4166 31.6877 12.6301 31.1662 12.0238L30.2429 10.8034C30.226 10.7825 30.2151 10.7573 30.2114 10.7305C30.2078 10.7038 30.2115 10.6766 30.2223 10.6519L32.188 5.99715C32.2108 5.94329 32.2567 5.90978 32.3129 5.9018L37.8455 5.21287C37.8719 5.2085 37.899 5.2117 37.9236 5.2221C37.9482 5.2325 37.9694 5.24968 37.9847 5.27163L41.3486 9.71773C41.3821 9.76362 41.3901 9.81988 41.3693 9.86926L39.4016 14.5285C39.3807 14.5779 39.333 14.6159 39.2831 14.6213L33.7441 15.3128C33.7179 15.3147 33.6916 15.3104 33.6675 15.3002C33.6433 15.29 33.6218 15.2741 33.605 15.254L32.7466 14.0928C32.736 14.075 32.7207 14.0605 32.7023 14.0509C32.684 14.0413 32.6633 14.037 32.6427 14.0384C32.2481 14.0833 32.1803 14.0811 31.8405 14.0592C31.7592 14.0514 31.628 14.0489 31.7993 14.2693L32.9135 15.7766C33.0231 15.918 33.1657 16.0311 33.3273 16.0994C33.4934 16.1695 33.6739 16.1929 33.8517 16.1727L39.3906 15.4812C39.7481 15.4365 40.0584 15.2026 40.2006 14.8659L42.1664 10.2112C42.3085 9.87452 42.2598 9.48898 42.0426 9.20158L38.6761 4.74909C38.5684 4.60839 38.422 4.49899 38.2578 4.42961ZM37.9368 8.52862C36.6665 7.99215 35.6804 8.21043 35.3013 9.10816C34.8899 10.0822 35.5307 10.6691 36.7004 11.3059C38.0986 12.0656 38.1194 12.3294 37.9981 12.6166C37.7896 13.1104 37.301 13.1527 36.3629 12.7565C35.1823 12.2579 35.0473 11.8513 35.2084 11.2317C35.2168 11.1997 35.2133 11.1658 35.1986 11.1362C35.1838 11.1067 35.1588 11.0835 35.1283 11.0709L34.5492 10.8264C34.5159 10.8123 34.4783 10.812 34.4448 10.8256C34.4113 10.8393 34.3845 10.8656 34.3705 10.899C34.0539 11.6486 34.0851 12.7143 36.0332 13.537C37.4426 14.1323 38.4857 13.9169 38.8951 12.9473C39.3008 11.9868 38.758 11.456 37.4712 10.6957C36.16 9.93043 36.0606 9.77741 36.1971 9.45422C36.3109 9.1849 36.5818 8.88148 37.6052 9.31369C38.5164 9.6985 38.7742 10.0401 38.6536 10.7138C38.6424 10.7778 38.6729 10.8436 38.7357 10.8701L39.3147 11.1146C39.3506 11.1298 39.3896 11.1251 39.428 11.1096C39.4457 11.1016 39.4615 11.0898 39.4741 11.075C39.4868 11.0602 39.496 11.0428 39.5011 11.0241C39.8587 9.92684 39.3642 9.13143 37.9368 8.52862Z" fill="#0EC281"/>
</g>
<g clip-path="url(#clip1_59_5253)">
<path d="M24.0812 34.189L19.7191 43.9809L29.511 48.343L33.8731 38.5511L24.0812 34.189ZM24.5748 35.4757L32.5864 39.0447L29.0174 47.0563L21.0058 43.4873L24.5748 35.4757ZM28.1431 38.1322C26.3993 37.3553 24.4786 38.0866 23.7033 39.8269C23.0821 41.2213 23.4258 42.8051 24.4922 43.7831C24.642 43.884 24.7429 43.8095 24.779 43.7285C24.8135 43.651 25.0023 43.2188 25.1203 42.954C25.1203 42.954 24.1519 42.7509 24.2202 42.1044C24.2202 42.1044 24.2386 41.6763 24.0763 41.4898C24.0763 41.4898 23.8779 41.1651 24.1835 41.3055C24.1835 41.3055 24.4835 41.469 24.523 41.8461C24.5809 42.456 25.1057 42.5197 25.3221 42.519C25.4397 42.3303 25.5847 42.2252 25.7123 42.1855C25.044 41.795 24.3797 41.3764 24.9176 40.1689C25.0718 39.8226 25.2445 39.6925 25.5448 39.5596C25.549 39.4639 25.5909 39.0766 25.9575 38.7193C26.2586 38.7558 26.675 39.4448 26.675 39.4448C26.9635 39.4903 27.245 39.573 27.5122 39.6909C27.779 39.811 28.0291 39.9653 28.2562 40.1498C28.2562 40.1498 29.0469 39.9985 29.2752 40.1973C29.2532 40.7124 28.9938 40.999 28.9261 41.0659C29.0281 41.3781 29.0748 41.6063 28.9207 41.9522C28.3798 43.1664 27.5956 42.9317 26.8588 42.6963C26.9314 42.847 26.9474 43.0782 26.8153 43.3746C26.6264 43.7988 26.3882 44.3237 26.3426 44.4261C26.3065 44.5071 26.3193 44.6307 26.4906 44.6734C27.9307 44.8114 29.3133 43.9972 29.9345 42.6028C30.7098 40.8625 29.8874 38.9092 28.1431 38.1322ZM24.3284 41.4927C24.3066 41.4745 24.2833 41.4694 24.2698 41.4805C24.2563 41.4916 24.2576 41.5162 24.276 41.542C24.2928 41.5617 24.3187 41.5695 24.3337 41.5549C24.3472 41.5438 24.3469 41.5181 24.3284 41.4927ZM24.394 41.6484C24.3836 41.6406 24.3714 41.6367 24.3585 41.6417C24.3344 41.648 24.3255 41.6776 24.3359 41.7116C24.3494 41.7389 24.3722 41.7619 24.3979 41.752C24.4221 41.7457 24.4313 41.7167 24.421 41.6823C24.4148 41.669 24.4055 41.6574 24.394 41.6484ZM24.4534 41.8706C24.4483 41.8656 24.4422 41.8618 24.4354 41.8595C24.4287 41.8572 24.4215 41.8566 24.4144 41.8575C24.3867 41.8623 24.3722 41.8947 24.3811 41.9323C24.39 41.9699 24.4159 41.9979 24.44 41.9916C24.4673 41.9867 24.4832 41.9511 24.4745 41.9142C24.4726 41.8977 24.4651 41.8824 24.4534 41.8706ZM24.5195 42.1113C24.5131 42.1072 24.5058 42.1049 24.4982 42.1045C24.4906 42.1041 24.483 42.1057 24.4762 42.1091C24.4509 42.1192 24.4428 42.1566 24.4597 42.194C24.4751 42.235 24.5078 42.2549 24.5351 42.2415C24.5593 42.2352 24.5665 42.1915 24.5527 42.1554C24.5467 42.1373 24.5354 42.1219 24.5195 42.1113ZM24.6988 42.3603C24.6708 42.3393 24.6277 42.3318 24.6095 42.3536C24.5913 42.3753 24.6033 42.4154 24.6353 42.4381C24.6601 42.4663 24.706 42.4686 24.7241 42.4473C24.7456 42.4275 24.7328 42.3882 24.6988 42.3603ZM25.1701 42.5836C25.1322 42.5752 25.0962 42.589 25.0872 42.6187C25.0799 42.6447 25.1089 42.6742 25.1472 42.6827C25.1891 42.6929 25.2248 42.6799 25.2289 42.6514C25.2365 42.6249 25.2079 42.5956 25.1705 42.5838L25.1701 42.5836ZM24.9248 42.5079C24.8856 42.4904 24.8487 42.4991 24.8376 42.524C24.8251 42.552 24.8435 42.5863 24.8873 42.6016C24.9265 42.6191 24.9636 42.61 24.9747 42.5851C24.9874 42.5566 24.962 42.5202 24.9248 42.5079Z" fill="#0EC281"/>
</g>
<g clip-path="url(#clip2_59_5253)">
<path d="M29.2366 57.7369L41.5443 53.3364L45.0738 65.327L40.3275 69.3422L34.1101 69.2469L29.2366 57.7369ZM30.9704 58.4969L34.9762 67.9603L39.8603 68.0355L43.5884 64.8812L40.6855 55.0234L30.9704 58.4969ZM32.3927 59.3683L40.1374 56.5992L40.5082 57.8583L39.4523 58.2241L34.1252 60.1287L34.9819 62.1524L41.1257 59.9557L42.4273 64.3779L39.4514 66.8957L35.5538 66.8355L34.6941 64.8053L35.9322 64.3626L36.2041 65.0382L36.42 65.5495L38.9842 65.589L40.9421 63.9327L40.2678 61.6417L34.2629 63.7886L32.3927 59.3683Z" fill="#0EC281"/>
</g>
<g clip-path="url(#clip3_59_5253)">
<path d="M7.62246 10.8646L8.60474 10.5246M6.6591 12.8481L5.809 10.3924C5.71881 10.1319 5.73581 9.84621 5.85625 9.59823C5.9767 9.35024 6.19072 9.16026 6.45123 9.07008L10.3804 7.70991C10.6409 7.61972 10.9266 7.63672 11.1745 7.75716C11.4225 7.87761 11.6125 8.09163 11.7027 8.35214L13.4029 13.2636C13.4931 13.5241 13.4761 13.8097 13.3556 14.0577C13.2352 14.3057 13.0212 14.4957 12.7607 14.5859L8.83154 15.946C8.57102 16.0362 8.357 16.2262 8.23655 16.4742C8.11611 16.7222 8.09911 17.0079 8.1893 17.2684L9.88951 22.1798C9.9797 22.4403 10.1697 22.6543 10.4177 22.7748C10.6656 22.8952 10.9513 22.9122 11.2118 22.822L15.141 21.4618C15.4015 21.3717 15.6155 21.1817 15.7359 20.9337C15.8564 20.6857 15.8734 20.4 15.7832 20.1395L14.9331 17.6838M10.2671 12.1491L3.88228 14.3594C3.62176 14.4496 3.40774 14.6395 3.2873 14.8875C3.16686 15.1355 3.14986 15.4212 3.24004 15.6817L4.94026 20.5931C5.03044 20.8536 5.22042 21.0676 5.46841 21.1881C5.71639 21.3085 6.00206 21.3255 6.26258 21.2353L9.20943 20.2152M11.3251 18.3828L17.7099 16.1725C17.9704 16.0824 18.1845 15.8924 18.3049 15.6444C18.4253 15.3964 18.4423 15.1107 18.3522 14.8502L16.6519 9.93882C16.5618 9.6783 16.3718 9.46428 16.1238 9.34383C15.8758 9.22339 15.5901 9.20639 15.3296 9.29658L12.3828 10.3167M12.9875 20.0073L13.9697 19.6673" stroke="#0EC281" stroke-width="1.03947"/>
</g>
<defs>
<clipPath id="clip0_59_5253">
<rect width="15.5921" height="15.5921" fill="white" transform="translate(31.6473 0.0511169) rotate(22.8952)"/>
</clipPath>
<clipPath id="clip1_59_5253">
<rect width="15.5921" height="15.5921" fill="white" transform="translate(22.8472 30.9722) rotate(24.0121)"/>
</clipPath>
<clipPath id="clip2_59_5253">
<rect width="15.5921" height="15.5921" fill="white" transform="translate(27.8305 57.5497) rotate(-19.6738)"/>
</clipPath>
<clipPath id="clip3_59_5253">
<rect width="15.5921" height="15.5921" fill="white" transform="translate(0.878662 10.4492) rotate(-19.0947)"/>
</clipPath>
</defs>
</svg>
