<svg width="28" height="28" viewBox="0 0 28 28" fill="none" xmlns="http://www.w3.org/2000/svg">
<path d="M8.4013 0.666626H19.6013C23.868 0.666626 27.3346 4.13329 27.3346 8.39996V19.6C27.3346 21.651 26.5199 23.618 25.0696 25.0683C23.6193 26.5185 21.6523 27.3333 19.6013 27.3333H8.4013C4.13464 27.3333 0.667969 23.8666 0.667969 19.6V8.39996C0.667969 6.34895 1.48273 4.38195 2.93301 2.93167C4.38329 1.48139 6.35029 0.666626 8.4013 0.666626ZM8.13463 3.33329C6.8616 3.33329 5.6407 3.83901 4.74052 4.73918C3.84035 5.63935 3.33464 6.86025 3.33464 8.13329V19.8666C3.33464 22.52 5.4813 24.6666 8.13463 24.6666H19.868C21.141 24.6666 22.3619 24.1609 23.2621 23.2607C24.1623 22.3606 24.668 21.1397 24.668 19.8666V8.13329C24.668 5.47996 22.5213 3.33329 19.868 3.33329H8.13463ZM21.0013 5.33329C21.4433 5.33329 21.8673 5.50889 22.1798 5.82145C22.4924 6.13401 22.668 6.55793 22.668 6.99996C22.668 7.44199 22.4924 7.86591 22.1798 8.17847C21.8673 8.49103 21.4433 8.66663 21.0013 8.66663C20.5593 8.66663 20.1353 8.49103 19.8228 8.17847C19.5102 7.86591 19.3346 7.44199 19.3346 6.99996C19.3346 6.55793 19.5102 6.13401 19.8228 5.82145C20.1353 5.50889 20.5593 5.33329 21.0013 5.33329ZM14.0013 7.33329C15.7694 7.33329 17.4651 8.03567 18.7153 9.28591C19.9656 10.5362 20.668 12.2318 20.668 14C20.668 15.7681 19.9656 17.4638 18.7153 18.714C17.4651 19.9642 15.7694 20.6666 14.0013 20.6666C12.2332 20.6666 10.5375 19.9642 9.28726 18.714C8.03701 17.4638 7.33463 15.7681 7.33463 14C7.33463 12.2318 8.03701 10.5362 9.28726 9.28591C10.5375 8.03567 12.2332 7.33329 14.0013 7.33329ZM14.0013 9.99996C12.9404 9.99996 11.923 10.4214 11.1729 11.1715C10.4227 11.9217 10.0013 12.9391 10.0013 14C10.0013 15.0608 10.4227 16.0782 11.1729 16.8284C11.923 17.5785 12.9404 18 14.0013 18C15.0622 18 16.0796 17.5785 16.8297 16.8284C17.5799 16.0782 18.0013 15.0608 18.0013 14C18.0013 12.9391 17.5799 11.9217 16.8297 11.1715C16.0796 10.4214 15.0622 9.99996 14.0013 9.99996Z" fill="#161918"/>
</svg>
