<svg width="156" height="188" viewBox="0 0 156 188" fill="none" xmlns="http://www.w3.org/2000/svg">
<g opacity="0.99" filter="url(#filter0_d_172_19949)">
<path fill-rule="evenodd" clip-rule="evenodd" d="M52.3438 44.8965L149.999 101.172L52.3438 157.448V44.8965ZM55.174 49.7959V152.549L144.327 101.172L55.174 49.7959Z" fill="#0EC281"/>
<path fill-rule="evenodd" clip-rule="evenodd" d="M83.7931 6L117.724 25.4483L83.7931 44.8966V6ZM84.7765 7.69318V43.2034L115.753 25.4483L84.7765 7.69318Z" fill="#0EC281"/>
<path fill-rule="evenodd" clip-rule="evenodd" d="M12.6211 44.8965L34.1383 57.3103L12.6211 69.7241V44.8965ZM13.2447 45.9772V68.6433L32.8886 57.3103L13.2447 45.9772Z" fill="#0EC281"/>
<path fill-rule="evenodd" clip-rule="evenodd" d="M6 143.379L39.931 162.828L6 182.276V143.379ZM6.98339 145.072V180.583L37.9604 162.828L6.98339 145.072Z" fill="#0EC281"/>
</g>
<defs>
<filter id="filter0_d_172_19949" x="0.440711" y="0.440711" width="155.117" height="187.394" filterUnits="userSpaceOnUse" color-interpolation-filters="sRGB">
<feFlood flood-opacity="0" result="BackgroundImageFix"/>
<feColorMatrix in="SourceAlpha" type="matrix" values="0 0 0 0 0 0 0 0 0 0 0 0 0 0 0 0 0 0 127 0" result="hardAlpha"/>
<feOffset/>
<feGaussianBlur stdDeviation="2.77964"/>
<feComposite in2="hardAlpha" operator="out"/>
<feColorMatrix type="matrix" values="0 0 0 0 0.0557298 0 0 0 0 0.759948 0 0 0 0 0.504226 0 0 0 1 0"/>
<feBlend mode="normal" in2="BackgroundImageFix" result="effect1_dropShadow_172_19949"/>
<feBlend mode="normal" in="SourceGraphic" in2="effect1_dropShadow_172_19949" result="shape"/>
</filter>
</defs>
</svg>
