<svg width="32" height="32" viewBox="0 0 32 32" fill="none" xmlns="http://www.w3.org/2000/svg">
<g id="streamline:module-puzzle-3" clip-path="url(#clip0_59_2922)">
<g id="Group" filter="url(#filter0_d_59_2922)">
<path id="Union" fill-rule="evenodd" clip-rule="evenodd" d="M-0.000244141 0H31.9998V32H-0.000244141V0ZM1.99976 16.75V30H15.2493V24.3068L16.4993 25.425C16.8847 25.7697 17.3617 25.9955 17.8726 26.0752C18.3835 26.1548 18.9065 26.0848 19.3786 25.8737C19.8506 25.6627 20.2514 25.3194 20.5327 24.8856C20.814 24.4517 20.9637 23.9456 20.9637 23.4285C20.9637 22.9115 20.814 22.4054 20.5327 21.9715C20.2514 21.5376 19.8506 21.1944 19.3786 20.9833C18.9065 20.7722 18.3835 20.7023 17.8726 20.7819C17.3617 20.8616 16.8847 21.0874 16.4993 21.4321L15.2493 22.5502V16.75H12.4575C12.5706 17.0362 12.6523 17.3353 12.7001 17.6423C12.8243 18.4393 12.7152 19.2553 12.3859 19.9916C12.0566 20.728 11.5212 21.3533 10.8443 21.7921C10.1675 22.2309 9.37805 22.4644 8.57139 22.4644C7.76474 22.4644 6.97533 22.2309 6.29845 21.7921C5.62158 21.3533 5.08617 20.728 4.75687 19.9916C4.42757 19.2553 4.31844 18.4393 4.44267 17.6423C4.49052 17.3353 4.57221 17.0362 4.68529 16.75H1.99976ZM1.99976 15.25H7.69309L6.57497 16.5C6.23023 16.8854 6.00441 17.3624 5.92478 17.8733C5.84514 18.3842 5.91509 18.9073 6.12619 19.3793C6.33728 19.8513 6.68049 20.2522 7.11438 20.5335C7.54828 20.8147 8.05431 20.9644 8.57139 20.9644C9.08848 20.9644 9.59451 20.8147 10.0284 20.5335C10.4623 20.2522 10.8055 19.8513 11.0166 19.3793C11.2277 18.9073 11.2976 18.3842 11.218 17.8733C11.1384 17.3624 10.9126 16.8854 10.5678 16.5L9.4497 15.25H15.2493V12.4575C14.9631 12.5706 14.664 12.6523 14.357 12.7001C13.56 12.8243 12.744 12.7152 12.0077 12.3859C11.2713 12.0566 10.646 11.5212 10.2072 10.8443C9.76839 10.1675 9.53491 9.37805 9.53491 8.57139C9.53491 7.76474 9.76839 6.97533 10.2072 6.29845C10.646 5.62158 11.2713 5.08617 12.0077 4.75687C12.744 4.42757 13.56 4.31844 14.357 4.44267C14.664 4.49052 14.9631 4.57221 15.2493 4.68529V2H1.99976V15.25ZM16.7493 16.75V19.5424C17.0354 19.4294 17.3346 19.3477 17.6416 19.2998C18.4386 19.1756 19.2545 19.2847 19.9909 19.614C20.7273 19.9433 21.3526 20.4787 21.7914 21.1556C22.2302 21.8325 22.4637 22.6219 22.4637 23.4285C22.4637 24.2352 22.2302 25.0246 21.7914 25.7015C21.3526 26.3784 20.7273 26.9138 19.9909 27.2431C19.2545 27.5724 18.4386 27.6815 17.6416 27.5573C17.3346 27.5094 17.0354 27.4277 16.7493 27.3146V30H29.9998V16.75H24.3068L25.425 15.5C25.7697 15.1146 25.9955 14.6377 26.0752 14.1267C26.1548 13.6158 26.0848 13.0928 25.8737 12.6207C25.6627 12.1487 25.3194 11.7479 24.8856 11.4666C24.4517 11.1853 23.9456 11.0356 23.4285 11.0356C22.9115 11.0356 22.4054 11.1853 21.9715 11.4666C21.5376 11.7479 21.1944 12.1487 20.9833 12.6207C20.7722 13.0928 20.7023 13.6158 20.7819 14.1267C20.8616 14.6377 21.0874 15.1146 21.4321 15.5L22.5502 16.75H16.7493ZM29.9998 15.25H27.3146C27.4277 14.9639 27.5094 14.6647 27.5573 14.3577C27.6815 13.5607 27.5724 12.7448 27.2431 12.0084C26.9138 11.272 26.3784 10.6467 25.7015 10.2079C25.0246 9.76913 24.2352 9.53564 23.4285 9.53564C22.6219 9.53564 21.8325 9.76913 21.1556 10.2079C20.4787 10.6467 19.9433 11.272 19.614 12.0084C19.2847 12.7448 19.1756 13.5607 19.2998 14.3577C19.3477 14.6647 19.4294 14.9639 19.5424 15.25H16.7493V9.4497L15.4993 10.5678C15.1139 10.9126 14.6369 11.1384 14.126 11.218C13.6151 11.2976 13.092 11.2277 12.62 11.0166C12.148 10.8055 11.7471 10.4623 11.4658 10.0284C11.1846 9.59451 11.0349 9.08848 11.0349 8.57139C11.0349 8.05431 11.1846 7.54828 11.4658 7.11438C11.7471 6.68048 12.148 6.33728 12.62 6.12619C13.092 5.91509 13.6151 5.84514 14.126 5.92478C14.6369 6.00441 15.1139 6.23023 15.4993 6.57497L16.7493 7.69309V2H29.9998V15.25Z" fill="url(#paint0_linear_59_2922)"/>
</g>
</g>
<defs>
<filter id="filter0_d_59_2922" x="-4.00024" y="-4" width="40" height="40" filterUnits="userSpaceOnUse" color-interpolation-filters="sRGB">
<feFlood flood-opacity="0" result="BackgroundImageFix"/>
<feColorMatrix in="SourceAlpha" type="matrix" values="0 0 0 0 0 0 0 0 0 0 0 0 0 0 0 0 0 0 127 0" />
<feOffset/>
<feGaussianBlur stdDeviation="2"/>
<feComposite in2="hardAlpha" operator="out"/>
<feColorMatrix type="matrix" values="0 0 0 0 0.0557298 0 0 0 0 0.759948 0 0 0 0 0.504226 0 0 0 1 0"/>
<feBlend mode="normal" in2="BackgroundImageFix" result="effect1_dropShadow_59_2922"/>
<feBlend mode="normal" in="SourceGraphic" in2="effect1_dropShadow_59_2922" result="shape"/>
</filter>
<linearGradient id="paint0_linear_59_2922" x1="15.9998" y1="0" x2="15.9998" y2="32" gradientUnits="userSpaceOnUse">
<stop stop-color="#00AB26"/>
<stop offset="1" stop-color="#01B473"/>
</linearGradient>
<clipPath id="clip0_59_2922">
<rect width="32" height="32" fill="white"/>
</clipPath>
</defs>
</svg>
