<svg width="32" height="32" viewBox="0 0 32 32" fill="none" xmlns="http://www.w3.org/2000/svg">
<g id="grommet-icons:user-expert" clip-path="url(#clip0_59_2936)">
<g id="Vector (Stroke)" filter="url(#filter0_d_59_2936)">
<path fill-rule="evenodd" clip-rule="evenodd" d="M5.00981 2.34315C6.5101 0.842855 8.54494 0 10.6667 0C12.7884 0 14.8232 0.842855 16.3235 2.34315C17.8238 3.84344 18.6667 5.87827 18.6667 8C18.6667 10.1217 17.8238 12.1566 16.3235 13.6569C16.0539 13.9264 15.7671 14.1748 15.4656 14.4009C16.5309 14.913 17.4905 15.597 18.3113 16.4257L18.3131 16.4275C19.4489 17.5787 20.2984 18.9804 20.7934 20.5199L18.2546 21.3361C17.8877 20.1945 17.2578 19.1551 16.4158 18.3014C15.0059 16.8785 13.0054 16 10.6667 16C6.06971 16 2.66667 19.403 2.66667 24V29.3333H14.6667V32H0V24C0 19.6768 2.33214 16.1007 5.8675 14.4007C5.56609 14.1747 5.27932 13.9264 5.00981 13.6569C3.50952 12.1566 2.66667 10.1217 2.66667 8C2.66667 5.87827 3.50952 3.84344 5.00981 2.34315ZM10.6667 13.3333C12.0812 13.3333 13.4377 12.7714 14.4379 11.7712C15.4381 10.771 16 9.41449 16 8C16 6.58551 15.4381 5.22896 14.4379 4.22876C13.4377 3.22857 12.0812 2.66667 10.6667 2.66667C9.25218 2.66667 7.89563 3.22857 6.89543 4.22876C5.89524 5.22896 5.33333 6.58551 5.33333 8C5.33333 9.41449 5.89524 10.771 6.89543 11.7712C7.89563 12.7714 9.25218 13.3333 10.6667 13.3333ZM31.7299 18.1379L21.8447 31.202L15.1946 26.1612L16.8054 24.0361L21.3286 27.4647L29.6034 16.5288L31.7299 18.1379Z" fill="url(#paint0_linear_59_2936)"/>
</g>
</g>
<defs>
<filter id="filter0_d_59_2936" x="-4" y="-4" width="39.7299" height="40" filterUnits="userSpaceOnUse" color-interpolation-filters="sRGB">
<feFlood flood-opacity="0" result="BackgroundImageFix"/>
<feColorMatrix in="SourceAlpha" type="matrix" values="0 0 0 0 0 0 0 0 0 0 0 0 0 0 0 0 0 0 127 0" />
<feOffset/>
<feGaussianBlur stdDeviation="2"/>
<feComposite in2="hardAlpha" operator="out"/>
<feColorMatrix type="matrix" values="0 0 0 0 0.0557298 0 0 0 0 0.759948 0 0 0 0 0.504226 0 0 0 1 0"/>
<feBlend mode="normal" in2="BackgroundImageFix" result="effect1_dropShadow_59_2936"/>
<feBlend mode="normal" in="SourceGraphic" in2="effect1_dropShadow_59_2936" result="shape"/>
</filter>
<linearGradient id="paint0_linear_59_2936" x1="15.865" y1="0" x2="15.865" y2="32" gradientUnits="userSpaceOnUse">
<stop stop-color="#00AB26"/>
<stop offset="1" stop-color="#01B473"/>
</linearGradient>
<clipPath id="clip0_59_2936">
<rect width="32" height="32" fill="white"/>
</clipPath>
</defs>
</svg>
