<svg width="526" height="531" viewBox="0 0 526 531" fill="none" xmlns="http://www.w3.org/2000/svg">
<mask id="mask0_59_2478" style="mask-type:alpha" maskUnits="userSpaceOnUse" x="-49" y="0" width="575" height="545">
<g clip-path="url(#clip0_59_2478)">
<path d="M39.7405 220.464L43.0808 219.416L52.2598 249.536L48.9195 250.584L39.7405 220.464ZM57.6234 228.572L49.0851 226.114L46.6883 221.781L61.9573 226.175L57.5547 241.428L55.1578 237.095L57.6234 228.572ZM30.043 243.825L34.4371 228.556L36.834 232.89L34.3769 241.428L42.9067 243.87L45.3035 248.204L30.043 243.825Z" fill="#0EC281"/>
</g>
<g clip-path="url(#clip1_59_2478)">
<path d="M48.6757 387.745C48.7502 387.909 48.9382 387.986 49.0914 387.917L56.0017 384.783C56.1549 384.713 56.2209 384.521 56.1464 384.357L55.3332 382.564C55.2587 382.399 55.0707 382.322 54.9175 382.392L48.0071 385.526C47.854 385.596 47.788 385.788 47.8625 385.952L48.6757 387.745ZM41.4988 391.275L45.9432 382.008C46.0309 381.824 45.931 381.604 45.7348 381.549L35.8371 378.791C35.7771 378.774 35.7135 378.774 35.6537 378.792C35.5939 378.81 35.5405 378.845 35.4999 378.892C35.4593 378.94 35.4331 378.998 35.4244 379.059C35.4158 379.121 35.425 379.184 35.4511 379.241L36.5133 381.583C36.554 381.673 36.6286 381.738 36.725 381.762L42.3884 383.345L39.8489 388.65C39.8282 388.693 39.817 388.74 39.8162 388.788C39.8153 388.835 39.8248 388.883 39.8439 388.927L40.9062 391.269C41.0213 391.523 41.3791 391.527 41.4988 391.275ZM52.7684 360.623L25.2762 373.092C24.6151 373.392 24.3232 374.168 24.623 374.829L37.0917 402.321C37.3915 402.982 38.1679 403.274 38.8291 402.974L66.3213 390.506C66.9824 390.206 67.2743 389.43 66.9744 388.768L54.5058 361.276C54.206 360.615 53.4296 360.323 52.7684 360.623ZM63.6074 388.494L39.1035 399.607L27.9901 375.103L52.494 363.99L63.6074 388.494Z" fill="#0EC281"/>
</g>
<g clip-path="url(#clip2_59_2478)">
<path d="M37.3083 290.04L40.7312 290.77L40.0004 294.193L36.5776 293.462L34.7508 302.02C34.557 302.927 34.0105 303.721 33.2316 304.226C32.4526 304.731 31.505 304.906 30.5972 304.712C31.505 304.906 32.2987 305.452 32.8035 306.231C33.3084 307.01 33.4832 307.958 33.2894 308.865L31.4626 317.423L34.8855 318.153L34.1548 321.576L30.7319 320.845C28.9993 319.992 27.6379 318.574 28.0397 316.692L29.5012 309.846C29.695 308.938 29.5202 307.991 29.0153 307.212C28.5104 306.433 27.7168 305.886 26.809 305.692L25.0976 305.327L25.8283 301.904L27.5397 302.27C28.4475 302.463 29.3951 302.289 30.1741 301.784C30.953 301.279 31.4995 300.485 31.6933 299.577L33.1547 292.732C33.3485 291.824 33.895 291.03 34.6739 290.525C35.4529 290.021 36.4005 289.846 37.3083 290.04ZM61.2684 295.154C62.1762 295.348 62.9698 295.895 63.4747 296.674C63.9796 297.453 64.1544 298.4 63.9606 299.308L62.4991 306.154C62.3054 307.062 62.4801 308.009 62.985 308.788C63.4899 309.567 64.2835 310.114 65.1913 310.307L66.9027 310.673L66.172 314.096L64.4606 313.73C63.5528 313.536 62.6052 313.711 61.8262 314.216C61.0473 314.721 60.5008 315.515 60.307 316.422L58.8456 323.268C58.6518 324.176 58.1053 324.97 57.3264 325.475C56.5474 325.979 55.5998 326.154 54.692 325.96L51.2691 325.23L51.9999 321.807L55.4227 322.537L57.2495 313.98C57.4433 313.073 57.9898 312.279 58.7687 311.774C59.5477 311.269 60.4953 311.094 61.4031 311.288C60.4953 311.094 59.7016 310.548 59.1968 309.769C58.6919 308.99 58.5171 308.042 58.7109 307.135L60.5377 298.577L57.1148 297.847L57.8455 294.424L61.2684 295.154ZM44.9041 313.134C45.358 313.231 45.7548 313.504 46.0072 313.894C46.2597 314.283 46.3471 314.757 46.2502 315.211C46.1533 315.665 45.88 316.062 45.4906 316.314C45.1011 316.567 44.6273 316.654 44.1734 316.557C43.7195 316.46 43.3227 316.187 43.0702 315.798C42.8178 315.408 42.7304 314.934 42.8273 314.48C42.9242 314.026 43.1974 313.63 43.5869 313.377C43.9764 313.125 44.4502 313.037 44.9041 313.134ZM38.0583 311.673C38.5122 311.77 38.9091 312.043 39.1615 312.432C39.4139 312.822 39.5013 313.296 39.4044 313.75C39.3075 314.204 39.0343 314.6 38.6448 314.853C38.2553 315.105 37.7815 315.193 37.3276 315.096C36.8737 314.999 36.4769 314.726 36.2245 314.336C35.972 313.947 35.8847 313.473 35.9816 313.019C36.0784 312.565 36.3517 312.168 36.7412 311.916C37.1306 311.663 37.6044 311.576 38.0583 311.673ZM51.7498 314.596C52.2037 314.693 52.6006 314.966 52.853 315.355C53.1054 315.745 53.1928 316.219 53.0959 316.672C52.999 317.126 52.7258 317.523 52.3363 317.776C51.9468 318.028 51.473 318.115 51.0191 318.019C50.5652 317.922 50.1684 317.648 49.916 317.259C49.6635 316.869 49.5761 316.396 49.673 315.942C49.7699 315.488 50.0432 315.091 50.4327 314.839C50.8221 314.586 51.2959 314.499 51.7498 314.596Z" fill="#0EC281"/>
</g>
<g clip-path="url(#clip3_59_2478)">
<path d="M113.826 412.282L110.279 425.825M119.243 413.701L115.697 427.244M108.699 415.281L122.242 418.828M107.28 420.698L120.824 424.245M106.216 424.761L104.985 425.021C103.662 425.3 102.29 425.236 100.999 424.835C99.7081 424.434 98.541 423.71 97.6087 422.731C96.6765 421.753 96.01 420.552 95.6726 419.243C95.3353 417.934 95.3383 416.56 95.6814 415.253L95.9197 414.343C96.2622 413.035 96.9331 411.837 97.8688 410.862C98.8045 409.887 99.9739 409.167 101.266 408.771C102.558 408.375 103.93 408.315 105.251 408.598C106.573 408.882 107.8 409.498 108.817 410.388L109.763 411.218M88.2552 421.505L92.5112 405.253L111.246 400.029L125.015 413.765L120.759 430.017L102.025 435.241L88.2552 421.505Z" stroke="#0EC281" stroke-width="2.8"/>
</g>
<path d="M113.712 228.092C113.237 228.156 112.778 228.337 112.4 228.626L100.514 237.805C99.7468 238.398 99.3493 239.379 99.4791 240.341L101.3 253.843C101.431 254.818 102.073 255.646 102.97 256.015L106.615 257.51C108.363 258.095 108.948 258.016 109.689 257.916C112.122 257.588 113.315 255.931 112.972 253.381L111.093 239.451C111.08 239.351 111.027 239.26 110.947 239.199C110.866 239.138 110.765 239.111 110.665 239.124L109.039 239.344C108.989 239.35 108.941 239.365 108.898 239.39C108.854 239.415 108.816 239.449 108.785 239.489C108.755 239.529 108.733 239.574 108.72 239.623C108.708 239.671 108.705 239.722 108.713 239.772L110.59 253.689C110.744 254.834 109.711 256.112 107.671 255.421L103.858 253.856C103.79 253.83 103.73 253.787 103.685 253.73C103.64 253.673 103.611 253.604 103.602 253.532L101.783 240.044C101.762 239.888 101.823 239.747 101.942 239.652L113.829 230.473C113.884 230.427 113.951 230.397 114.023 230.388C114.094 230.378 114.167 230.389 114.232 230.419L128.126 236.121C128.266 236.181 128.362 236.301 128.381 236.444L130.202 249.945C130.221 250.088 130.163 250.242 130.054 250.323L118.156 259.516C118.098 259.556 118.031 259.582 117.961 259.592C117.891 259.601 117.82 259.594 117.753 259.57L114.171 258.054C114.122 258.027 114.067 258.014 114.011 258.017C113.955 258.02 113.901 258.038 113.855 258.07C113.002 258.715 112.842 258.802 112.024 259.217C111.824 259.31 111.517 259.484 112.216 259.761L116.865 261.73C117.313 261.908 117.799 261.975 118.267 261.911C118.748 261.847 119.199 261.653 119.584 261.363L131.482 252.17C132.25 251.576 132.649 250.609 132.517 249.633L130.698 236.145C130.567 235.169 129.925 234.342 129.028 233.973L115.12 228.26C114.677 228.081 114.188 228.028 113.712 228.092ZM118.584 238.038C114.903 238.534 112.915 240.392 113.266 242.993C113.647 245.816 115.937 246.299 119.522 246.173C123.805 246.019 124.215 246.602 124.327 247.435C124.52 248.865 123.445 249.633 120.727 249.999C117.306 250.461 116.435 249.703 115.96 248.045C115.936 247.959 115.881 247.886 115.807 247.837C115.732 247.789 115.642 247.769 115.554 247.782L113.876 248.008C113.779 248.021 113.692 248.072 113.633 248.15C113.574 248.227 113.548 248.325 113.561 248.422C113.854 250.594 115.387 253.023 121.032 252.261C125.116 251.711 127.24 249.782 126.861 246.972C126.486 244.189 124.5 243.702 120.473 243.702C116.384 243.723 115.944 243.505 115.818 242.568C115.712 241.788 115.925 240.713 118.891 240.313C121.531 239.957 122.597 240.396 123.24 242.123C123.302 242.287 123.463 242.398 123.645 242.373L125.323 242.147C125.427 242.133 125.511 242.069 125.579 241.98C125.609 241.937 125.629 241.889 125.638 241.837C125.647 241.785 125.645 241.732 125.631 241.682C124.957 238.647 122.72 237.48 118.584 238.038Z" fill="#0EC281"/>
<g clip-path="url(#clip4_59_2478)">
<path d="M101.038 301.178L93.178 328.962L120.963 336.822L128.823 309.038L101.038 301.178ZM102.849 304.418L125.582 310.849L119.151 333.582L96.4185 327.151L102.849 304.418ZM113.385 310.127C108.437 308.727 103.598 311.416 102.201 316.354C101.082 320.311 102.608 324.401 105.827 326.598C106.265 326.809 106.506 326.571 106.571 326.342C106.633 326.122 106.97 324.897 107.182 324.145C107.182 324.145 104.523 323.977 104.456 322.227C104.456 322.227 104.34 321.078 103.835 320.644C103.835 320.644 103.182 319.854 104.05 320.111C104.05 320.111 104.913 320.432 105.163 321.422C105.553 323.025 106.976 322.993 107.553 322.908C107.794 322.36 108.14 322.024 108.465 321.869C106.533 321.085 104.601 320.225 105.57 316.798C105.848 315.816 106.258 315.402 107.007 314.932C106.982 314.676 106.944 313.627 107.784 312.533C108.601 312.515 109.976 314.191 109.976 314.191C110.763 314.202 111.545 314.314 112.303 314.525C113.061 314.743 113.787 315.058 114.463 315.462C114.463 315.462 116.513 314.754 117.198 315.196C117.338 316.578 116.757 317.442 116.602 317.647C116.994 318.44 117.206 319.03 116.929 320.011C115.954 323.457 113.773 323.133 111.718 322.789C111.97 323.163 112.101 323.773 111.863 324.614C111.523 325.818 111.09 327.309 111.008 327.6C110.943 327.829 111.024 328.154 111.498 328.202C115.39 328.015 118.763 325.313 119.882 321.356C121.279 316.418 118.335 311.527 113.385 310.127ZM104.509 320.555C104.444 320.514 104.379 320.51 104.348 320.544C104.316 320.579 104.329 320.644 104.388 320.706C104.44 320.752 104.512 320.763 104.547 320.718C104.578 320.683 104.568 320.615 104.509 320.555ZM104.743 320.944C104.713 320.927 104.679 320.922 104.646 320.94C104.584 320.966 104.572 321.048 104.613 321.135C104.659 321.203 104.729 321.255 104.794 321.219C104.856 321.193 104.869 321.112 104.829 321.024C104.807 320.991 104.778 320.964 104.743 320.944ZM104.987 321.514C104.972 321.502 104.954 321.495 104.935 321.491C104.916 321.488 104.897 321.489 104.878 321.494C104.806 321.517 104.78 321.609 104.818 321.706C104.857 321.803 104.936 321.868 104.998 321.842C105.069 321.818 105.098 321.717 105.06 321.622C105.049 321.579 105.023 321.541 104.987 321.514ZM105.256 322.13C105.238 322.122 105.217 322.118 105.197 322.12C105.176 322.122 105.157 322.129 105.14 322.141C105.077 322.177 105.069 322.28 105.129 322.374C105.185 322.477 105.28 322.517 105.348 322.471C105.41 322.445 105.412 322.326 105.362 322.235C105.339 322.189 105.303 322.152 105.256 322.13ZM105.83 322.725C105.747 322.68 105.63 322.676 105.589 322.741C105.549 322.806 105.597 322.908 105.691 322.957C105.768 323.022 105.891 323.011 105.931 322.947C105.981 322.886 105.931 322.786 105.83 322.725ZM107.173 323.139C107.068 323.131 106.978 323.182 106.965 323.264C106.956 323.336 107.044 323.404 107.15 323.412C107.265 323.423 107.355 323.374 107.356 323.297C107.365 323.223 107.278 323.156 107.174 323.139L107.173 323.139ZM106.49 323.031C106.378 323 106.283 323.037 106.263 323.108C106.241 323.187 106.303 323.272 106.426 323.296C106.537 323.327 106.632 323.289 106.652 323.218C106.675 323.137 106.593 323.05 106.49 323.031Z" fill="#0EC281"/>
</g>
<g clip-path="url(#clip5_59_2478)">
<path d="M144.563 370.695L178.253 360.465L186.181 393.187L172.886 403.37L156.171 402.3L144.563 370.695ZM149.129 372.967L158.669 398.952L171.8 399.793L182.243 391.793L175.721 364.892L149.129 372.967ZM152.841 375.497L174.041 369.06L174.874 372.496L171.985 373.342L157.403 377.77L159.444 383.326L176.261 378.22L179.185 390.288L170.849 396.673L160.37 396.001L158.322 390.427L161.712 389.397L162.355 391.25L162.869 392.654L169.763 393.096L175.247 388.896L173.732 382.643L157.295 387.635L152.841 375.497Z" fill="#0EC281"/>
</g>
<g clip-path="url(#clip6_59_2478)">
<path d="M177.326 289.387L179.989 290.251M172.035 292.086L174.195 285.428C174.424 284.721 174.924 284.135 175.586 283.798C176.247 283.46 177.016 283.399 177.722 283.628L188.376 287.085C189.082 287.314 189.668 287.814 190.006 288.476C190.343 289.137 190.404 289.906 190.175 290.612L185.854 303.929C185.625 304.635 185.125 305.222 184.463 305.559C183.802 305.896 183.033 305.957 182.327 305.728L171.674 302.272C170.967 302.043 170.199 302.103 169.537 302.441C168.876 302.778 168.375 303.365 168.146 304.071L163.826 317.388C163.597 318.094 163.658 318.863 163.995 319.524C164.332 320.186 164.919 320.686 165.625 320.915L176.279 324.372C176.985 324.601 177.753 324.54 178.415 324.202C179.076 323.865 179.577 323.279 179.806 322.572L181.966 315.914M180.924 296.442L163.613 290.826C162.906 290.596 162.138 290.657 161.476 290.995C160.815 291.332 160.314 291.918 160.085 292.625L155.765 305.942C155.536 306.648 155.596 307.416 155.934 308.078C156.271 308.739 156.858 309.24 157.564 309.469L165.554 312.061M173.077 311.558L190.388 317.174C191.095 317.404 191.863 317.343 192.525 317.005C193.186 316.668 193.686 316.082 193.916 315.375L198.236 302.058C198.465 301.352 198.404 300.584 198.067 299.922C197.729 299.261 197.143 298.76 196.437 298.531L188.447 295.939M174.012 317.749L176.675 318.613" stroke="#0EC281" stroke-width="2.8"/>
</g>
<g clip-path="url(#clip7_59_2478)">
<path d="M230.281 322.004L233.621 320.956L242.8 351.076L239.46 352.124L230.281 322.004ZM248.163 330.112L239.625 327.655L237.228 323.321L252.497 327.715L248.095 342.969L245.698 338.635L248.163 330.112ZM220.583 345.365L224.977 330.096L227.374 334.43L224.917 342.969L233.447 345.41L235.844 349.744L220.583 345.365Z" fill="#0EC281"/>
</g>
<g clip-path="url(#clip8_59_2478)">
<path d="M239.216 489.285C239.29 489.45 239.478 489.526 239.631 489.457L246.542 486.323C246.695 486.253 246.761 486.061 246.686 485.897L245.873 484.104C245.799 483.94 245.611 483.863 245.458 483.932L238.547 487.066C238.394 487.136 238.328 487.328 238.403 487.492L239.216 489.285ZM232.039 492.815L236.483 483.548C236.571 483.364 236.471 483.144 236.275 483.089L226.377 480.331C226.317 480.314 226.253 480.315 226.194 480.332C226.134 480.35 226.081 480.385 226.04 480.432C225.999 480.48 225.973 480.538 225.964 480.6C225.956 480.661 225.965 480.724 225.991 480.781L227.053 483.123C227.094 483.213 227.169 483.278 227.265 483.302L232.928 484.886L230.389 490.19C230.368 490.233 230.357 490.28 230.356 490.328C230.355 490.376 230.365 490.423 230.384 490.467L231.446 492.809C231.561 493.063 231.919 493.067 232.039 492.815ZM243.308 462.163L215.816 474.632C215.155 474.932 214.863 475.708 215.163 476.369L227.632 503.862C227.932 504.523 228.708 504.815 229.369 504.515L256.861 492.046C257.522 491.746 257.814 490.97 257.514 490.309L245.046 462.817C244.746 462.155 243.97 461.863 243.308 462.163ZM254.147 490.034L229.644 501.148L218.53 476.644L243.034 465.53L254.147 490.034Z" fill="#0EC281"/>
</g>
<g clip-path="url(#clip9_59_2478)">
<path d="M227.848 391.58L231.271 392.31L230.54 395.733L227.118 395.003L225.291 403.56C225.097 404.468 224.551 405.261 223.772 405.766C222.993 406.271 222.045 406.446 221.137 406.252C222.045 406.446 222.839 406.992 223.344 407.771C223.848 408.55 224.023 409.498 223.829 410.406L222.003 418.963L225.426 419.693L224.695 423.116L221.272 422.386C219.539 421.533 218.178 420.115 218.58 418.232L220.041 411.386C220.235 410.478 220.06 409.531 219.555 408.752C219.05 407.973 218.257 407.426 217.349 407.233L215.638 406.867L216.368 403.444L218.08 403.81C218.988 404.004 219.935 403.829 220.714 403.324C221.493 402.819 222.04 402.025 222.233 401.118L223.695 394.272C223.889 393.364 224.435 392.57 225.214 392.066C225.993 391.561 226.941 391.386 227.848 391.58ZM251.808 396.695C252.716 396.888 253.51 397.435 254.015 398.214C254.52 398.993 254.694 399.94 254.501 400.848L253.039 407.694C252.845 408.602 253.02 409.549 253.525 410.328C254.03 411.107 254.824 411.654 255.731 411.848L257.443 412.213L256.712 415.636L255.001 415.27C254.093 415.077 253.145 415.251 252.366 415.756C251.587 416.261 251.041 417.055 250.847 417.963L249.386 424.808C249.192 425.716 248.645 426.51 247.866 427.015C247.087 427.52 246.14 427.694 245.232 427.501L241.809 426.77L242.54 423.347L245.963 424.078L247.79 415.52C247.983 414.613 248.53 413.819 249.309 413.314C250.088 412.809 251.035 412.635 251.943 412.828C251.035 412.635 250.242 412.088 249.737 411.309C249.232 410.53 249.057 409.583 249.251 408.675L251.078 400.118L247.655 399.387L248.386 395.964L251.808 396.695ZM235.444 414.674C235.898 414.771 236.295 415.045 236.547 415.434C236.8 415.824 236.887 416.297 236.79 416.751C236.693 417.205 236.42 417.602 236.031 417.854C235.641 418.107 235.167 418.194 234.713 418.097C234.26 418 233.863 417.727 233.61 417.338C233.358 416.948 233.27 416.474 233.367 416.021C233.464 415.567 233.737 415.17 234.127 414.917C234.516 414.665 234.99 414.578 235.444 414.674ZM228.598 413.213C229.052 413.31 229.449 413.583 229.702 413.973C229.954 414.362 230.041 414.836 229.944 415.29C229.848 415.744 229.574 416.141 229.185 416.393C228.795 416.645 228.322 416.733 227.868 416.636C227.414 416.539 227.017 416.266 226.765 415.876C226.512 415.487 226.425 415.013 226.522 414.559C226.618 414.105 226.892 413.708 227.281 413.456C227.671 413.203 228.144 413.116 228.598 413.213ZM242.29 416.136C242.744 416.233 243.141 416.506 243.393 416.895C243.645 417.285 243.733 417.759 243.636 418.213C243.539 418.667 243.266 419.063 242.876 419.316C242.487 419.568 242.013 419.656 241.559 419.559C241.105 419.462 240.708 419.189 240.456 418.799C240.204 418.41 240.116 417.936 240.213 417.482C240.31 417.028 240.583 416.631 240.973 416.379C241.362 416.126 241.836 416.039 242.29 416.136Z" fill="#0EC281"/>
</g>
<g clip-path="url(#clip10_59_2478)">
<path d="M304.366 513.822L300.819 527.365M309.783 515.241L306.237 528.784M299.239 516.821L312.782 520.368M297.82 522.238L311.364 525.785M296.756 526.301L295.525 526.561C294.202 526.84 292.83 526.776 291.539 526.375C290.248 525.975 289.081 525.25 288.149 524.272C287.217 523.293 286.55 522.092 286.213 520.783C285.875 519.474 285.878 518.1 286.221 516.793L286.46 515.883C286.802 514.575 287.473 513.377 288.409 512.402C289.345 511.427 290.514 510.707 291.806 510.311C293.098 509.915 294.47 509.856 295.791 510.139C297.113 510.422 298.34 511.038 299.357 511.929L300.303 512.758M278.795 523.045L283.051 506.793L301.786 501.569L315.555 515.305L311.299 531.557L292.565 536.781L278.795 523.045Z" stroke="#0EC281" stroke-width="2.8"/>
</g>
<path d="M304.252 329.632C303.777 329.696 303.318 329.877 302.94 330.166L291.054 339.345C290.287 339.938 289.889 340.919 290.019 341.881L291.84 355.383C291.971 356.358 292.613 357.186 293.51 357.555L297.155 359.05C298.903 359.635 299.488 359.556 300.23 359.456C302.662 359.128 303.855 357.471 303.512 354.921L301.633 340.991C301.62 340.891 301.567 340.8 301.487 340.739C301.406 340.678 301.305 340.651 301.205 340.664L299.579 340.884C299.529 340.89 299.481 340.906 299.438 340.93C299.394 340.955 299.356 340.989 299.325 341.029C299.295 341.069 299.273 341.114 299.26 341.163C299.248 341.211 299.245 341.262 299.253 341.312L301.13 355.229C301.284 356.374 300.251 357.652 298.211 356.961L294.398 355.396C294.33 355.37 294.27 355.327 294.225 355.27C294.18 355.213 294.151 355.145 294.142 355.072L292.323 341.584C292.302 341.428 292.363 341.287 292.482 341.192L304.369 332.013C304.424 331.967 304.491 331.937 304.563 331.928C304.634 331.918 304.707 331.929 304.772 331.959L318.666 337.661C318.806 337.721 318.902 337.841 318.921 337.984L320.742 351.485C320.761 351.629 320.703 351.782 320.594 351.863L308.696 361.056C308.638 361.096 308.571 361.122 308.501 361.132C308.431 361.141 308.36 361.134 308.293 361.11L304.711 359.594C304.662 359.567 304.607 359.554 304.551 359.557C304.495 359.56 304.441 359.578 304.395 359.61C303.542 360.255 303.382 360.342 302.564 360.757C302.364 360.85 302.057 361.024 302.756 361.301L307.405 363.27C307.853 363.448 308.339 363.515 308.807 363.452C309.289 363.387 309.739 363.193 310.124 362.903L322.022 353.71C322.79 353.116 323.189 352.149 323.057 351.173L321.238 337.685C321.107 336.709 320.465 335.882 319.568 335.513L305.66 329.8C305.217 329.621 304.728 329.568 304.252 329.632ZM309.124 339.578C305.443 340.074 303.455 341.932 303.806 344.533C304.187 347.356 306.477 347.839 310.062 347.713C314.346 347.559 314.755 348.142 314.868 348.975C315.06 350.405 313.985 351.173 311.267 351.539C307.846 352.001 306.975 351.243 306.5 349.585C306.476 349.499 306.421 349.426 306.347 349.377C306.272 349.329 306.182 349.309 306.094 349.322L304.416 349.548C304.319 349.561 304.232 349.612 304.173 349.69C304.114 349.767 304.088 349.865 304.101 349.962C304.394 352.134 305.927 354.563 311.572 353.801C315.656 353.251 317.78 351.322 317.401 348.512C317.026 345.729 315.04 345.242 311.013 345.242C306.924 345.263 306.484 345.045 306.358 344.108C306.252 343.328 306.465 342.253 309.431 341.853C312.071 341.497 313.137 341.936 313.78 343.663C313.842 343.827 314.003 343.938 314.185 343.913L315.863 343.687C315.967 343.673 316.051 343.609 316.119 343.52C316.149 343.478 316.169 343.429 316.178 343.377C316.187 343.325 316.185 343.272 316.171 343.222C315.497 340.187 313.26 339.02 309.124 339.578Z" fill="#0EC281"/>
<g clip-path="url(#clip11_59_2478)">
<path d="M291.578 402.718L283.718 430.503L311.503 438.363L319.363 410.578L291.578 402.718ZM293.389 405.958L316.122 412.389L309.691 435.122L286.959 428.691L293.389 405.958ZM303.925 411.667C298.977 410.267 294.138 412.956 292.741 417.894C291.622 421.851 293.148 425.941 296.367 428.138C296.805 428.349 297.046 428.112 297.111 427.882C297.173 427.662 297.51 426.437 297.722 425.686C297.722 425.686 295.063 425.517 294.996 423.767C294.996 423.767 294.88 422.619 294.375 422.184C294.375 422.184 293.722 421.395 294.59 421.651C294.59 421.651 295.453 421.972 295.703 422.962C296.093 424.566 297.516 424.533 298.093 424.448C298.334 423.9 298.68 423.564 299.005 423.409C297.073 422.625 295.141 421.765 296.11 418.338C296.388 417.356 296.798 416.943 297.547 416.473C297.522 416.216 297.484 415.167 298.324 414.074C299.141 414.055 300.516 415.732 300.516 415.732C301.303 415.742 302.085 415.854 302.843 416.065C303.601 416.283 304.327 416.598 305.003 417.002C305.003 417.002 307.053 416.295 307.738 416.737C307.878 418.118 307.297 418.982 307.142 419.187C307.534 419.98 307.746 420.57 307.469 421.552C306.494 424.997 304.313 424.673 302.258 424.329C302.51 424.703 302.641 425.313 302.403 426.155C302.063 427.358 301.63 428.849 301.548 429.14C301.483 429.37 301.564 429.694 302.038 429.742C305.93 429.556 309.303 426.853 310.422 422.896C311.819 417.958 308.875 413.067 303.925 411.667ZM295.049 422.095C294.984 422.055 294.919 422.05 294.888 422.085C294.856 422.119 294.869 422.184 294.928 422.246C294.98 422.292 295.052 422.303 295.087 422.258C295.119 422.224 295.108 422.155 295.049 422.095ZM295.283 422.484C295.253 422.468 295.219 422.462 295.186 422.48C295.124 422.506 295.112 422.589 295.153 422.675C295.199 422.743 295.269 422.796 295.334 422.759C295.396 422.733 295.409 422.652 295.369 422.564C295.347 422.532 295.318 422.504 295.283 422.484ZM295.527 423.054C295.512 423.043 295.494 423.035 295.475 423.031C295.456 423.028 295.437 423.029 295.418 423.034C295.346 423.057 295.32 423.15 295.358 423.246C295.397 423.343 295.476 423.408 295.538 423.382C295.609 423.358 295.638 423.257 295.601 423.162C295.589 423.119 295.563 423.081 295.527 423.054ZM295.796 423.67C295.778 423.662 295.757 423.658 295.737 423.66C295.716 423.662 295.697 423.669 295.68 423.681C295.617 423.718 295.609 423.821 295.669 423.914C295.726 424.017 295.82 424.058 295.888 424.011C295.95 423.985 295.952 423.866 295.902 423.775C295.879 423.729 295.843 423.692 295.796 423.67ZM296.37 424.265C296.287 424.22 296.17 424.217 296.13 424.282C296.089 424.347 296.137 424.449 296.231 424.497C296.308 424.563 296.431 424.551 296.471 424.487C296.521 424.426 296.471 424.326 296.37 424.265ZM297.713 424.679C297.608 424.671 297.518 424.722 297.505 424.804C297.496 424.877 297.584 424.944 297.69 424.952C297.805 424.963 297.895 424.915 297.896 424.837C297.906 424.763 297.818 424.696 297.714 424.679L297.713 424.679ZM297.03 424.572C296.918 424.54 296.823 424.577 296.803 424.648C296.781 424.728 296.843 424.812 296.966 424.836C297.077 424.867 297.172 424.829 297.192 424.758C297.215 424.677 297.133 424.59 297.03 424.572Z" fill="#0EC281"/>
</g>
<g clip-path="url(#clip12_59_2478)">
<path d="M335.103 472.236L368.793 462.005L376.721 494.728L363.426 504.91L346.711 503.841L335.103 472.236ZM339.669 474.507L349.209 500.492L362.34 501.333L372.783 493.334L366.261 466.432L339.669 474.507ZM343.382 477.037L364.581 470.6L365.414 474.036L362.525 474.882L347.943 479.31L349.984 484.867L366.801 479.76L369.725 491.828L361.389 498.213L350.91 497.541L348.862 491.967L352.252 490.938L352.895 492.791L353.409 494.195L360.303 494.636L365.787 490.436L364.272 484.184L347.835 489.175L343.382 477.037Z" fill="#0EC281"/>
</g>
<g clip-path="url(#clip13_59_2478)">
<path d="M367.866 390.927L370.529 391.792M362.575 393.626L364.735 386.968C364.964 386.262 365.464 385.675 366.126 385.338C366.787 385 367.556 384.94 368.262 385.169L378.916 388.625C379.622 388.854 380.208 389.355 380.546 390.016C380.883 390.678 380.944 391.446 380.715 392.152L376.395 405.469C376.165 406.175 375.665 406.762 375.003 407.099C374.342 407.437 373.573 407.498 372.867 407.268L362.214 403.812C361.507 403.583 360.739 403.644 360.077 403.981C359.416 404.319 358.916 404.905 358.686 405.611L354.366 418.928C354.137 419.634 354.198 420.403 354.535 421.064C354.873 421.726 355.459 422.226 356.165 422.456L366.819 425.912C367.525 426.141 368.293 426.08 368.955 425.743C369.616 425.405 370.117 424.819 370.346 424.113L372.506 417.454M371.464 397.982L354.153 392.366C353.446 392.137 352.678 392.197 352.016 392.535C351.355 392.872 350.854 393.459 350.625 394.165L346.305 407.482C346.076 408.188 346.137 408.957 346.474 409.618C346.811 410.28 347.398 410.78 348.104 411.009L356.094 413.601M363.617 413.098L380.928 418.715C381.635 418.944 382.403 418.883 383.065 418.546C383.726 418.208 384.227 417.622 384.456 416.915L388.776 403.599C389.005 402.892 388.944 402.124 388.607 401.462C388.27 400.801 387.683 400.3 386.977 400.071L378.987 397.479M364.552 419.289L367.215 420.153" stroke="#0EC281" stroke-width="2.8"/>
</g>
<g clip-path="url(#clip14_59_2478)">
<path d="M173.281 70.0038L176.621 68.9563L185.8 99.0765L182.46 100.124L173.281 70.0038ZM191.163 78.1118L182.625 75.6546L180.228 71.3208L195.497 75.7149L191.095 90.9686L188.698 86.6347L191.163 78.1118ZM163.583 93.3654L167.977 78.0964L170.374 82.4303L167.917 90.9685L176.447 93.4104L178.844 97.7442L163.583 93.3654Z" fill="#0EC281"/>
</g>
<g clip-path="url(#clip15_59_2478)">
<path d="M182.216 237.285C182.29 237.449 182.478 237.526 182.631 237.457L189.542 234.323C189.695 234.253 189.761 234.061 189.686 233.897L188.873 232.104C188.799 231.94 188.611 231.863 188.458 231.932L181.547 235.066C181.394 235.136 181.328 235.328 181.403 235.492L182.216 237.285ZM175.039 240.815L179.483 231.548C179.571 231.364 179.471 231.144 179.275 231.089L169.377 228.331C169.317 228.314 169.253 228.314 169.194 228.332C169.134 228.35 169.081 228.385 169.04 228.432C168.999 228.48 168.973 228.538 168.964 228.6C168.956 228.661 168.965 228.724 168.991 228.781L170.053 231.123C170.094 231.213 170.169 231.278 170.265 231.302L175.928 232.886L173.389 238.19C173.368 238.233 173.357 238.28 173.356 238.328C173.355 238.376 173.365 238.423 173.384 238.467L174.446 240.809C174.561 241.063 174.919 241.067 175.039 240.815ZM186.308 210.163L158.816 222.632C158.155 222.932 157.863 223.708 158.163 224.369L170.632 251.861C170.932 252.523 171.708 252.814 172.369 252.515L199.861 240.046C200.522 239.746 200.814 238.97 200.514 238.309L188.046 210.816C187.746 210.155 186.97 209.863 186.308 210.163ZM197.147 238.034L172.644 249.148L161.53 224.644L186.034 213.53L197.147 238.034Z" fill="#0EC281"/>
</g>
<g clip-path="url(#clip16_59_2478)">
<path d="M170.848 139.58L174.271 140.31L173.54 143.733L170.118 143.003L168.291 151.56C168.097 152.468 167.551 153.261 166.772 153.766C165.993 154.271 165.045 154.446 164.137 154.252C165.045 154.446 165.839 154.992 166.344 155.771C166.848 156.55 167.023 157.498 166.829 158.406L165.003 166.963L168.426 167.693L167.695 171.116L164.272 170.386C162.539 169.533 161.178 168.115 161.58 166.232L163.041 159.386C163.235 158.478 163.06 157.531 162.555 156.752C162.05 155.973 161.257 155.426 160.349 155.233L158.638 154.867L159.368 151.444L161.08 151.81C161.988 152.004 162.935 151.829 163.714 151.324C164.493 150.819 165.04 150.025 165.233 149.118L166.695 142.272C166.889 141.364 167.435 140.57 168.214 140.066C168.993 139.561 169.941 139.386 170.848 139.58ZM194.808 144.695C195.716 144.888 196.51 145.435 197.015 146.214C197.52 146.993 197.694 147.94 197.501 148.848L196.039 155.694C195.845 156.602 196.02 157.549 196.525 158.328C197.03 159.107 197.824 159.654 198.731 159.848L200.443 160.213L199.712 163.636L198.001 163.27C197.093 163.077 196.145 163.251 195.366 163.756C194.587 164.261 194.041 165.055 193.847 165.963L192.386 172.808C192.192 173.716 191.645 174.51 190.866 175.015C190.087 175.52 189.14 175.694 188.232 175.501L184.809 174.77L185.54 171.347L188.963 172.078L190.79 163.52C190.983 162.613 191.53 161.819 192.309 161.314C193.088 160.809 194.035 160.635 194.943 160.828C194.035 160.635 193.242 160.088 192.737 159.309C192.232 158.53 192.057 157.583 192.251 156.675L194.078 148.118L190.655 147.387L191.386 143.964L194.808 144.695ZM178.444 162.674C178.898 162.771 179.295 163.045 179.547 163.434C179.8 163.824 179.887 164.297 179.79 164.751C179.693 165.205 179.42 165.602 179.031 165.854C178.641 166.107 178.167 166.194 177.713 166.097C177.26 166 176.863 165.727 176.61 165.338C176.358 164.948 176.27 164.474 176.367 164.021C176.464 163.567 176.737 163.17 177.127 162.917C177.516 162.665 177.99 162.578 178.444 162.674ZM171.598 161.213C172.052 161.31 172.449 161.583 172.702 161.973C172.954 162.362 173.041 162.836 172.944 163.29C172.848 163.744 172.574 164.141 172.185 164.393C171.795 164.645 171.322 164.733 170.868 164.636C170.414 164.539 170.017 164.266 169.765 163.876C169.512 163.487 169.425 163.013 169.522 162.559C169.618 162.105 169.892 161.708 170.281 161.456C170.671 161.203 171.144 161.116 171.598 161.213ZM185.29 164.136C185.744 164.233 186.141 164.506 186.393 164.895C186.645 165.285 186.733 165.759 186.636 166.213C186.539 166.667 186.266 167.063 185.876 167.316C185.487 167.568 185.013 167.656 184.559 167.559C184.105 167.462 183.708 167.189 183.456 166.799C183.204 166.41 183.116 165.936 183.213 165.482C183.31 165.028 183.583 164.631 183.973 164.379C184.362 164.126 184.836 164.039 185.29 164.136Z" fill="#0EC281"/>
</g>
<g clip-path="url(#clip17_59_2478)">
<path d="M247.366 261.822L243.819 275.365M252.783 263.241L249.237 276.784M242.239 264.821L255.782 268.368M240.82 270.238L254.364 273.785M239.756 274.301L238.525 274.561C237.202 274.84 235.83 274.776 234.539 274.375C233.248 273.975 232.081 273.25 231.149 272.272C230.217 271.293 229.55 270.092 229.213 268.783C228.875 267.474 228.878 266.1 229.221 264.793L229.46 263.883C229.802 262.575 230.473 261.377 231.409 260.402C232.345 259.427 233.514 258.707 234.806 258.311C236.098 257.915 237.47 257.856 238.791 258.139C240.113 258.422 241.34 259.038 242.357 259.929L243.303 260.758M221.795 271.045L226.051 254.793L244.786 249.569L258.555 263.305L254.299 279.557L235.565 284.781L221.795 271.045Z" stroke="#0EC281" stroke-width="2.8"/>
</g>
<path d="M247.252 77.6318C246.777 77.6958 246.318 77.8769 245.94 78.1663L234.054 87.3445C233.287 87.9381 232.889 88.9187 233.019 89.8813L234.84 103.383C234.971 104.358 235.613 105.186 236.51 105.555L240.155 107.05C241.903 107.635 242.488 107.556 243.23 107.456C245.662 107.128 246.855 105.471 246.512 102.921L244.633 88.9905C244.62 88.8905 244.567 88.7999 244.487 88.7387C244.406 88.6775 244.305 88.6507 244.205 88.6642L242.579 88.8835C242.529 88.8895 242.481 88.9054 242.438 88.9303C242.394 88.9552 242.356 88.9886 242.325 89.0286C242.295 89.0685 242.273 89.1141 242.26 89.1627C242.248 89.2113 242.245 89.2619 242.253 89.3115L244.13 103.229C244.284 104.374 243.251 105.652 241.211 104.961L237.398 103.395C237.33 103.37 237.27 103.327 237.225 103.27C237.18 103.213 237.151 103.144 237.142 103.072L235.323 89.5838C235.302 89.4277 235.363 89.2871 235.482 89.1915L247.369 80.0131C247.424 79.9668 247.491 79.9372 247.563 79.9275C247.634 79.9179 247.707 79.9287 247.772 79.9587L261.666 85.6606C261.806 85.7211 261.902 85.8407 261.921 85.9838L263.742 99.4853C263.761 99.6284 263.703 99.782 263.594 99.8628L251.696 109.056C251.638 109.096 251.571 109.122 251.501 109.132C251.431 109.141 251.36 109.134 251.293 109.11L247.711 107.594C247.662 107.567 247.607 107.554 247.551 107.557C247.495 107.56 247.441 107.578 247.395 107.61C246.542 108.254 246.382 108.342 245.564 108.757C245.364 108.85 245.057 109.024 245.756 109.301L250.405 111.27C250.853 111.448 251.339 111.515 251.807 111.451C252.289 111.386 252.739 111.193 253.124 110.903L265.022 101.71C265.79 101.116 266.189 100.149 266.057 99.1731L264.238 85.6846C264.107 84.709 263.465 83.8817 262.568 83.5127L248.66 77.7995C248.217 77.6208 247.728 77.5676 247.252 77.6318ZM252.124 87.5778C248.443 88.0742 246.455 89.9315 246.806 92.5329C247.187 95.3555 249.477 95.8387 253.062 95.7128C257.346 95.5589 257.755 96.142 257.868 96.9745C258.06 98.4053 256.985 99.1727 254.267 99.5393C250.846 100.001 249.975 99.2426 249.5 97.585C249.476 97.4994 249.421 97.4255 249.347 97.3771C249.272 97.3287 249.182 97.3091 249.094 97.3219L247.416 97.5482C247.319 97.5612 247.232 97.6121 247.173 97.6896C247.114 97.7671 247.088 97.8649 247.101 97.9615C247.394 100.134 248.927 102.563 254.572 101.801C258.656 101.251 260.78 99.3219 260.401 96.5123C260.026 93.7288 258.04 93.2417 254.013 93.2416C249.924 93.2633 249.484 93.0446 249.358 92.108C249.252 91.3276 249.465 90.2527 252.431 89.8527C255.071 89.4967 256.137 89.9357 256.78 91.6633C256.842 91.8271 257.003 91.9379 257.185 91.9134L258.863 91.6871C258.967 91.6731 259.051 91.6087 259.119 91.5202C259.149 91.4774 259.169 91.4285 259.178 91.3769C259.187 91.3252 259.185 91.2723 259.171 91.2217C258.497 88.1871 256.26 87.02 252.124 87.5778Z" fill="#0EC281"/>
<g clip-path="url(#clip18_59_2478)">
<path d="M234.578 150.718L226.718 178.503L254.503 186.363L262.363 158.578L234.578 150.718ZM236.389 153.958L259.122 160.389L252.691 183.122L229.959 176.691L236.389 153.958ZM246.925 159.667C241.977 158.267 237.138 160.956 235.741 165.894C234.622 169.851 236.148 173.941 239.367 176.138C239.805 176.349 240.046 176.112 240.111 175.882C240.173 175.662 240.51 174.437 240.722 173.685C240.722 173.685 238.063 173.517 237.996 171.767C237.996 171.767 237.88 170.618 237.375 170.184C237.375 170.184 236.722 169.395 237.59 169.651C237.59 169.651 238.453 169.972 238.703 170.962C239.093 172.566 240.516 172.533 241.093 172.448C241.334 171.9 241.68 171.564 242.005 171.409C240.073 170.625 238.141 169.765 239.11 166.338C239.388 165.356 239.798 164.943 240.547 164.473C240.522 164.216 240.484 163.167 241.324 162.073C242.141 162.055 243.516 163.732 243.516 163.732C244.303 163.742 245.085 163.854 245.843 164.065C246.601 164.283 247.327 164.598 248.003 165.002C248.003 165.002 250.053 164.295 250.738 164.737C250.878 166.118 250.297 166.982 250.142 167.187C250.534 167.98 250.746 168.57 250.469 169.552C249.494 172.997 247.313 172.673 245.258 172.329C245.51 172.703 245.641 173.313 245.403 174.154C245.063 175.358 244.63 176.849 244.548 177.14C244.483 177.37 244.564 177.694 245.038 177.742C248.93 177.556 252.303 174.853 253.422 170.896C254.819 165.958 251.875 161.067 246.925 159.667ZM238.049 170.095C237.984 170.054 237.919 170.05 237.888 170.085C237.856 170.119 237.869 170.184 237.928 170.246C237.98 170.292 238.052 170.303 238.087 170.258C238.119 170.224 238.108 170.155 238.049 170.095ZM238.283 170.484C238.253 170.468 238.219 170.462 238.186 170.48C238.124 170.506 238.112 170.589 238.153 170.675C238.199 170.743 238.269 170.795 238.334 170.759C238.396 170.733 238.409 170.652 238.369 170.564C238.347 170.531 238.318 170.504 238.283 170.484ZM238.527 171.054C238.512 171.042 238.494 171.035 238.475 171.031C238.456 171.028 238.437 171.029 238.418 171.034C238.346 171.057 238.32 171.15 238.358 171.246C238.397 171.343 238.476 171.408 238.538 171.382C238.609 171.358 238.638 171.257 238.601 171.162C238.589 171.119 238.563 171.081 238.527 171.054ZM238.796 171.67C238.778 171.662 238.757 171.658 238.737 171.66C238.716 171.662 238.697 171.669 238.68 171.681C238.617 171.718 238.609 171.821 238.669 171.914C238.726 172.017 238.82 172.058 238.888 172.011C238.95 171.985 238.952 171.866 238.902 171.775C238.879 171.729 238.843 171.692 238.796 171.67ZM239.37 172.265C239.287 172.22 239.17 172.216 239.13 172.281C239.089 172.346 239.137 172.449 239.231 172.497C239.308 172.562 239.431 172.551 239.471 172.487C239.521 172.426 239.471 172.326 239.37 172.265ZM240.713 172.679C240.608 172.671 240.518 172.722 240.505 172.804C240.496 172.877 240.584 172.944 240.69 172.952C240.805 172.963 240.895 172.915 240.896 172.837C240.906 172.763 240.818 172.696 240.714 172.679L240.713 172.679ZM240.03 172.571C239.918 172.54 239.823 172.577 239.803 172.648C239.781 172.728 239.843 172.812 239.966 172.836C240.077 172.867 240.172 172.829 240.192 172.758C240.215 172.677 240.133 172.59 240.03 172.571Z" fill="#0EC281"/>
</g>
<g clip-path="url(#clip19_59_2478)">
<path d="M278.103 220.235L311.793 210.005L319.721 242.727L306.426 252.91L289.711 251.84L278.103 220.235ZM282.669 222.507L292.209 248.492L305.34 249.333L315.783 241.334L309.261 214.432L282.669 222.507ZM286.382 225.037L307.581 218.6L308.414 222.036L305.525 222.882L290.943 227.31L292.984 232.867L309.801 227.76L312.725 239.828L304.389 246.213L293.91 245.541L291.862 239.967L295.252 238.937L295.895 240.791L296.409 242.195L303.303 242.636L308.787 238.436L307.272 232.184L290.835 237.175L286.382 225.037Z" fill="#0EC281"/>
</g>
<g clip-path="url(#clip20_59_2478)">
<path d="M310.866 138.927L313.529 139.791M305.575 141.626L307.735 134.968C307.964 134.262 308.464 133.675 309.126 133.338C309.787 133 310.556 132.939 311.262 133.169L321.916 136.625C322.622 136.854 323.208 137.354 323.546 138.016C323.883 138.677 323.944 139.446 323.715 140.152L319.395 153.469C319.165 154.175 318.665 154.762 318.003 155.099C317.342 155.437 316.573 155.497 315.867 155.268L305.214 151.812C304.507 151.583 303.739 151.644 303.077 151.981C302.416 152.319 301.916 152.905 301.686 153.611L297.366 166.928C297.137 167.634 297.198 168.403 297.535 169.064C297.873 169.726 298.459 170.226 299.165 170.455L309.819 173.912C310.525 174.141 311.293 174.08 311.955 173.743C312.616 173.405 313.117 172.819 313.346 172.112L315.506 165.454M314.464 145.982L297.153 140.366C296.446 140.137 295.678 140.197 295.016 140.535C294.355 140.872 293.854 141.459 293.625 142.165L289.305 155.482C289.076 156.188 289.137 156.956 289.474 157.618C289.811 158.28 290.398 158.78 291.104 159.009L299.094 161.601M306.617 161.098L323.928 166.715C324.635 166.944 325.403 166.883 326.065 166.546C326.726 166.208 327.227 165.622 327.456 164.915L331.776 151.599C332.005 150.892 331.944 150.124 331.607 149.462C331.27 148.801 330.683 148.3 329.977 148.071L321.987 145.479M307.552 167.289L310.215 168.153" stroke="#0EC281" stroke-width="2.8"/>
</g>
<g clip-path="url(#clip21_59_2478)">
<path d="M286.961 279.101L279.101 306.886L306.886 314.746L314.746 286.961L286.961 279.101ZM288.772 282.341L311.505 288.772L305.074 311.505L282.341 305.074L288.772 282.341ZM299.308 288.05C294.36 286.65 289.521 289.339 288.124 294.277C287.004 298.234 288.53 302.324 291.75 304.521C292.188 304.732 292.428 304.495 292.493 304.265C292.556 304.045 292.893 302.82 293.105 302.069C293.105 302.069 290.445 301.9 290.378 300.15C290.378 300.15 290.263 299.002 289.758 298.567C289.758 298.567 289.104 297.778 289.973 298.034C289.973 298.034 290.836 298.355 291.086 299.345C291.476 300.949 292.899 300.916 293.476 300.831C293.717 300.283 294.063 299.947 294.388 299.792C292.456 299.008 290.523 298.148 291.493 294.722C291.771 293.739 292.181 293.326 292.93 292.856C292.905 292.599 292.867 291.55 293.707 290.457C294.524 290.438 295.899 292.115 295.899 292.115C296.686 292.125 297.468 292.237 298.226 292.448C298.984 292.666 299.71 292.981 300.386 293.385C300.386 293.385 302.436 292.678 303.121 293.12C303.261 294.501 302.679 295.365 302.525 295.57C302.917 296.363 303.129 296.954 302.852 297.935C301.877 301.38 299.696 301.056 297.641 300.712C297.893 301.086 298.024 301.696 297.786 302.538C297.446 303.741 297.013 305.232 296.931 305.523C296.866 305.753 296.947 306.077 297.421 306.125C301.313 305.939 304.686 303.236 305.805 299.279C307.202 294.341 304.257 289.45 299.308 288.05ZM290.431 298.478C290.366 298.438 290.302 298.433 290.271 298.468C290.239 298.503 290.252 298.568 290.311 298.629C290.363 298.675 290.435 298.686 290.47 298.641C290.501 298.607 290.491 298.538 290.431 298.478ZM290.666 298.868C290.636 298.851 290.602 298.845 290.569 298.863C290.507 298.889 290.495 298.972 290.536 299.058C290.582 299.126 290.652 299.179 290.717 299.142C290.779 299.116 290.792 299.035 290.751 298.948C290.73 298.915 290.7 298.887 290.666 298.868ZM290.91 299.437C290.895 299.426 290.877 299.418 290.858 299.414C290.839 299.411 290.82 299.412 290.801 299.417C290.729 299.441 290.703 299.533 290.741 299.629C290.779 299.726 290.859 299.791 290.921 299.765C290.992 299.741 291.021 299.64 290.983 299.545C290.972 299.502 290.946 299.464 290.91 299.437ZM291.179 300.053C291.161 300.045 291.14 300.042 291.12 300.043C291.099 300.045 291.08 300.052 291.063 300.064C290.999 300.101 290.992 300.204 291.052 300.297C291.108 300.4 291.203 300.441 291.271 300.394C291.333 300.368 291.335 300.249 291.285 300.158C291.262 300.112 291.225 300.076 291.179 300.053ZM291.753 300.648C291.67 300.603 291.553 300.6 291.512 300.665C291.472 300.73 291.52 300.832 291.614 300.88C291.691 300.946 291.814 300.934 291.854 300.87C291.904 300.809 291.854 300.709 291.753 300.648ZM293.095 301.062C292.991 301.054 292.9 301.105 292.888 301.187C292.878 301.26 292.967 301.327 293.073 301.335C293.188 301.346 293.278 301.298 293.278 301.22C293.288 301.147 293.201 301.08 293.097 301.062L293.095 301.062ZM292.412 300.955C292.301 300.923 292.206 300.96 292.186 301.031C292.164 301.111 292.226 301.195 292.349 301.219C292.46 301.25 292.555 301.212 292.575 301.141C292.598 301.06 292.516 300.973 292.412 300.955Z" fill="#0EC281"/>
</g>
<g clip-path="url(#clip22_59_2478)">
<path d="M-17.7195 14.0038L-14.3792 12.9563L-5.20018 43.0765L-8.54049 44.124L-17.7195 14.0038ZM0.163447 22.1118L-8.37483 19.6546L-10.7717 15.3208L4.49729 19.7149L0.0947264 34.9686L-2.30216 30.6347L0.163447 22.1118ZM-27.417 37.3654L-23.0229 22.0964L-20.626 26.4303L-23.0831 34.9685L-14.5533 37.4104L-12.1564 41.7442L-27.417 37.3654Z" fill="#0EC281"/>
</g>
<g clip-path="url(#clip23_59_2478)">
<path d="M-18.3243 176.745C-18.2498 176.909 -18.0618 176.986 -17.9086 176.917L-10.9983 173.783C-10.8451 173.713 -10.7791 173.521 -10.8536 173.357L-11.6668 171.564C-11.7413 171.399 -11.9293 171.322 -12.0825 171.392L-18.9929 174.526C-19.146 174.596 -19.212 174.788 -19.1375 174.952L-18.3243 176.745ZM-25.5012 180.275L-21.0568 171.008C-20.9691 170.824 -21.069 170.604 -21.2652 170.549L-31.1629 167.791C-31.2229 167.774 -31.2865 167.774 -31.3463 167.792C-31.4061 167.81 -31.4595 167.845 -31.5001 167.892C-31.5407 167.94 -31.5669 167.998 -31.5756 168.059C-31.5842 168.121 -31.575 168.184 -31.5489 168.241L-30.4867 170.583C-30.446 170.673 -30.3714 170.738 -30.275 170.762L-24.6116 172.345L-27.1511 177.65C-27.1718 177.693 -27.183 177.74 -27.1838 177.788C-27.1847 177.835 -27.1752 177.883 -27.1561 177.927L-26.0938 180.269C-25.9787 180.523 -25.6209 180.527 -25.5012 180.275ZM-14.2316 149.623L-41.7238 162.092C-42.3849 162.392 -42.6768 163.168 -42.377 163.829L-29.9083 191.321C-29.6085 191.982 -28.8321 192.274 -28.1709 191.974L-0.67875 179.506C-0.0175947 179.206 0.274303 178.43 -0.0255528 177.768L-12.4942 150.276C-12.794 149.615 -13.5704 149.323 -14.2316 149.623ZM-3.39265 177.494L-27.8965 188.607L-39.0099 164.103L-14.506 152.99L-3.39265 177.494Z" fill="#0EC281"/>
</g>
<g clip-path="url(#clip24_59_2478)">
<path d="M-20.1517 83.5797L-16.7288 84.3104L-17.4595 87.7333L-20.8824 87.0026L-22.7092 95.5598C-22.903 96.4676 -23.4494 97.2612 -24.2284 97.7661C-25.0073 98.271 -25.9549 98.4457 -26.8627 98.2519C-25.9549 98.4457 -25.1613 98.9922 -24.6564 99.7712C-24.1515 100.55 -23.9768 101.498 -24.1706 102.406L-25.9973 110.963L-22.5745 111.693L-23.3052 115.116L-26.7281 114.386C-28.4606 113.533 -29.8221 112.115 -29.4202 110.232L-27.9588 103.386C-27.765 102.478 -27.9398 101.531 -28.4446 100.752C-28.9495 99.9729 -29.7432 99.4264 -30.651 99.2327L-32.3624 98.8673L-31.6317 95.4444L-29.9203 95.8098C-29.0125 96.0036 -28.0648 95.8288 -27.2859 95.3239C-26.507 94.8191 -25.9605 94.0254 -25.7667 93.1176L-24.3053 86.2719C-24.1115 85.3641 -23.565 84.5704 -22.786 84.0655C-22.0071 83.5607 -21.0595 83.3859 -20.1517 83.5797ZM3.80844 88.6947C4.71624 88.8885 5.50988 89.4349 6.01475 90.2139C6.51963 90.9928 6.6944 91.9404 6.5006 92.8482L5.03919 99.694C4.84539 100.602 5.02016 101.549 5.52504 102.328C6.02991 103.107 6.82355 103.654 7.73135 103.848L9.44279 104.213L8.71208 107.636L7.00064 107.27C6.09284 107.077 5.14523 107.251 4.36629 107.756C3.58734 108.261 3.04086 109.055 2.84706 109.963L1.38564 116.808C1.19185 117.716 0.645364 118.51 -0.133582 119.015C-0.912528 119.52 -1.86014 119.694 -2.76794 119.501L-6.19081 118.77L-5.4601 115.347L-2.03723 116.078L-0.210458 107.52C-0.0166624 106.613 0.529822 105.819 1.30877 105.314C2.08771 104.809 3.03532 104.635 3.94312 104.828C3.03532 104.635 2.24169 104.088 1.73681 103.309C1.23193 102.53 1.05716 101.583 1.25096 100.675L3.07773 92.1175L-0.345144 91.3868L0.385564 87.964L3.80844 88.6947ZM-12.5559 106.674C-12.102 106.771 -11.7052 107.045 -11.4527 107.434C-11.2003 107.824 -11.1129 108.297 -11.2098 108.751C-11.3067 109.205 -11.5799 109.602 -11.9694 109.854C-12.3589 110.107 -12.8327 110.194 -13.2866 110.097C-13.7405 110 -14.1373 109.727 -14.3897 109.338C-14.6422 108.948 -14.7296 108.474 -14.6327 108.021C-14.5358 107.567 -14.2625 107.17 -13.873 106.917C-13.4836 106.665 -13.0098 106.578 -12.5559 106.674ZM-19.4016 105.213C-18.9477 105.31 -18.5509 105.583 -18.2985 105.973C-18.046 106.362 -17.9586 106.836 -18.0555 107.29C-18.1524 107.744 -18.4257 108.141 -18.8151 108.393C-19.2046 108.645 -19.6784 108.733 -20.1323 108.636C-20.5862 108.539 -20.983 108.266 -21.2355 107.876C-21.4879 107.487 -21.5753 107.013 -21.4784 106.559C-21.3815 106.105 -21.1083 105.708 -20.7188 105.456C-20.3293 105.203 -19.8555 105.116 -19.4016 105.213ZM-5.71012 108.136C-5.25622 108.233 -4.8594 108.506 -4.60696 108.895C-4.35452 109.285 -4.26714 109.759 -4.36404 110.213C-4.46094 110.667 -4.73418 111.063 -5.12365 111.316C-5.51313 111.568 -5.98693 111.656 -6.44083 111.559C-6.89473 111.462 -7.29155 111.189 -7.54399 110.799C-7.79643 110.41 -7.88381 109.936 -7.78691 109.482C-7.69002 109.028 -7.41677 108.631 -7.0273 108.379C-6.63783 108.126 -6.16402 108.039 -5.71012 108.136Z" fill="#0EC281"/>
</g>
<g clip-path="url(#clip25_59_2478)">
<path d="M52.8254 169.282L49.2789 182.825M58.2428 170.701L54.6962 184.244M47.6985 172.281L61.2418 175.828M46.2798 177.698L59.8232 181.245M45.2159 181.761L43.9844 182.021C42.6618 182.3 41.2897 182.236 39.9987 181.835C38.7077 181.434 37.5407 180.71 36.6084 179.731C35.6761 178.753 35.0096 177.552 34.6723 176.243C34.3349 174.934 34.3379 173.56 34.681 172.253L34.9193 171.343C35.2618 170.035 35.9327 168.837 36.8684 167.862C37.8041 166.887 38.9735 166.167 40.2656 165.771C41.5577 165.375 42.9296 165.315 44.2511 165.598C45.5725 165.882 46.7997 166.498 47.8161 167.388L48.7625 168.218M27.2549 178.505L31.5108 162.253L50.2454 157.029L64.0148 170.765L59.7589 187.017L41.0242 192.241L27.2549 178.505Z" stroke="#0EC281" stroke-width="2.8"/>
</g>
<path d="M56.2519 21.6318C55.7771 21.6958 55.3182 21.8769 54.94 22.1663L43.0544 31.3445C42.2869 31.9381 41.8894 32.9187 42.0192 33.8813L43.8399 47.3828C43.9714 48.3583 44.6127 49.1857 45.5101 49.5547L49.1551 51.0497C50.9028 51.6352 51.4881 51.5562 52.2295 51.4563C54.6619 51.1283 55.8554 49.4708 55.5116 46.9213L53.6331 32.9905C53.6196 32.8905 53.5669 32.7999 53.4866 32.7387C53.4063 32.6775 53.305 32.6507 53.205 32.6642L51.5791 32.8835C51.5292 32.8895 51.4811 32.9054 51.4376 32.9303C51.394 32.9552 51.3559 32.9886 51.3255 33.0286C51.295 33.0685 51.2729 33.1141 51.2604 33.1627C51.2479 33.2113 51.2453 33.2619 51.2527 33.3115L53.1296 47.2293C53.2839 48.3739 52.2511 49.6522 50.211 48.9605L46.3976 47.3955C46.3296 47.3701 46.2698 47.3265 46.2248 47.2696C46.1798 47.2126 46.1512 47.1444 46.1421 47.0723L44.3232 33.5838C44.3022 33.4277 44.3627 33.2871 44.4822 33.1915L56.3691 24.0131C56.4243 23.9668 56.4914 23.9372 56.5628 23.9275C56.6342 23.9179 56.7068 23.9287 56.7723 23.9587L70.6658 29.6606C70.8064 29.7211 70.902 29.8407 70.9213 29.9838L72.742 43.4853C72.7613 43.6284 72.7025 43.782 72.5943 43.8628L60.6961 53.056C60.638 53.0964 60.5712 53.1224 60.5011 53.1318C60.431 53.1413 60.3596 53.1339 60.2929 53.1104L56.7112 51.5936C56.6622 51.5668 56.6068 51.5541 56.5511 51.557C56.4953 51.5598 56.4415 51.578 56.3955 51.6096C55.5421 52.2545 55.3818 52.3423 54.5637 52.7572C54.3643 52.8503 54.0567 53.0243 54.7562 53.3008L59.4054 55.2696C59.8532 55.4476 60.339 55.5145 60.8072 55.4514C61.2885 55.3865 61.7392 55.1933 62.1239 54.903L74.022 45.7098C74.7896 45.1163 75.1889 44.1486 75.0573 43.1731L73.2383 29.6846C73.1068 28.709 72.4655 27.8817 71.5681 27.5127L57.6598 21.7995C57.2172 21.6208 56.728 21.5676 56.2519 21.6318ZM61.1239 31.5778C57.4429 32.0742 55.4551 33.9315 55.806 36.5329C56.1866 39.3555 58.4767 39.8387 62.062 39.7128C66.3455 39.5589 66.7553 40.142 66.8675 40.9745C67.0605 42.4053 65.9852 43.1727 63.2667 43.5393C59.8458 44.0006 58.9755 43.2426 58.5003 41.585C58.4759 41.4994 58.4213 41.4255 58.3466 41.3771C58.2718 41.3287 58.1821 41.3091 58.094 41.3219L56.4161 41.5482C56.3195 41.5612 56.232 41.6121 56.1729 41.6896C56.1138 41.7671 56.0879 41.8649 56.101 41.9615C56.3939 44.1337 57.9266 46.5626 63.5718 45.8013C67.656 45.2505 69.7798 43.3219 69.401 40.5123C69.0256 37.7288 67.0396 37.2417 63.0134 37.2416C58.924 37.2633 58.484 37.0446 58.3577 36.108C58.2524 35.3276 58.4651 34.2527 61.4307 33.8527C64.0712 33.4967 65.1369 33.9357 65.7805 35.6633C65.8423 35.8271 66.0029 35.9379 66.185 35.9134L67.8629 35.6871C67.967 35.6731 68.051 35.6087 68.1186 35.5202C68.1488 35.4774 68.1692 35.4285 68.1783 35.3769C68.1874 35.3252 68.1849 35.2723 68.171 35.2217C67.4969 32.1871 65.2603 31.02 61.1239 31.5778Z" fill="#0EC281"/>
<g clip-path="url(#clip26_59_2478)">
<path d="M43.5781 94.7179L35.7181 122.503L63.5027 130.363L71.3627 102.578L43.5781 94.7179ZM45.3895 97.9583L68.1223 104.389L61.6914 127.122L38.9585 120.691L45.3895 97.9583ZM55.9251 103.667C50.977 102.267 46.1379 104.956 44.7409 109.894C43.6216 113.851 45.1476 117.941 48.3671 120.138C48.8052 120.349 49.0456 120.112 49.1107 119.882C49.1728 119.662 49.5098 118.437 49.7224 117.685C49.7224 117.685 47.0626 117.517 46.9956 115.767C46.9956 115.767 46.8799 114.618 46.3754 114.184C46.3754 114.184 45.7216 113.395 46.5902 113.651C46.5902 113.651 47.453 113.972 47.7035 114.962C48.0928 116.566 49.5164 116.533 50.0929 116.448C50.334 115.9 50.68 115.564 51.0048 115.409C49.0728 114.625 47.1406 113.765 48.1099 110.338C48.3878 109.356 48.798 108.943 49.5474 108.473C49.5219 108.216 49.4844 107.167 50.3243 106.073C51.1412 106.055 52.5165 107.732 52.5165 107.732C53.3032 107.742 54.0853 107.854 54.8432 108.065C55.6007 108.283 56.3268 108.598 57.0033 109.002C57.0033 109.002 59.0531 108.295 59.7383 108.737C59.878 110.118 59.2967 110.982 59.142 111.187C59.5342 111.98 59.7463 112.57 59.4687 113.552C58.4941 116.997 56.3132 116.673 54.2581 116.329C54.5097 116.703 54.6413 117.313 54.4033 118.154C54.0628 119.358 53.6301 120.849 53.5479 121.14C53.4829 121.37 53.5643 121.694 54.0377 121.742C57.9301 121.556 61.3027 118.853 62.4221 114.896C63.819 109.958 60.8746 105.067 55.9251 103.667ZM47.0486 114.095C46.9836 114.054 46.9194 114.05 46.8877 114.085C46.8561 114.119 46.8691 114.184 46.928 114.246C46.9804 114.292 47.0524 114.303 47.0869 114.258C47.1185 114.224 47.1079 114.155 47.0486 114.095ZM47.2834 114.484C47.2527 114.468 47.2188 114.462 47.1864 114.48C47.1245 114.506 47.1121 114.589 47.153 114.675C47.1994 114.743 47.2691 114.795 47.3339 114.759C47.3959 114.733 47.4092 114.652 47.3686 114.564C47.3468 114.531 47.3177 114.504 47.2834 114.484ZM47.5274 115.054C47.512 115.042 47.4942 115.035 47.4753 115.031C47.4564 115.028 47.4369 115.029 47.4185 115.034C47.3464 115.057 47.3203 115.15 47.3584 115.246C47.3965 115.343 47.4764 115.408 47.5384 115.382C47.6091 115.358 47.6377 115.257 47.6005 115.162C47.5889 115.119 47.5632 115.081 47.5274 115.054ZM47.7964 115.67C47.7777 115.662 47.7572 115.658 47.7368 115.66C47.7164 115.662 47.6969 115.669 47.6801 115.681C47.6166 115.718 47.6093 115.821 47.6688 115.914C47.7255 116.017 47.8205 116.058 47.8881 116.011C47.9501 115.985 47.9525 115.866 47.9018 115.775C47.879 115.729 47.8427 115.692 47.7964 115.67ZM48.3702 116.265C48.2875 116.22 48.1697 116.216 48.1295 116.281C48.0893 116.346 48.1368 116.449 48.2309 116.497C48.3078 116.562 48.4311 116.551 48.471 116.487C48.5209 116.426 48.4715 116.326 48.3702 116.265ZM49.7126 116.679C49.6083 116.671 49.5176 116.722 49.5052 116.804C49.4957 116.877 49.5844 116.944 49.6898 116.952C49.8054 116.963 49.8955 116.915 49.8956 116.837C49.9055 116.763 49.8181 116.696 49.7138 116.679L49.7126 116.679ZM49.0295 116.571C48.9184 116.54 48.8233 116.577 48.8033 116.648C48.7808 116.728 48.8429 116.812 48.9657 116.836C49.0768 116.867 49.1723 116.829 49.1923 116.758C49.2152 116.677 49.1334 116.59 49.0295 116.571Z" fill="#0EC281"/>
</g>
<g clip-path="url(#clip27_59_2478)">
<path d="M87.1034 164.235L120.793 154.005L128.721 186.727L115.426 196.91L98.7106 195.84L87.1034 164.235ZM91.6686 166.507L101.209 192.492L114.34 193.333L124.783 185.334L118.261 158.432L91.6686 166.507ZM95.3815 169.037L116.581 162.6L117.414 166.036L114.525 166.882L99.9434 171.31L101.984 176.867L118.801 171.76L121.725 183.828L113.389 190.213L102.91 189.541L100.862 183.967L104.252 182.937L104.895 184.791L105.409 186.195L112.303 186.636L117.787 182.436L116.272 176.184L99.8354 181.175L95.3815 169.037Z" fill="#0EC281"/>
</g>
<g clip-path="url(#clip28_59_2478)">
<path d="M119.866 82.9273L122.529 83.7914M114.575 85.6262L116.735 78.9679C116.964 78.2615 117.464 77.6751 118.126 77.3377C118.787 77.0003 119.556 76.9395 120.262 77.1686L130.916 80.6249C131.622 80.8541 132.208 81.3544 132.546 82.016C132.883 82.6775 132.944 83.446 132.715 84.1523L128.395 97.469C128.165 98.1754 127.665 98.7618 127.003 99.0992C126.342 99.4366 125.573 99.4974 124.867 99.2683L114.214 95.812C113.507 95.5828 112.739 95.6437 112.077 95.9811C111.416 96.3185 110.916 96.9049 110.686 97.6113L106.366 110.928C106.137 111.634 106.198 112.403 106.535 113.064C106.873 113.726 107.459 114.226 108.165 114.455L118.819 117.912C119.525 118.141 120.293 118.08 120.955 117.743C121.616 117.405 122.117 116.819 122.346 116.112L124.506 109.454M123.464 89.9822L106.153 84.3657C105.446 84.1365 104.678 84.1974 104.016 84.5348C103.355 84.8722 102.854 85.4586 102.625 86.165L98.3049 99.4817C98.0757 100.188 98.1365 100.956 98.4739 101.618C98.8114 102.28 99.3978 102.78 100.104 103.009L108.094 105.601M115.617 105.098L132.928 110.715C133.635 110.944 134.403 110.883 135.065 110.546C135.726 110.208 136.227 109.622 136.456 108.915L140.776 95.5986C141.005 94.8923 140.944 94.1238 140.607 93.4623C140.27 92.8008 139.683 92.3004 138.977 92.0712L130.987 89.479M116.552 111.289L119.215 112.153" stroke="#0EC281" stroke-width="2.8"/>
</g>
<g clip-path="url(#clip29_59_2478)">
<path d="M362.281 185.004L365.621 183.956L374.8 214.076L371.46 215.124L362.281 185.004ZM380.163 193.112L371.625 190.655L369.228 186.321L384.497 190.715L380.095 205.969L377.698 201.635L380.163 193.112ZM352.583 208.365L356.977 193.096L359.374 197.43L356.917 205.969L365.447 208.41L367.844 212.744L352.583 208.365Z" fill="#0EC281"/>
</g>
<g clip-path="url(#clip30_59_2478)">
<path d="M361.676 347.745C361.75 347.909 361.938 347.986 362.091 347.917L369.002 344.783C369.155 344.713 369.221 344.521 369.146 344.357L368.333 342.564C368.259 342.399 368.071 342.322 367.918 342.392L361.007 345.526C360.854 345.596 360.788 345.788 360.863 345.952L361.676 347.745ZM354.499 351.275L358.943 342.008C359.031 341.824 358.931 341.604 358.735 341.549L348.837 338.791C348.777 338.774 348.713 338.774 348.654 338.792C348.594 338.81 348.541 338.845 348.5 338.892C348.459 338.94 348.433 338.998 348.424 339.059C348.416 339.121 348.425 339.184 348.451 339.241L349.513 341.583C349.554 341.673 349.629 341.738 349.725 341.762L355.388 343.345L352.849 348.65C352.828 348.693 352.817 348.74 352.816 348.788C352.815 348.835 352.825 348.883 352.844 348.927L353.906 351.269C354.021 351.523 354.379 351.527 354.499 351.275ZM365.768 320.623L338.276 333.092C337.615 333.392 337.323 334.168 337.623 334.829L350.092 362.321C350.392 362.982 351.168 363.274 351.829 362.974L379.321 350.506C379.982 350.206 380.274 349.43 379.974 348.768L367.506 321.276C367.206 320.615 366.43 320.323 365.768 320.623ZM376.607 348.494L352.103 359.607L340.99 335.103L365.494 323.99L376.607 348.494Z" fill="#0EC281"/>
</g>
<g clip-path="url(#clip31_59_2478)">
<path d="M359.848 254.58L363.271 255.31L362.54 258.733L359.118 258.003L357.291 266.56C357.097 267.468 356.551 268.261 355.772 268.766C354.993 269.271 354.045 269.446 353.137 269.252C354.045 269.446 354.839 269.992 355.344 270.771C355.848 271.55 356.023 272.498 355.829 273.406L354.003 281.963L357.426 282.693L356.695 286.116L353.272 285.386C351.539 284.533 350.178 283.115 350.58 281.232L352.041 274.386C352.235 273.478 352.06 272.531 351.555 271.752C351.05 270.973 350.257 270.426 349.349 270.233L347.638 269.867L348.368 266.444L350.08 266.81C350.988 267.004 351.935 266.829 352.714 266.324C353.493 265.819 354.04 265.025 354.233 264.118L355.695 257.272C355.889 256.364 356.435 255.57 357.214 255.066C357.993 254.561 358.941 254.386 359.848 254.58ZM383.808 259.695C384.716 259.888 385.51 260.435 386.015 261.214C386.52 261.993 386.694 262.94 386.501 263.848L385.039 270.694C384.845 271.602 385.02 272.549 385.525 273.328C386.03 274.107 386.824 274.654 387.731 274.848L389.443 275.213L388.712 278.636L387.001 278.27C386.093 278.077 385.145 278.251 384.366 278.756C383.587 279.261 383.041 280.055 382.847 280.963L381.386 287.808C381.192 288.716 380.645 289.51 379.866 290.015C379.087 290.52 378.14 290.694 377.232 290.501L373.809 289.77L374.54 286.347L377.963 287.078L379.79 278.52C379.983 277.613 380.53 276.819 381.309 276.314C382.088 275.809 383.035 275.635 383.943 275.828C383.035 275.635 382.242 275.088 381.737 274.309C381.232 273.53 381.057 272.583 381.251 271.675L383.078 263.118L379.655 262.387L380.386 258.964L383.808 259.695ZM367.444 277.674C367.898 277.771 368.295 278.045 368.547 278.434C368.8 278.824 368.887 279.297 368.79 279.751C368.693 280.205 368.42 280.602 368.031 280.854C367.641 281.107 367.167 281.194 366.713 281.097C366.26 281 365.863 280.727 365.61 280.338C365.358 279.948 365.27 279.474 365.367 279.021C365.464 278.567 365.737 278.17 366.127 277.917C366.516 277.665 366.99 277.578 367.444 277.674ZM360.598 276.213C361.052 276.31 361.449 276.583 361.702 276.973C361.954 277.362 362.041 277.836 361.944 278.29C361.848 278.744 361.574 279.141 361.185 279.393C360.795 279.645 360.322 279.733 359.868 279.636C359.414 279.539 359.017 279.266 358.765 278.876C358.512 278.487 358.425 278.013 358.522 277.559C358.618 277.105 358.892 276.708 359.281 276.456C359.671 276.203 360.144 276.116 360.598 276.213ZM374.29 279.136C374.744 279.233 375.141 279.506 375.393 279.895C375.645 280.285 375.733 280.759 375.636 281.213C375.539 281.667 375.266 282.063 374.876 282.316C374.487 282.568 374.013 282.656 373.559 282.559C373.105 282.462 372.708 282.189 372.456 281.799C372.204 281.41 372.116 280.936 372.213 280.482C372.31 280.028 372.583 279.631 372.973 279.379C373.362 279.126 373.836 279.039 374.29 279.136Z" fill="#0EC281"/>
</g>
<g clip-path="url(#clip32_59_2478)">
<path d="M432.825 340.282L429.279 353.825M438.243 341.701L434.696 355.244M427.698 343.281L441.242 346.828M426.28 348.698L439.823 352.245M425.216 352.761L423.984 353.021C422.662 353.3 421.29 353.236 419.999 352.835C418.708 352.434 417.541 351.71 416.608 350.731C415.676 349.753 415.01 348.552 414.672 347.243C414.335 345.934 414.338 344.56 414.681 343.253L414.919 342.343C415.262 341.035 415.933 339.837 416.868 338.862C417.804 337.887 418.974 337.167 420.266 336.771C421.558 336.375 422.93 336.315 424.251 336.598C425.573 336.882 426.8 337.498 427.816 338.388L428.762 339.218M407.255 349.505L411.511 333.253L430.245 328.029L444.015 341.765L439.759 358.017L421.024 363.241L407.255 349.505Z" stroke="#0EC281" stroke-width="2.8"/>
</g>
<path d="M436.252 192.632C435.777 192.696 435.318 192.877 434.94 193.166L423.054 202.345C422.287 202.938 421.889 203.919 422.019 204.881L423.84 218.383C423.971 219.358 424.613 220.186 425.51 220.555L429.155 222.05C430.903 222.635 431.488 222.556 432.23 222.456C434.662 222.128 435.855 220.471 435.512 217.921L433.633 203.991C433.62 203.891 433.567 203.8 433.487 203.739C433.406 203.678 433.305 203.651 433.205 203.664L431.579 203.883C431.529 203.889 431.481 203.905 431.438 203.93C431.394 203.955 431.356 203.989 431.325 204.029C431.295 204.068 431.273 204.114 431.26 204.163C431.248 204.211 431.245 204.262 431.253 204.312L433.13 218.229C433.284 219.374 432.251 220.652 430.211 219.961L426.398 218.395C426.33 218.37 426.27 218.327 426.225 218.27C426.18 218.213 426.151 218.144 426.142 218.072L424.323 204.584C424.302 204.428 424.363 204.287 424.482 204.192L436.369 195.013C436.424 194.967 436.491 194.937 436.563 194.928C436.634 194.918 436.707 194.929 436.772 194.959L450.666 200.661C450.806 200.721 450.902 200.841 450.921 200.984L452.742 214.485C452.761 214.628 452.703 214.782 452.594 214.863L440.696 224.056C440.638 224.096 440.571 224.122 440.501 224.132C440.431 224.141 440.36 224.134 440.293 224.11L436.711 222.594C436.662 222.567 436.607 222.554 436.551 222.557C436.495 222.56 436.441 222.578 436.395 222.61C435.542 223.254 435.382 223.342 434.564 223.757C434.364 223.85 434.057 224.024 434.756 224.301L439.405 226.27C439.853 226.448 440.339 226.515 440.807 226.451C441.289 226.386 441.739 226.193 442.124 225.903L454.022 216.71C454.79 216.116 455.189 215.149 455.057 214.173L453.238 200.685C453.107 199.709 452.465 198.882 451.568 198.513L437.66 192.8C437.217 192.621 436.728 192.568 436.252 192.632ZM441.124 202.578C437.443 203.074 435.455 204.931 435.806 207.533C436.187 210.356 438.477 210.839 442.062 210.713C446.346 210.559 446.755 211.142 446.868 211.974C447.06 213.405 445.985 214.173 443.267 214.539C439.846 215.001 438.975 214.243 438.5 212.585C438.476 212.499 438.421 212.426 438.347 212.377C438.272 212.329 438.182 212.309 438.094 212.322L436.416 212.548C436.319 212.561 436.232 212.612 436.173 212.69C436.114 212.767 436.088 212.865 436.101 212.962C436.394 215.134 437.927 217.563 443.572 216.801C447.656 216.251 449.78 214.322 449.401 211.512C449.026 208.729 447.04 208.242 443.013 208.242C438.924 208.263 438.484 208.045 438.358 207.108C438.252 206.328 438.465 205.253 441.431 204.853C444.071 204.497 445.137 204.936 445.78 206.663C445.842 206.827 446.003 206.938 446.185 206.913L447.863 206.687C447.967 206.673 448.051 206.609 448.119 206.52C448.149 206.477 448.169 206.428 448.178 206.377C448.187 206.325 448.185 206.272 448.171 206.222C447.497 203.187 445.26 202.02 441.124 202.578Z" fill="#0EC281"/>
<g clip-path="url(#clip33_59_2478)">
<path d="M423.578 265.718L415.718 293.503L443.503 301.363L451.363 273.578L423.578 265.718ZM425.389 268.958L448.122 275.389L441.691 298.122L418.959 291.691L425.389 268.958ZM435.925 274.667C430.977 273.267 426.138 275.956 424.741 280.894C423.622 284.851 425.148 288.941 428.367 291.138C428.805 291.349 429.046 291.112 429.111 290.882C429.173 290.662 429.51 289.437 429.722 288.685C429.722 288.685 427.063 288.517 426.996 286.767C426.996 286.767 426.88 285.618 426.375 285.184C426.375 285.184 425.722 284.395 426.59 284.651C426.59 284.651 427.453 284.972 427.703 285.962C428.093 287.566 429.516 287.533 430.093 287.448C430.334 286.9 430.68 286.564 431.005 286.409C429.073 285.625 427.141 284.765 428.11 281.338C428.388 280.356 428.798 279.943 429.547 279.473C429.522 279.216 429.484 278.167 430.324 277.073C431.141 277.055 432.516 278.732 432.516 278.732C433.303 278.742 434.085 278.854 434.843 279.065C435.601 279.283 436.327 279.598 437.003 280.002C437.003 280.002 439.053 279.295 439.738 279.737C439.878 281.118 439.297 281.982 439.142 282.187C439.534 282.98 439.746 283.57 439.469 284.552C438.494 287.997 436.313 287.673 434.258 287.329C434.51 287.703 434.641 288.313 434.403 289.154C434.063 290.358 433.63 291.849 433.548 292.14C433.483 292.37 433.564 292.694 434.038 292.742C437.93 292.556 441.303 289.853 442.422 285.896C443.819 280.958 440.875 276.067 435.925 274.667ZM427.049 285.095C426.984 285.054 426.919 285.05 426.888 285.085C426.856 285.119 426.869 285.184 426.928 285.246C426.98 285.292 427.052 285.303 427.087 285.258C427.119 285.224 427.108 285.155 427.049 285.095ZM427.283 285.484C427.253 285.468 427.219 285.462 427.186 285.48C427.124 285.506 427.112 285.589 427.153 285.675C427.199 285.743 427.269 285.795 427.334 285.759C427.396 285.733 427.409 285.652 427.369 285.564C427.347 285.531 427.318 285.504 427.283 285.484ZM427.527 286.054C427.512 286.042 427.494 286.035 427.475 286.031C427.456 286.028 427.437 286.029 427.418 286.034C427.346 286.057 427.32 286.15 427.358 286.246C427.397 286.343 427.476 286.408 427.538 286.382C427.609 286.358 427.638 286.257 427.601 286.162C427.589 286.119 427.563 286.081 427.527 286.054ZM427.796 286.67C427.778 286.662 427.757 286.658 427.737 286.66C427.716 286.662 427.697 286.669 427.68 286.681C427.617 286.718 427.609 286.821 427.669 286.914C427.726 287.017 427.82 287.058 427.888 287.011C427.95 286.985 427.952 286.866 427.902 286.775C427.879 286.729 427.843 286.692 427.796 286.67ZM428.37 287.265C428.287 287.22 428.17 287.216 428.13 287.281C428.089 287.346 428.137 287.449 428.231 287.497C428.308 287.562 428.431 287.551 428.471 287.487C428.521 287.426 428.471 287.326 428.37 287.265ZM429.713 287.679C429.608 287.671 429.518 287.722 429.505 287.804C429.496 287.877 429.584 287.944 429.69 287.952C429.805 287.963 429.895 287.915 429.896 287.837C429.906 287.763 429.818 287.696 429.714 287.679L429.713 287.679ZM429.03 287.571C428.918 287.54 428.823 287.577 428.803 287.648C428.781 287.728 428.843 287.812 428.966 287.836C429.077 287.867 429.172 287.829 429.192 287.758C429.215 287.677 429.133 287.59 429.03 287.571Z" fill="#0EC281"/>
</g>
<g clip-path="url(#clip34_59_2478)">
<path d="M467.103 335.236L500.793 325.005L508.721 357.728L495.426 367.91L478.711 366.841L467.103 335.236ZM471.669 337.507L481.209 363.492L494.34 364.333L504.783 356.334L498.261 329.432L471.669 337.507ZM475.382 340.037L496.581 333.6L497.414 337.036L494.525 337.882L479.943 342.31L481.984 347.867L498.801 342.76L501.725 354.828L493.389 361.213L482.91 360.541L480.862 354.967L484.252 353.938L484.895 355.791L485.409 357.195L492.303 357.636L497.787 353.436L496.272 347.184L479.835 352.175L475.382 340.037Z" fill="#0EC281"/>
</g>
<g clip-path="url(#clip35_59_2478)">
<path d="M499.866 253.927L502.529 254.791M494.575 256.626L496.735 249.968C496.964 249.262 497.464 248.675 498.126 248.338C498.787 248 499.556 247.939 500.262 248.169L510.916 251.625C511.622 251.854 512.208 252.354 512.546 253.016C512.883 253.677 512.944 254.446 512.715 255.152L508.395 268.469C508.165 269.175 507.665 269.762 507.003 270.099C506.342 270.437 505.573 270.497 504.867 270.268L494.214 266.812C493.507 266.583 492.739 266.644 492.077 266.981C491.416 267.319 490.916 267.905 490.686 268.611L486.366 281.928C486.137 282.634 486.198 283.403 486.535 284.064C486.873 284.726 487.459 285.226 488.165 285.455L498.819 288.912C499.525 289.141 500.293 289.08 500.955 288.743C501.616 288.405 502.117 287.819 502.346 287.112L504.506 280.454M503.464 260.982L486.153 255.366C485.446 255.137 484.678 255.197 484.016 255.535C483.355 255.872 482.854 256.459 482.625 257.165L478.305 270.482C478.076 271.188 478.137 271.956 478.474 272.618C478.811 273.28 479.398 273.78 480.104 274.009L488.094 276.601M495.617 276.098L512.928 281.715C513.635 281.944 514.403 281.883 515.065 281.546C515.726 281.208 516.227 280.622 516.456 279.915L520.776 266.599C521.005 265.892 520.944 265.124 520.607 264.462C520.27 263.801 519.683 263.3 518.977 263.071L510.987 260.479M496.552 282.289L499.215 283.153" stroke="#0EC281" stroke-width="2.8"/>
</g>
</mask>
<g mask="url(#mask0_59_2478)">
<rect x="-69" y="-20" width="614" height="584" fill="url(#paint0_radial_59_2478)"/>
</g>
<defs>
<radialGradient id="paint0_radial_59_2478" cx="0" cy="0" r="1" gradientUnits="userSpaceOnUse" gradientTransform="translate(238 272) rotate(90) scale(322 368.833)">
<stop stop-color="#0EC281"/>
<stop offset="1" stop-color="#075C3D" stop-opacity="0"/>
</radialGradient>
<clipPath id="clip0_59_2478">
<rect width="42" height="42" fill="white" transform="translate(17.46 226.787) rotate(-28.9453)"/>
</clipPath>
<clipPath id="clip1_59_2478">
<rect width="42" height="42" fill="white" transform="translate(18 371.348) rotate(-24.3959)"/>
</clipPath>
<clipPath id="clip2_59_2478">
<rect width="42" height="42" fill="white" transform="translate(29.8472 283.078) rotate(12.0505)"/>
</clipPath>
<clipPath id="clip3_59_2478">
<rect width="42" height="42" fill="white" transform="translate(91.6401 392) rotate(14.6746)"/>
</clipPath>
<clipPath id="clip4_59_2478">
<rect width="42" height="42" fill="white" transform="translate(96.5098 293.077) rotate(15.7958)"/>
</clipPath>
<clipPath id="clip5_59_2478">
<rect width="42" height="42" fill="white" transform="translate(140.805 370.008) rotate(-16.8916)"/>
</clipPath>
<clipPath id="clip6_59_2478">
<rect width="42" height="42" fill="white" transform="translate(163.506 277.544) rotate(17.9747)"/>
</clipPath>
<clipPath id="clip7_59_2478">
<rect width="42" height="42" fill="white" transform="translate(208 328.327) rotate(-28.9453)"/>
</clipPath>
<clipPath id="clip8_59_2478">
<rect width="42" height="42" fill="white" transform="translate(208.54 472.888) rotate(-24.3959)"/>
</clipPath>
<clipPath id="clip9_59_2478">
<rect width="42" height="42" fill="white" transform="translate(220.387 384.619) rotate(12.0505)"/>
</clipPath>
<clipPath id="clip10_59_2478">
<rect width="42" height="42" fill="white" transform="translate(282.18 493.54) rotate(14.6746)"/>
</clipPath>
<clipPath id="clip11_59_2478">
<rect width="42" height="42" fill="white" transform="translate(287.05 394.617) rotate(15.7958)"/>
</clipPath>
<clipPath id="clip12_59_2478">
<rect width="42" height="42" fill="white" transform="translate(331.345 471.548) rotate(-16.8916)"/>
</clipPath>
<clipPath id="clip13_59_2478">
<rect width="42" height="42" fill="white" transform="translate(354.046 379.085) rotate(17.9747)"/>
</clipPath>
<clipPath id="clip14_59_2478">
<rect width="42" height="42" fill="white" transform="translate(151 76.3269) rotate(-28.9453)"/>
</clipPath>
<clipPath id="clip15_59_2478">
<rect width="42" height="42" fill="white" transform="translate(151.54 220.888) rotate(-24.3959)"/>
</clipPath>
<clipPath id="clip16_59_2478">
<rect width="42" height="42" fill="white" transform="translate(163.387 132.619) rotate(12.0505)"/>
</clipPath>
<clipPath id="clip17_59_2478">
<rect width="42" height="42" fill="white" transform="translate(225.18 241.54) rotate(14.6746)"/>
</clipPath>
<clipPath id="clip18_59_2478">
<rect width="42" height="42" fill="white" transform="translate(230.05 142.617) rotate(15.7958)"/>
</clipPath>
<clipPath id="clip19_59_2478">
<rect width="42" height="42" fill="white" transform="translate(274.345 219.548) rotate(-16.8916)"/>
</clipPath>
<clipPath id="clip20_59_2478">
<rect width="42" height="42" fill="white" transform="translate(297.046 127.085) rotate(17.9747)"/>
</clipPath>
<clipPath id="clip21_59_2478">
<rect width="42" height="42" fill="white" transform="translate(282.433 271) rotate(15.7958)"/>
</clipPath>
<clipPath id="clip22_59_2478">
<rect width="42" height="42" fill="white" transform="translate(-40 20.3269) rotate(-28.9453)"/>
</clipPath>
<clipPath id="clip23_59_2478">
<rect width="42" height="42" fill="white" transform="translate(-49 160.348) rotate(-24.3959)"/>
</clipPath>
<clipPath id="clip24_59_2478">
<rect width="42" height="42" fill="white" transform="translate(-27.6128 76.6187) rotate(12.0505)"/>
</clipPath>
<clipPath id="clip25_59_2478">
<rect width="42" height="42" fill="white" transform="translate(30.6398 149) rotate(14.6746)"/>
</clipPath>
<clipPath id="clip26_59_2478">
<rect width="42" height="42" fill="white" transform="translate(39.0498 86.6168) rotate(15.7958)"/>
</clipPath>
<clipPath id="clip27_59_2478">
<rect width="42" height="42" fill="white" transform="translate(83.3447 163.548) rotate(-16.8916)"/>
</clipPath>
<clipPath id="clip28_59_2478">
<rect width="42" height="42" fill="white" transform="translate(106.046 71.0846) rotate(17.9747)"/>
</clipPath>
<clipPath id="clip29_59_2478">
<rect width="42" height="42" fill="white" transform="translate(340 191.327) rotate(-28.9453)"/>
</clipPath>
<clipPath id="clip30_59_2478">
<rect width="42" height="42" fill="white" transform="translate(331 331.348) rotate(-24.3959)"/>
</clipPath>
<clipPath id="clip31_59_2478">
<rect width="42" height="42" fill="white" transform="translate(352.387 247.619) rotate(12.0505)"/>
</clipPath>
<clipPath id="clip32_59_2478">
<rect width="42" height="42" fill="white" transform="translate(410.64 320) rotate(14.6746)"/>
</clipPath>
<clipPath id="clip33_59_2478">
<rect width="42" height="42" fill="white" transform="translate(419.05 257.617) rotate(15.7958)"/>
</clipPath>
<clipPath id="clip34_59_2478">
<rect width="42" height="42" fill="white" transform="translate(463.345 334.548) rotate(-16.8916)"/>
</clipPath>
<clipPath id="clip35_59_2478">
<rect width="42" height="42" fill="white" transform="translate(486.046 242.085) rotate(17.9747)"/>
</clipPath>
</defs>
</svg>
