<svg width="88" height="92" viewBox="0 0 88 92" fill="none" xmlns="http://www.w3.org/2000/svg">
<g filter="url(#filter0_d_170_912)">
<path fill-rule="evenodd" clip-rule="evenodd" d="M43.9995 2.58301L83.8661 25.8386V66.1614L43.9995 89.4169L4.13281 66.1614V25.8386L43.9995 2.58301ZM10.2661 29.3614V62.6386L43.9995 82.3164L77.7328 62.6386V55.2H71.5995V61.3333H65.4661V55.2H59.3328V61.3333H53.1995V55.2H47.0661V49.0666H53.1995V42.9333H47.0661V36.8H53.1995V30.6666H59.3328V36.8H65.4661V30.6666H71.5995V36.8H77.7328V29.3614L43.9995 9.68359L10.2661 29.3614ZM65.4661 42.9333H59.3328V49.0666H65.4661V42.9333ZM71.5995 49.0666V42.9333H77.7328V49.0666H71.5995ZM43.2291 32.1767C41.0487 31.0872 38.626 30.573 36.191 30.6828C33.7559 30.7927 31.3891 31.5232 29.3156 32.8048C27.2421 34.0865 25.5305 35.8769 24.3434 38.0059C23.1563 40.1349 22.5331 42.532 22.5328 44.9696C22.5328 44.9695 22.5328 44.9697 22.5328 44.9696V47.0318C22.5317 49.4698 23.154 51.8676 24.3406 53.9974C25.5273 56.1271 27.2389 57.918 29.3127 59.1998C31.3865 60.4817 33.7537 61.2119 36.1893 61.3211C38.6248 61.4303 41.0479 60.9148 43.2281 59.8237L45.6947 58.5904L48.4376 64.0762L45.973 65.3085C45.9727 65.3087 45.9723 65.3088 45.972 65.309C42.8567 66.8679 39.3946 67.6043 35.9146 67.4483C32.4341 67.2922 29.0514 66.2487 26.0879 64.417C23.1244 62.5852 20.6786 60.026 18.9829 56.9827C17.2874 53.9397 16.3981 50.5138 16.3995 47.0304C16.3995 47.0299 16.3995 47.0294 16.3995 47.0289V44.9696C16.3998 41.4866 17.2903 38.0612 18.9865 35.0191C20.6826 31.977 23.1281 29.4189 26.0909 27.5877C29.0536 25.7564 32.4351 24.7127 35.9146 24.5557C39.394 24.3987 42.8559 25.1336 45.9714 26.6906L48.4376 27.9237L45.6947 33.4095L43.2291 32.1767C43.2293 32.1768 43.2289 32.1766 43.2291 32.1767Z" fill="#0EC281"/>
</g>
<defs>
<filter id="filter0_d_170_912" x="0.132812" y="-1.41699" width="87.7324" height="94.834" filterUnits="userSpaceOnUse" color-interpolation-filters="sRGB">
<feFlood flood-opacity="0" result="BackgroundImageFix"/>
<feColorMatrix in="SourceAlpha" type="matrix" values="0 0 0 0 0 0 0 0 0 0 0 0 0 0 0 0 0 0 127 0" />
<feOffset/>
<feGaussianBlur stdDeviation="2"/>
<feComposite in2="hardAlpha" operator="out"/>
<feColorMatrix type="matrix" values="0 0 0 0 0.0557298 0 0 0 0 0.759948 0 0 0 0 0.504226 0 0 0 1 0"/>
<feBlend mode="normal" in2="BackgroundImageFix" result="effect1_dropShadow_170_912"/>
<feBlend mode="normal" in="SourceGraphic" in2="effect1_dropShadow_170_912" result="shape"/>
</filter>
</defs>
</svg>
