<svg width="30" height="32" viewBox="0 0 30 32"  fill="none" xmlns="http://www.w3.org/2000/svg">
<path d="M10.4727 7.13131C6.38432 6.39084 3.15174 7.16604 1.86343 9.38484C0.902061 11.0406 1.1765 13.2362 2.52948 15.583C2.55686 15.6305 2.59338 15.6722 2.63697 15.7057C2.68056 15.7392 2.73037 15.7639 2.78353 15.7782C2.8367 15.7925 2.89218 15.7963 2.94682 15.7893C3.00146 15.7823 3.05417 15.7647 3.10195 15.7374C3.19844 15.6824 3.269 15.5915 3.29812 15.4847C3.32724 15.378 3.31254 15.2641 3.25725 15.1681C2.03836 13.0543 1.80082 11.1595 2.58963 9.80173C3.65971 7.95848 6.54274 7.26704 10.3222 7.9517C10.3905 7.96513 10.4611 7.96143 10.5276 7.94094C10.5941 7.92044 10.6545 7.8838 10.7032 7.83432C10.7519 7.78484 10.7875 7.72407 10.8067 7.6575C10.8259 7.59093 10.8281 7.52066 10.8132 7.45301C10.7951 7.37169 10.753 7.29759 10.6923 7.24028C10.6315 7.18296 10.5549 7.14504 10.4723 7.1314L10.4727 7.13131ZM4.6555 18.4353C6.30848 20.242 8.45619 21.9364 10.9055 23.3428C16.8359 26.7478 23.1493 27.6579 26.2607 25.548C26.3503 25.4848 26.4114 25.3891 26.4309 25.2816C26.4503 25.1741 26.4265 25.0633 26.3647 24.973C26.3028 24.8827 26.2078 24.8202 26.1 24.7989C25.9923 24.7776 25.8804 24.7991 25.7885 24.859C23.0037 26.7473 17.0064 25.8828 11.3249 22.6207C8.94846 21.2562 6.86895 19.6156 5.27579 17.8744C5.22039 17.8119 5.14745 17.7673 5.06635 17.7463C4.98525 17.7254 4.89971 17.7291 4.82074 17.7569C4.7551 17.7801 4.69631 17.8192 4.64967 17.8707C4.60303 17.9221 4.57002 17.9844 4.55362 18.0517C4.53722 18.119 4.53795 18.1893 4.55574 18.2563C4.57352 18.3233 4.60781 18.3848 4.6555 18.4353V18.4353Z" stroke="#27AE60"/>
<path d="M25.2686 17.9282C27.9454 14.7834 28.8803 11.6203 27.5947 9.40592C26.6487 7.77659 24.6487 6.91633 21.991 6.88201C21.8799 6.88059 21.7727 6.92311 21.693 7.00024C21.6133 7.07737 21.5677 7.18279 21.5661 7.29334C21.5649 7.37583 21.5884 7.45681 21.6335 7.52601C21.6787 7.59521 21.7435 7.64949 21.8198 7.68196C21.8704 7.70361 21.9248 7.71513 21.9799 7.71587C24.3702 7.7466 26.0934 8.48789 26.8686 9.82289C27.9362 11.6622 27.1029 14.483 24.6286 17.3896C24.5918 17.4312 24.5637 17.4797 24.5459 17.5322C24.5281 17.5848 24.5211 17.6403 24.5252 17.6956C24.5293 17.7509 24.5444 17.8048 24.5697 17.8542C24.595 17.9035 24.63 17.9474 24.6726 17.9832C24.7152 18.0189 24.7645 18.0458 24.8176 18.0624C24.8708 18.079 24.9267 18.0849 24.9822 18.0798C25.0376 18.0747 25.0915 18.0587 25.1407 18.0326C25.1898 18.0066 25.2333 17.9711 25.2686 17.9282V17.9282ZM18.3889 7.27022C15.9684 7.78606 13.3923 8.7943 10.9184 10.2147C4.79594 13.7298 0.802235 18.9125 1.35712 22.6709C1.36402 22.726 1.38192 22.7792 1.40976 22.8273C1.43761 22.8754 1.47484 22.9175 1.51927 22.9511C1.5637 22.9848 1.61444 23.0092 1.6685 23.0231C1.72257 23.0369 1.77887 23.0399 1.83411 23.0318C1.88935 23.0237 1.9424 23.0048 1.99017 22.976C2.03794 22.9473 2.07945 22.9093 2.11227 22.8644C2.14509 22.8195 2.16855 22.7685 2.18129 22.7145C2.19403 22.6604 2.19578 22.6044 2.18644 22.5496C1.69417 19.2129 5.47958 14.2999 11.3373 10.9369C13.7373 9.5588 16.232 8.58283 18.5647 8.08529C18.6701 8.05895 18.7611 7.99294 18.8185 7.90117C18.876 7.80941 18.8953 7.69905 18.8725 7.59337C18.8498 7.48768 18.7866 7.39493 18.6964 7.33464C18.6062 7.27436 18.4959 7.25126 18.3889 7.27022Z" stroke="#27AE60"/>
<path d="M8.4706 25.2763C9.87082 29.1625 12.1602 31.5556 14.7352 31.5556C16.6128 31.5556 18.3501 30.2828 19.705 28.0417C19.7353 27.9948 19.7559 27.9422 19.7655 27.8872C19.7751 27.8322 19.7735 27.7759 19.7608 27.7215C19.745 27.6533 19.7121 27.5903 19.6653 27.5381C19.6185 27.4859 19.5592 27.4463 19.4929 27.4229C19.4266 27.3995 19.3555 27.393 19.2861 27.4041C19.2167 27.4152 19.1511 27.4435 19.0956 27.4864C19.0512 27.5206 19.0143 27.5633 18.9868 27.612C17.7691 29.6261 16.2734 30.7221 14.7352 30.7221C12.5967 30.7221 10.5541 28.5875 9.26023 24.9951C9.24248 24.9425 9.21436 24.8939 9.17753 24.8522C9.14069 24.8105 9.09587 24.7765 9.04569 24.7522C8.99548 24.728 8.94093 24.714 8.88522 24.711C8.8295 24.708 8.77376 24.7162 8.72125 24.7349C8.66874 24.7537 8.62051 24.7827 8.57939 24.8202C8.53827 24.8577 8.50508 24.9029 8.48176 24.9533C8.45844 25.0038 8.44545 25.0583 8.44356 25.1137C8.44174 25.1692 8.45107 25.2245 8.47101 25.2763H8.4706ZM21.2556 24.5158C21.9802 22.2138 22.369 19.5573 22.369 16.7892C22.369 9.88273 19.9385 3.92872 16.476 2.39981C16.3748 2.35747 16.261 2.35629 16.1589 2.39652C16.0568 2.43674 15.9747 2.51516 15.9302 2.61494C15.8856 2.71471 15.8822 2.82788 15.9206 2.93014C15.9591 3.0324 16.0363 3.11559 16.1357 3.16185C19.2239 4.52562 21.5309 10.176 21.5309 16.7892C21.5309 19.4743 21.1537 22.047 20.4556 24.2669C20.4376 24.3196 20.4303 24.3753 20.4343 24.4308C20.4382 24.4862 20.4533 24.5404 20.4787 24.59C20.5168 24.6646 20.5767 24.7262 20.6505 24.7665C20.7243 24.8069 20.8087 24.8242 20.8925 24.8162C20.9764 24.8082 21.0559 24.7753 21.1207 24.7217C21.1854 24.6681 21.2325 24.5964 21.2556 24.5158V24.5158ZM29.1511 24.1077C29.1528 23.8446 29.1021 23.5838 29.002 23.3402C28.902 23.0966 28.7544 22.8752 28.568 22.6885C28.3815 22.5019 28.1597 22.3538 27.9154 22.2527C27.6712 22.1517 27.4092 22.0996 27.1446 22.0996C26.8801 22.0996 26.6181 22.1517 26.3738 22.2528C26.1296 22.3538 25.9078 22.502 25.7213 22.6886C25.5348 22.8752 25.3873 23.0967 25.2873 23.3403C25.1872 23.5838 25.1365 23.8447 25.1382 24.1078C25.1416 24.6347 25.3545 25.139 25.7305 25.5104C26.1064 25.8818 26.6148 26.0903 27.1447 26.0903C27.6746 26.0903 28.183 25.8818 28.5589 25.5103C28.9348 25.1389 29.1477 24.6347 29.1511 24.1077ZM28.3126 24.1077C28.3125 24.4157 28.1894 24.7111 27.9704 24.9289C27.7514 25.1467 27.4544 25.2691 27.1446 25.2691C26.9137 25.2691 26.6879 25.201 26.4958 25.0734C26.3038 24.9458 26.1541 24.7644 26.0657 24.5522C25.9774 24.34 25.9542 24.1065 25.9993 23.8812C26.0444 23.6559 26.1556 23.449 26.3189 23.2866C26.4822 23.1241 26.6903 23.0135 26.9169 22.9687C27.1434 22.9239 27.3782 22.9469 27.5916 23.0348C27.805 23.1227 27.9874 23.2715 28.1157 23.4625C28.244 23.6535 28.3125 23.878 28.3126 24.1077V24.1077ZM2.29681 26.103C2.56031 26.103 2.82124 26.0515 3.06469 25.9512C3.30814 25.8509 3.52934 25.704 3.71567 25.5187C3.90199 25.3334 4.04978 25.1134 4.15061 24.8713C4.25143 24.6292 4.30331 24.3697 4.30327 24.1077C4.30329 23.8456 4.25141 23.5862 4.15058 23.3441C4.04974 23.102 3.90194 22.882 3.71561 22.6967C3.52928 22.5114 3.30807 22.3644 3.06462 22.2642C2.82116 22.1639 2.56023 22.1123 2.29673 22.1124C2.03323 22.1124 1.77232 22.164 1.52889 22.2642C1.28545 22.3645 1.06426 22.5115 0.877947 22.6968C0.691634 22.8821 0.543847 23.102 0.443025 23.3441C0.342204 23.5862 0.290323 23.8457 0.290344 24.1077C0.290323 24.3697 0.342207 24.6292 0.443033 24.8713C0.54386 25.1134 0.691654 25.3334 0.877976 25.5186C1.0643 25.7039 1.2855 25.8509 1.52894 25.9512C1.77239 26.0514 2.03331 26.103 2.29681 26.103V26.103ZM2.29681 25.2691C1.98699 25.2691 1.68985 25.1467 1.47078 24.9289C1.2517 24.711 1.12862 24.4155 1.12862 24.1074C1.12862 23.7993 1.2517 23.5039 1.47078 23.286C1.68985 23.0681 1.98699 22.9457 2.29681 22.9457C2.60663 22.9457 2.90376 23.0681 3.12284 23.286C3.34192 23.5039 3.46499 23.7993 3.46499 24.1074C3.46499 24.4155 3.34192 24.711 3.12284 24.9289C2.90376 25.1467 2.60663 25.2691 2.29681 25.2691V25.2691Z" fill="#27AE60"  stroke="#27AE60"/>
<path d="M14.7352 4.43507C15.1321 4.43511 15.52 4.31809 15.85 4.09883C16.18 3.87956 16.4371 3.5679 16.5889 3.20327C16.7151 2.90012 16.7642 2.5707 16.7318 2.24418C16.6995 1.91767 16.5866 1.60412 16.4033 1.33132C16.22 1.05851 15.9719 0.834864 15.6809 0.68017C15.39 0.525475 15.0652 0.44451 14.7352 0.444443C14.3384 0.444376 13.9504 0.561356 13.6204 0.780586C13.2904 0.999817 13.0332 1.31145 12.8813 1.67606C12.7294 2.04068 12.6897 2.44189 12.7672 2.82896C12.8446 3.21603 13.0358 3.57157 13.3164 3.85059C13.5027 4.03587 13.7239 4.18285 13.9674 4.28312C14.2108 4.38339 14.4717 4.435 14.7352 4.43499V4.43507ZM14.7352 3.60112C14.5042 3.60109 14.2784 3.53297 14.0864 3.40536C13.8943 3.27775 13.7446 3.09639 13.6562 2.88419C13.5974 2.74329 13.5672 2.59225 13.5672 2.43972C13.5672 2.28718 13.5974 2.13615 13.6562 1.99525C13.7149 1.85433 13.8009 1.72629 13.9093 1.61844C14.0178 1.5106 14.1465 1.42506 14.2882 1.36672C14.4478 1.301 14.62 1.27128 14.7926 1.27971C14.9651 1.28814 15.1335 1.33451 15.2859 1.41548C15.4382 1.49645 15.5706 1.61 15.6734 1.74796C15.7763 1.88592 15.8472 2.04485 15.8809 2.21331C15.9146 2.38177 15.9103 2.55556 15.8683 2.72218C15.8263 2.88879 15.7477 3.04407 15.6382 3.17684C15.5286 3.30961 15.3908 3.41657 15.2346 3.49C15.0785 3.56344 14.9079 3.60153 14.7352 3.60153V3.60112ZM15.0417 18.2007C14.6653 18.2815 14.272 18.2103 13.9484 18.0029C13.707 17.8481 13.5171 17.6257 13.4029 17.3637C13.2886 17.1016 13.255 16.8118 13.3065 16.5308C13.3579 16.2498 13.4919 15.9903 13.6917 15.785C13.8914 15.5798 14.1479 15.4381 14.4286 15.3779C14.8025 15.3036 15.1907 15.3785 15.5095 15.5863C15.8283 15.7942 16.0521 16.1184 16.1327 16.4889C16.2131 16.8595 16.1437 17.2466 15.9396 17.5668C15.7355 17.887 15.413 18.1145 15.0417 18.2003V18.2007Z" stroke="#27AE60"/>
</svg>
