<svg width="112" height="100" viewBox="0 0 112 100" fill="none" xmlns="http://www.w3.org/2000/svg">
<g filter="url(#filter0_d_170_902)">
<path d="M55.5167 59.3619C60.7151 59.3619 64.9293 55.1478 64.9293 49.9494C64.9293 44.751 60.7151 40.5369 55.5167 40.5369C50.3183 40.5369 46.1042 44.751 46.1042 49.9494C46.1042 55.1478 50.3183 59.3619 55.5167 59.3619Z" fill="#0EC281"/>
<path d="M55.5159 84.5633C62.9043 91.7492 70.1914 96 76.0616 96C77.9846 96 79.8064 95.5952 81.3245 94.6843C86.5874 91.648 88.5104 84.0572 86.6887 73.2277C86.385 71.3047 85.9802 69.3817 85.4741 67.3575C87.4983 66.7503 89.3201 66.143 91.1419 65.5358C101.364 61.5886 107.032 56.1232 107.032 50.1518C107.032 44.0792 101.364 38.6139 91.1419 34.7679C89.3201 34.0594 87.4983 33.4521 85.4741 32.9461C85.9802 30.9219 86.385 28.9989 86.6887 27.0759C88.4092 16.044 86.4862 8.35204 81.2233 5.31573C79.7052 4.40484 77.8834 4 75.9604 4C70.1914 4 62.8031 8.25082 55.4147 15.4367C48.1276 8.25082 40.8405 4 34.9703 4C33.0473 4 31.2255 4.40484 29.7074 5.31573C24.4444 8.35204 22.5215 15.9428 24.3432 26.7723C24.6469 28.6953 25.0517 30.6183 25.5578 32.6425C23.5336 33.2497 21.7118 33.857 19.89 34.4642C9.66776 38.4114 4 43.8768 4 49.8482C4 55.9208 9.66776 61.3861 19.89 65.2321C21.7118 65.9406 23.5336 66.5479 25.5578 67.0539C25.0517 69.0781 24.6469 71.0011 24.3432 72.9241C22.6227 83.7536 24.5457 91.4455 29.7074 94.3806C31.2255 95.2915 33.0473 95.6964 34.9703 95.6964C40.8405 95.8988 48.1276 91.648 55.5159 84.5633ZM49.8482 70.8999C51.67 71.0011 53.593 71.0011 55.5159 71.0011C57.4389 71.0011 59.3619 71.0011 61.1837 70.8999C59.3619 73.3289 57.4389 75.5556 55.5159 77.681C53.593 75.5556 51.67 73.3289 49.8482 70.8999ZM37.2981 60.4753C38.3102 62.1958 39.2211 63.8152 40.3344 65.4345C37.1969 65.0297 34.2618 64.5237 31.4279 63.9164C32.3388 61.1837 33.3509 58.3498 34.5655 55.516C35.3751 57.1353 36.286 58.8559 37.2981 60.4753ZM31.4279 36.0836C34.2618 35.4763 37.1969 34.9703 40.3344 34.5655C39.3223 36.1848 38.3102 37.8042 37.2981 39.5248C36.286 41.2453 35.3751 42.8647 34.5655 44.5853C33.2497 41.6502 32.2376 38.8163 31.4279 36.0836ZM36.9945 49.9494C38.3102 47.2167 39.7272 44.4841 41.3465 41.7514C42.8647 39.1199 44.5853 36.4884 46.3058 33.857C49.3421 33.6546 52.3784 33.5534 55.5159 33.5534C58.7547 33.5534 61.791 33.6546 64.7261 33.857C66.5478 36.4884 68.1672 39.1199 69.6854 41.7514C71.3047 44.4841 72.7217 47.2167 74.0374 49.9494C72.7217 52.6821 71.3047 55.4147 69.6854 58.1474C68.1672 60.7789 66.4466 63.4103 64.7261 66.0418C61.6898 66.2442 58.6535 66.3454 55.5159 66.3454C52.2772 66.3454 49.2409 66.2442 46.3058 66.0418C44.484 63.4103 42.8647 60.7789 41.3465 58.1474C39.7272 55.4147 38.3102 52.6821 36.9945 49.9494ZM76.5676 44.484L73.835 39.4235C72.8229 37.703 71.912 36.0836 70.7987 34.4642C73.9362 34.8691 76.8713 35.3751 79.7052 35.9824C78.7943 38.8163 77.7822 41.6502 76.5676 44.484ZM76.5676 55.4147C77.7822 58.2486 78.7943 61.0825 79.7052 63.8152C76.8713 64.4224 73.9362 64.9285 70.7987 65.3333C71.8108 63.714 72.8229 62.0946 73.835 60.374C74.7459 58.8559 75.6568 57.1353 76.5676 55.4147ZM78.8955 90.5347C78.0858 91.0407 77.0737 91.2431 75.9604 91.2431C71.0011 91.2431 64.8273 87.1947 58.7547 81.1221C61.6898 77.9846 64.5236 74.4422 67.3575 70.495C72.1144 70.0902 76.6689 69.3817 80.9197 68.3696C81.4257 70.1914 81.7294 72.0132 82.033 73.835C83.4499 82.4378 82.3366 88.6117 78.8955 90.5347ZM84.1584 37.1969C95.4939 40.4356 102.275 45.3949 102.275 49.9494C102.275 53.8966 97.6194 57.8438 89.4213 60.9813C87.802 61.5886 85.9802 62.1958 84.1584 62.7019C82.8427 58.5522 81.2233 54.3014 79.1991 49.9494C81.2233 45.5974 82.9439 41.3465 84.1584 37.1969ZM76.0616 8.65567C77.1749 8.65567 78.0858 8.85809 78.9967 9.36414C82.3366 11.2871 83.5511 17.3597 82.1342 26.0638C81.8306 27.7844 81.4257 29.6062 81.0209 31.5292C76.7701 30.6183 72.2156 29.9098 67.4587 29.4037C64.7261 25.4565 61.791 21.9142 58.8559 18.7767C64.9285 12.8053 71.1023 8.65567 76.0616 8.65567ZM61.1837 28.9989C59.3619 28.8977 57.4389 28.8977 55.5159 28.8977C53.593 28.8977 51.67 28.8977 49.8482 28.9989C51.67 26.5699 53.593 24.3432 55.5159 22.2178C57.4389 24.3432 59.3619 26.6711 61.1837 28.9989ZM32.1364 9.36414C32.9461 8.85809 33.9582 8.65567 35.0715 8.65567C40.0308 8.65567 46.2046 12.7041 52.2772 18.7767C49.3421 21.9142 46.5082 25.4565 43.6744 29.4037C38.9175 29.8086 34.363 30.517 30.1122 31.5292C29.6062 29.7074 29.3025 27.8856 28.9989 26.0638C27.582 17.4609 28.6953 11.3883 32.1364 9.36414ZM26.8735 62.7019C15.538 59.4631 8.75687 54.5038 8.75687 49.9494C8.75687 46.0022 13.4125 42.055 21.6106 38.9175C23.2299 38.3102 25.0517 37.703 26.8735 37.1969C28.1892 41.3465 29.8086 45.5974 31.8328 49.9494C29.8086 54.3014 28.088 58.6535 26.8735 62.7019ZM28.9989 73.835C29.3025 72.1144 29.7074 70.2926 30.1122 68.3696C34.363 69.2805 38.9175 69.989 43.6744 70.495C46.407 74.4422 49.3421 77.9846 52.2772 81.1221C46.2046 87.0935 40.0308 91.2431 35.0715 91.2431C33.9582 91.2431 33.0473 91.0407 32.1364 90.5347C28.6953 88.6117 27.582 82.4378 28.9989 73.835Z" fill="#0EC281"/>
</g>
<defs>
<filter id="filter0_d_170_902" x="0" y="0" width="111.031" height="100" filterUnits="userSpaceOnUse" color-interpolation-filters="sRGB">
<feFlood flood-opacity="0" result="BackgroundImageFix"/>
<feColorMatrix in="SourceAlpha" type="matrix" values="0 0 0 0 0 0 0 0 0 0 0 0 0 0 0 0 0 0 127 0" />
<feOffset/>
<feGaussianBlur stdDeviation="2"/>
<feComposite in2="hardAlpha" operator="out"/>
<feColorMatrix type="matrix" values="0 0 0 0 0.0557298 0 0 0 0 0.759948 0 0 0 0 0.504226 0 0 0 1 0"/>
<feBlend mode="normal" in2="BackgroundImageFix" result="effect1_dropShadow_170_902"/>
<feBlend mode="normal" in="SourceGraphic" in2="effect1_dropShadow_170_902" result="shape"/>
</filter>
</defs>
</svg>
