<svg width="99" height="274" viewBox="0 0 99 274" fill="none" xmlns="http://www.w3.org/2000/svg">
<path d="M51.5575 5.25L54.9875 5.95L48.4425 36.75L45.0125 36.05L51.5575 5.25ZM63.2825 21L57 14.7175V9.765L68.235 21L57 32.2175V27.265L63.2825 21ZM31.765 21L43 9.765V14.7175L36.7175 21L43 27.265V32.2175L31.765 21Z" fill="#0EC281"/>
<path d="M78.1641 135.604C78.1641 135.784 78.3035 135.932 78.4717 135.932H86.0596C86.2277 135.932 86.3672 135.784 86.3672 135.604V133.635C86.3672 133.454 86.2277 133.307 86.0596 133.307H78.4717C78.3035 133.307 78.1641 133.454 78.1641 133.635V135.604ZM70.1701 135.854L78.0451 129.25C78.201 129.119 78.201 128.877 78.0451 128.746L70.1701 122.146C70.1226 122.106 70.0644 122.08 70.0026 122.072C69.9408 122.063 69.8778 122.073 69.8212 122.099C69.7647 122.125 69.7168 122.167 69.6834 122.22C69.65 122.273 69.6325 122.334 69.6328 122.396V124.968C69.6328 125.067 69.6738 125.157 69.7518 125.218L74.2553 129L69.7518 132.782C69.7151 132.812 69.6855 132.851 69.665 132.894C69.6444 132.937 69.6335 132.984 69.6328 133.032V135.604C69.6328 135.882 69.9568 136.034 70.1701 135.854ZM93.0938 112.594H62.9062C62.1803 112.594 61.5938 113.18 61.5938 113.906V144.094C61.5938 144.82 62.1803 145.406 62.9062 145.406H93.0938C93.8197 145.406 94.4062 144.82 94.4062 144.094V113.906C94.4062 113.18 93.8197 112.594 93.0938 112.594ZM91.4531 142.453H64.5469V115.547H91.4531V142.453Z" fill="#0EC281"/>
<path d="M8.75 175.25H12.25V178.75H8.75V187.5C8.75 188.428 8.38125 189.318 7.72487 189.975C7.0685 190.631 6.17826 191 5.25 191C6.17826 191 7.0685 191.369 7.72487 192.025C8.38125 192.682 8.75 193.572 8.75 194.5V203.25H12.25V206.75H8.75C6.8775 206.278 5.25 205.175 5.25 203.25V196.25C5.25 195.322 4.88125 194.432 4.22487 193.775C3.5685 193.119 2.67826 192.75 1.75 192.75H0V189.25H1.75C2.67826 189.25 3.5685 188.881 4.22487 188.225C4.88125 187.568 5.25 186.678 5.25 185.75V178.75C5.25 177.822 5.61875 176.932 6.27513 176.275C6.9315 175.619 7.82174 175.25 8.75 175.25ZM33.25 175.25C34.1783 175.25 35.0685 175.619 35.7249 176.275C36.3812 176.932 36.75 177.822 36.75 178.75V185.75C36.75 186.678 37.1188 187.568 37.7751 188.225C38.4315 188.881 39.3217 189.25 40.25 189.25H42V192.75H40.25C39.3217 192.75 38.4315 193.119 37.7751 193.775C37.1188 194.432 36.75 195.322 36.75 196.25V203.25C36.75 204.178 36.3812 205.068 35.7249 205.725C35.0685 206.381 34.1783 206.75 33.25 206.75H29.75V203.25H33.25V194.5C33.25 193.572 33.6188 192.682 34.2751 192.025C34.9315 191.369 35.8217 191 36.75 191C35.8217 191 34.9315 190.631 34.2751 189.975C33.6188 189.318 33.25 188.428 33.25 187.5V178.75H29.75V175.25H33.25ZM21 196.25C21.4641 196.25 21.9092 196.434 22.2374 196.763C22.5656 197.091 22.75 197.536 22.75 198C22.75 198.464 22.5656 198.909 22.2374 199.237C21.9092 199.566 21.4641 199.75 21 199.75C20.5359 199.75 20.0908 199.566 19.7626 199.237C19.4344 198.909 19.25 198.464 19.25 198C19.25 197.536 19.4344 197.091 19.7626 196.763C20.0908 196.434 20.5359 196.25 21 196.25ZM14 196.25C14.4641 196.25 14.9092 196.434 15.2374 196.763C15.5656 197.091 15.75 197.536 15.75 198C15.75 198.464 15.5656 198.909 15.2374 199.237C14.9092 199.566 14.4641 199.75 14 199.75C13.5359 199.75 13.0908 199.566 12.7626 199.237C12.4344 198.909 12.25 198.464 12.25 198C12.25 197.536 12.4344 197.091 12.7626 196.763C13.0908 196.434 13.5359 196.25 14 196.25ZM28 196.25C28.4641 196.25 28.9093 196.434 29.2374 196.763C29.5656 197.091 29.75 197.536 29.75 198C29.75 198.464 29.5656 198.909 29.2374 199.237C28.9093 199.566 28.4641 199.75 28 199.75C27.5359 199.75 27.0908 199.566 26.7626 199.237C26.4344 198.909 26.25 198.464 26.25 198C26.25 197.536 26.4344 197.091 26.7626 196.763C27.0908 196.434 27.5359 196.25 28 196.25Z" fill="#0EC281"/>
<path d="M71.6 246V260M77.2 246V260M67.4 250.2H81.4M67.4 255.8H81.4M67.4 260L66.2744 260.563C65.0655 261.168 63.7221 261.454 62.3717 261.393C61.0213 261.333 59.7089 260.928 58.559 260.217C57.4092 259.506 56.4602 258.513 55.8023 257.332C55.1444 256.152 54.7993 254.822 54.8 253.47V252.53C54.8001 251.178 55.1456 249.849 55.8038 248.669C56.4619 247.488 57.4108 246.496 58.5604 245.785C59.7099 245.075 61.022 244.67 62.3721 244.609C63.7222 244.548 65.0655 244.833 66.2744 245.437L67.4 246M49.2 261.4V244.6L66 234.8L82.8 244.6V261.4L66 271.2L49.2 261.4Z" stroke="#0EC281" stroke-width="2.8"/>
</svg>
