<svg width="146" height="212" viewBox="0 0 146 212" fill="none" xmlns="http://www.w3.org/2000/svg">
<path d="M27.9921 3.9375C27.5131 3.9375 27.034 4.05562 26.6206 4.29187L13.615 11.7994C12.775 12.285 12.25 13.2038 12.25 14.175V27.7987C12.25 28.7831 12.775 29.6887 13.615 30.1744L17.0275 32.1431C18.6812 32.9569 19.2719 32.9569 20.02 32.9569C22.4744 32.9569 23.8787 31.4738 23.8787 28.9013V14.8444C23.8787 14.7434 23.8386 14.6466 23.7673 14.5752C23.6959 14.5039 23.5991 14.4638 23.4981 14.4638H21.8575C21.8073 14.463 21.7575 14.4724 21.711 14.4913C21.6645 14.5102 21.6223 14.5382 21.5868 14.5737C21.5513 14.6091 21.5233 14.6514 21.5044 14.6979C21.4855 14.7444 21.4762 14.7942 21.4769 14.8444V28.8881C21.4769 30.0431 20.2825 31.1719 18.3531 30.2138L14.7831 28.1531C14.7191 28.1189 14.6657 28.0677 14.6287 28.0052C14.5916 27.9428 14.5724 27.8714 14.5731 27.7987V14.1881C14.5731 14.0306 14.6519 13.8994 14.7831 13.8206L27.79 6.31312C27.8509 6.27463 27.9214 6.2542 27.9934 6.2542C28.0655 6.2542 28.136 6.27463 28.1969 6.31312L41.2037 13.8206C41.335 13.8994 41.4137 14.0306 41.4137 14.175V27.7987C41.4137 27.9431 41.335 28.0875 41.2169 28.1531L28.1969 35.6737C28.1339 35.706 28.0642 35.7228 27.9934 35.7228C27.9227 35.7228 27.853 35.706 27.79 35.6737L24.4431 33.6919C24.3982 33.6588 24.3449 33.6389 24.2893 33.6342C24.2337 33.6296 24.1779 33.6405 24.1281 33.6656C23.1962 34.1906 23.0256 34.2563 22.1594 34.5581C21.9494 34.6238 21.6213 34.755 22.2775 35.1225L26.6219 37.695C27.0419 37.9312 27.5144 38.0625 27.9869 38.0625C28.4725 38.0625 28.945 37.9312 29.365 37.695L42.385 30.1744C43.225 29.6887 43.75 28.7831 43.75 27.7987V14.1881C43.75 13.2038 43.225 12.2981 42.385 11.8125L29.365 4.29187C28.9503 4.05562 28.4725 3.9375 27.9921 3.9375ZM31.4912 14.4454C27.7769 14.4454 25.5588 16.0204 25.5588 18.6454C25.5588 21.4935 27.7638 22.2784 31.3338 22.6327C35.5994 23.0527 35.9275 23.6854 35.9275 24.5254C35.9275 25.9691 34.7594 26.586 32.0162 26.586C28.5644 26.586 27.8031 25.7184 27.5538 24.0122C27.541 23.9241 27.4968 23.8436 27.4292 23.7856C27.3616 23.7277 27.2753 23.6963 27.1862 23.6972H25.4931C25.3957 23.6972 25.3022 23.7359 25.2333 23.8048C25.1643 23.8737 25.1256 23.9672 25.1256 24.0647C25.1256 26.2566 26.32 28.8684 32.0162 28.8684C36.1375 28.8684 38.5 27.2409 38.5 24.4059C38.5 21.5972 36.5969 20.8491 32.6069 20.3109C28.5513 19.7859 28.1444 19.5103 28.1444 18.5653C28.1444 17.7778 28.4988 16.7409 31.4912 16.7409C34.1556 16.7409 35.1531 17.3184 35.56 19.1166C35.5994 19.2872 35.7438 19.4184 35.9275 19.4184H37.6206C37.7256 19.4184 37.8175 19.3659 37.8963 19.2872C37.932 19.2488 37.9587 19.2031 37.9746 19.1531C37.9905 19.1032 37.9951 19.0504 37.9881 18.9984C37.7256 15.9009 35.665 14.4454 31.4912 14.4454Z" fill="#0EC281"/>
<path d="M6.5625 95.5625V124.438H35.4375V95.5625H6.5625ZM9.1875 98.1875H32.8125V121.812H9.1875V98.1875ZM20.8792 100.812C15.7369 100.812 11.8125 104.717 11.8125 109.849C11.8125 113.961 14.3942 117.481 18.0902 118.719C18.5693 118.803 18.7359 118.509 18.7359 118.27C18.7359 118.042 18.7267 116.771 18.7267 115.99C18.7267 115.99 16.1214 116.552 15.5807 114.886C15.5807 114.886 15.1568 113.813 14.553 113.532C14.553 113.532 13.7091 112.951 14.6147 112.961C14.6147 112.961 15.5321 113.035 16.0427 113.919C16.8538 115.356 18.2149 114.938 18.7464 114.699C18.8291 114.105 19.0706 113.688 19.341 113.451C17.2686 113.222 15.1751 112.92 15.1751 109.359C15.1751 108.338 15.4573 107.829 16.0506 107.173C15.9561 106.933 15.6345 105.934 16.1451 104.653C16.926 104.413 18.7057 105.652 18.7057 105.652C19.4655 105.447 20.2486 105.342 21.0354 105.339C21.8236 105.343 22.608 105.448 23.3691 105.653C23.3691 105.653 25.1488 104.414 25.9284 104.653C26.439 105.944 26.1148 106.934 26.0216 107.173C26.6149 107.829 26.9797 108.34 26.9797 109.359C26.9797 112.94 24.7931 113.222 22.722 113.451C23.0659 113.742 23.3586 114.293 23.3586 115.167C23.3586 116.418 23.3481 117.971 23.3481 118.273C23.3481 118.512 23.5148 118.802 23.9833 118.719C27.678 117.48 30.1875 113.961 30.1875 109.849C30.1875 104.717 26.0229 100.812 20.8792 100.812ZM15.1764 113.263C15.1029 113.242 15.0399 113.255 15.0189 113.297C14.9979 113.339 15.0281 113.398 15.1016 113.441C15.1646 113.472 15.2368 113.462 15.2578 113.41C15.2788 113.368 15.2499 113.305 15.1764 113.263ZM15.5085 113.574C15.4744 113.566 15.4403 113.57 15.414 113.596C15.3615 113.638 15.372 113.721 15.435 113.793C15.498 113.846 15.5794 113.877 15.6319 113.825C15.6844 113.783 15.6752 113.701 15.6122 113.628C15.5823 113.602 15.5468 113.584 15.5085 113.574ZM15.8983 114.056C15.8804 114.049 15.8611 114.046 15.842 114.048C15.8228 114.05 15.8044 114.056 15.7881 114.066C15.7251 114.108 15.7251 114.204 15.7881 114.287C15.8511 114.369 15.9456 114.41 15.9981 114.368C16.0598 114.326 16.0598 114.221 15.9981 114.14C15.9752 114.101 15.94 114.072 15.8983 114.056ZM16.3249 114.575C16.3046 114.572 16.284 114.575 16.2649 114.582C16.2458 114.589 16.2289 114.602 16.2159 114.617C16.1647 114.67 16.1858 114.771 16.2684 114.844C16.3511 114.928 16.4535 114.942 16.506 114.879C16.5585 114.837 16.5283 114.721 16.4548 114.648C16.4204 114.61 16.3755 114.584 16.3249 114.575ZM17.0389 114.991C16.947 114.97 16.8328 114.999 16.8118 115.073C16.7908 115.146 16.8643 115.232 16.968 115.253C17.0599 115.295 17.1754 115.25 17.1964 115.178C17.2279 115.106 17.1531 115.023 17.0389 114.991ZM18.4432 115.024C18.3409 115.045 18.2674 115.119 18.2779 115.201C18.2884 115.274 18.3921 115.314 18.4958 115.293C18.6099 115.272 18.6834 115.201 18.6624 115.127C18.6519 115.053 18.5496 115.012 18.4446 115.024H18.4432ZM17.7568 115.107C17.6413 115.107 17.5599 115.169 17.5599 115.242C17.5599 115.325 17.6426 115.389 17.7673 115.379C17.8828 115.379 17.9642 115.316 17.9642 115.242C17.9642 115.158 17.8618 115.096 17.7568 115.107Z" fill="#0EC281"/>
<path d="M66.3968 171.75H101.605L99.6835 205.364L84.0035 211.244L68.32 205.364L66.3968 171.75ZM70.105 175.25L71.6835 202.886L84.0035 207.506L96.32 202.886L97.8968 175.25H70.105ZM72.9225 178.75H95.0775L94.8763 182.28L91.8663 182.25H76.6273L76.965 188.16H94.5403L93.8315 200.557L84 204.244L74.1685 200.557L73.829 194.628H77.371L77.448 196.588L77.532 198.081L84 200.506L90.468 198.081L90.8355 191.658H73.6575L72.9225 178.75Z" fill="#0EC281"/>
<g clip-path="url(#clip0_78_6166)">
<path d="M120.8 79.9999H123.6M116.6 84.1999V77.1999C116.6 76.4573 116.895 75.7451 117.42 75.22C117.945 74.6949 118.657 74.3999 119.4 74.3999H130.6C131.343 74.3999 132.055 74.6949 132.58 75.22C133.105 75.7451 133.4 76.4573 133.4 77.1999V91.1999C133.4 91.9425 133.105 92.6547 132.58 93.1798C132.055 93.7049 131.343 93.9999 130.6 93.9999H119.4C118.657 93.9999 117.945 94.2949 117.42 94.82C116.895 95.3451 116.6 96.0573 116.6 96.7999V110.8C116.6 111.543 116.895 112.255 117.42 112.78C117.945 113.305 118.657 113.6 119.4 113.6H130.6C131.343 113.6 132.055 113.305 132.58 112.78C133.105 112.255 133.4 111.543 133.4 110.8V103.8M126.4 85.5999H108.2C107.457 85.5999 106.745 85.8949 106.22 86.42C105.695 86.9451 105.4 87.6573 105.4 88.3999V102.4C105.4 103.143 105.695 103.855 106.22 104.38C106.745 104.905 107.457 105.2 108.2 105.2H116.6M123.6 102.4H141.8C142.543 102.4 143.255 102.105 143.78 101.58C144.305 101.055 144.6 100.343 144.6 99.5999V85.5999C144.6 84.8573 144.305 84.1451 143.78 83.62C143.255 83.0949 142.543 82.7999 141.8 82.7999H133.4M126.4 108H129.2" stroke="#0EC281" stroke-width="2.8"/>
</g>
<defs>
<clipPath id="clip0_78_6166">
<rect width="42" height="42" fill="white" transform="translate(104 73)"/>
</clipPath>
</defs>
</svg>
