<svg width="55" height="92" viewBox="0 0 55 92" fill="none" xmlns="http://www.w3.org/2000/svg">
<g clip-path="url(#clip0_59_5254)">
<path d="M14.5427 15.7283L15.8294 15.5457L17.3779 27.1322L16.0912 27.3148L14.5427 15.7283ZM20.6053 19.7754L17.6255 18.3611L17.0085 16.6291L22.3373 19.1584L19.8059 24.481L19.1888 22.7491L20.6053 19.7754ZM9.58333 23.7022L12.1126 18.3734L12.7296 20.1053L11.3153 23.0851L14.2929 24.4933L14.9099 26.2253L9.58333 23.7022Z" fill="#0EC281"/>
</g>
<g clip-path="url(#clip1_59_5254)">
<path d="M43.3578 13.0386C43.3304 13.0997 43.3551 13.1709 43.412 13.1966L45.9811 14.3521C46.038 14.3777 46.1077 14.3489 46.1352 14.2878L46.435 13.6212C46.4625 13.5601 46.4377 13.4889 46.3808 13.4633L43.8118 12.3078C43.7548 12.2822 43.6851 12.311 43.6576 12.3721L43.3578 13.0386ZM40.6132 11.906L44.2851 10.8695C44.3578 10.8488 44.3947 10.7668 44.3619 10.6987L42.7006 7.26507C42.6907 7.24414 42.6749 7.22651 42.6553 7.21426C42.6356 7.20201 42.6128 7.19566 42.5897 7.19596C42.5665 7.19627 42.5439 7.20321 42.5246 7.21597C42.5052 7.22873 42.49 7.24678 42.4806 7.26796L42.089 8.13865C42.074 8.17198 42.0741 8.20878 42.0911 8.24147L43.04 10.2076L40.9394 10.8022C40.9223 10.807 40.9065 10.8154 40.8929 10.8269C40.8794 10.8384 40.8685 10.8527 40.861 10.8688L40.4694 11.7395C40.4269 11.8339 40.5135 11.9346 40.6132 11.906ZM51.9165 7.5217L41.6959 2.92471C41.4502 2.81415 41.1623 2.92342 41.0517 3.16921L36.4547 13.3898C36.3442 13.6356 36.4534 13.9235 36.6992 14.0341L46.9198 18.6311C47.1656 18.7416 47.4535 18.6323 47.5641 18.3865L52.1611 8.16594C52.2716 7.92015 52.1623 7.63225 51.9165 7.5217ZM46.8141 17.3814L37.7044 13.2841L41.8017 4.17439L50.9114 8.27171L46.8141 17.3814Z" fill="#0EC281"/>
</g>
<g clip-path="url(#clip2_59_5254)">
<path d="M17.7869 49.7409L18.8831 49.0433L19.5807 50.1396L18.4844 50.8371L20.2283 53.5777C20.4133 53.8685 20.4752 54.2208 20.4004 54.5572C20.3257 54.8936 20.1203 55.1865 19.8296 55.3715C20.1203 55.1865 20.4726 55.1246 20.809 55.1993C21.1454 55.2741 21.4383 55.4795 21.6233 55.7702L23.3672 58.5108L24.4634 57.8133L25.1609 58.9095L24.0647 59.607C23.3841 59.8322 22.6546 59.8113 22.2709 59.2083L20.8759 57.0158C20.6909 56.7251 20.398 56.5198 20.0616 56.445C19.7252 56.3702 19.3728 56.4321 19.0821 56.6171L18.534 56.9659L17.8364 55.8697L18.3846 55.5209C18.6753 55.3359 18.8806 55.043 18.9554 54.7066C19.0302 54.3702 18.9683 54.0179 18.7833 53.7271L17.3882 51.5347C17.2032 51.2439 17.1413 50.8916 17.2161 50.5552C17.2908 50.2188 17.4962 49.9259 17.7869 49.7409ZM25.4606 44.8581C25.7513 44.6731 26.1036 44.6112 26.44 44.686C26.7764 44.7608 27.0693 44.9661 27.2543 45.2569L28.6494 47.4493C28.8344 47.7401 29.1273 47.9454 29.4637 48.0202C29.8001 48.095 30.1524 48.033 30.4432 47.848L30.9913 47.4993L31.6888 48.5955L31.1407 48.9443C30.85 49.1293 30.6446 49.4222 30.5699 49.7586C30.4951 50.095 30.557 50.4473 30.742 50.738L32.1371 52.9305C32.3221 53.2213 32.384 53.5736 32.3092 53.91C32.2345 54.2464 32.0291 54.5393 31.7384 54.7243L30.6421 55.4218L29.9446 54.3256L31.0408 53.6281L29.297 50.8875C29.112 50.5967 29.0501 50.2444 29.1249 49.908C29.1996 49.5716 29.405 49.2787 29.6957 49.0937C29.405 49.2787 29.0527 49.3406 28.7163 49.2658C28.3799 49.1911 28.0869 48.9857 27.9019 48.695L26.1581 45.9544L25.0619 46.6519L24.3643 45.5557L25.4606 44.8581ZM25.8089 53.8769C25.9543 53.7844 26.1305 53.7535 26.2987 53.7909C26.4669 53.8283 26.6133 53.9309 26.7058 54.0763C26.7983 54.2217 26.8293 54.3978 26.7919 54.566C26.7545 54.7342 26.6518 54.8807 26.5065 54.9732C26.3611 55.0657 26.1849 55.0966 26.0167 55.0593C25.8485 55.0219 25.7021 54.9192 25.6096 54.7738C25.5171 54.6285 25.4861 54.4523 25.5235 54.2841C25.5609 54.1159 25.6636 53.9694 25.8089 53.8769ZM23.6165 55.272C23.7618 55.1795 23.938 55.1486 24.1062 55.1859C24.2744 55.2233 24.4209 55.326 24.5134 55.4714C24.6059 55.6167 24.6368 55.7929 24.5994 55.9611C24.562 56.1293 24.4594 56.2757 24.314 56.3682C24.1686 56.4607 23.9925 56.4917 23.8243 56.4543C23.6561 56.4169 23.5096 56.3143 23.4171 56.1689C23.3246 56.0235 23.2937 55.8474 23.331 55.6792C23.3684 55.511 23.4711 55.3645 23.6165 55.272ZM28.0014 52.4819C28.1468 52.3894 28.323 52.3584 28.4911 52.3958C28.6593 52.4332 28.8058 52.5359 28.8983 52.6812C28.9908 52.8266 29.0218 53.0028 28.9844 53.171C28.947 53.3392 28.8443 53.4856 28.699 53.5781C28.5536 53.6706 28.3774 53.7016 28.2092 53.6642C28.041 53.6268 27.8946 53.5241 27.8021 53.3788C27.7096 53.2334 27.6786 53.0572 27.716 52.889C27.7534 52.7208 27.856 52.5744 28.0014 52.4819Z" fill="#0EC281"/>
</g>
<g clip-path="url(#clip3_59_5254)">
<path d="M11.6385 80.4158L10.6703 85.5222M13.681 80.8031L12.7129 85.9095M9.81611 81.6573L14.9225 82.6254M9.42885 83.6998L14.5353 84.668M9.13841 85.2318L8.68894 85.3592C8.2062 85.4963 7.69643 85.5076 7.20807 85.3921C6.71971 85.2767 6.26899 85.0382 5.89875 84.6995C5.52851 84.3608 5.25104 83.933 5.09272 83.4568C4.93439 82.9806 4.90048 82.4718 4.99419 81.9788L5.05925 81.6357C5.15275 81.1427 5.37069 80.6819 5.69236 80.2969C6.01404 79.9118 6.42878 79.6154 6.89722 79.4358C7.36566 79.2561 7.87225 79.1991 8.36889 79.2702C8.86554 79.3414 9.33576 79.5383 9.73492 79.8422L10.1066 80.1254M2.40327 84.4838L3.56504 78.3561L10.3704 75.9434L15.8204 80.6797L14.6586 86.8074L7.85326 89.2201L2.40327 84.4838Z" stroke="#0EC281" stroke-width="1.03947"/>
</g>
<defs>
<clipPath id="clip0_59_5254">
<rect width="15.5921" height="15.5921" fill="white" transform="translate(6 16.7027) rotate(-19.6092)"/>
</clipPath>
<clipPath id="clip1_59_5254">
<rect width="15.5921" height="15.5921" fill="white" transform="translate(40.3958 0.469971) rotate(24.2171)"/>
</clipPath>
<clipPath id="clip2_59_5254">
<rect width="15.5921" height="15.5921" fill="white" transform="translate(14 49.8404) rotate(-32.4685)"/>
</clipPath>
<clipPath id="clip3_59_5254">
<rect width="15.5921" height="15.5921" fill="white" transform="translate(2.90442 73.47) rotate(10.7355)"/>
</clipPath>
</defs>
</svg>
