<svg width="398" height="377" viewBox="0 0 398 377" fill="none" xmlns="http://www.w3.org/2000/svg">
<mask id="mask0_59_2979" style="mask-type:alpha" maskUnits="userSpaceOnUse" x="0" y="0" width="398" height="377">
<g clip-path="url(#clip0_59_2979)">
<path d="M61.376 152.481L63.6863 151.756L70.0348 172.588L67.7245 173.313L61.376 152.481ZM73.7445 158.088L67.8391 156.389L66.1814 153.392L76.7419 156.431L73.697 166.981L72.0392 163.983L73.7445 158.088ZM54.6689 168.638L57.708 158.078L59.3658 161.075L57.6664 166.981L63.5659 168.669L65.2236 171.667L54.6689 168.638Z" fill="#0EC281"/>
</g>
<g clip-path="url(#clip1_59_2979)">
<path d="M67.556 268.178C67.6076 268.292 67.7376 268.345 67.8435 268.297L72.623 266.129C72.7289 266.081 72.7746 265.948 72.723 265.835L72.1606 264.595C72.109 264.481 71.979 264.428 71.8731 264.476L67.0936 266.644C66.9877 266.692 66.942 266.824 66.9936 266.938L67.556 268.178ZM62.5922 270.619L65.6661 264.21C65.7268 264.083 65.6577 263.931 65.522 263.893L58.6764 261.985C58.6349 261.973 58.5909 261.974 58.5495 261.986C58.5082 261.999 58.4713 262.023 58.4432 262.055C58.4151 262.088 58.3969 262.128 58.391 262.171C58.385 262.214 58.3914 262.257 58.4094 262.296L59.1441 263.916C59.1722 263.978 59.2238 264.023 59.2905 264.04L63.2075 265.135L61.4511 268.804C61.4368 268.834 61.4291 268.866 61.4285 268.899C61.4279 268.932 61.4344 268.965 61.4477 268.995L62.1823 270.615C62.262 270.791 62.5095 270.794 62.5922 270.619ZM70.3867 249.42L51.3721 258.043C50.9149 258.251 50.713 258.788 50.9204 259.245L59.5441 278.26C59.7515 278.717 60.2885 278.919 60.7458 278.711L79.7603 270.088C80.2176 269.88 80.4195 269.343 80.2121 268.886L71.5883 249.871C71.381 249.414 70.844 249.212 70.3867 249.42ZM77.8833 268.696L60.9355 276.383L53.2492 259.435L70.1969 251.749L77.8833 268.696Z" fill="#0EC281"/>
</g>
<g clip-path="url(#clip2_59_2979)">
<path d="M59.694 200.602L62.0613 201.107L61.556 203.474L59.1886 202.969L57.9251 208.887C57.7911 209.515 57.4131 210.064 56.8744 210.413C56.3356 210.763 55.6802 210.883 55.0524 210.749C55.6802 210.883 56.2291 211.261 56.5783 211.8C56.9275 212.339 57.0484 212.994 56.9144 213.622L55.6509 219.541L58.0183 220.046L57.5129 222.413L55.1455 221.908C53.9472 221.318 53.0056 220.337 53.2835 219.035L54.2943 214.3C54.4283 213.673 54.3074 213.017 53.9583 212.478C53.6091 211.94 53.0602 211.562 52.4323 211.428L51.2486 211.175L51.754 208.808L52.9377 209.06C53.5655 209.194 54.2209 209.073 54.7597 208.724C55.2984 208.375 55.6764 207.826 55.8104 207.198L56.8212 202.464C56.9552 201.836 57.3332 201.287 57.872 200.938C58.4107 200.588 59.0661 200.467 59.694 200.602ZM76.2656 204.139C76.8935 204.273 77.4424 204.651 77.7916 205.19C78.1408 205.729 78.2617 206.384 78.1276 207.012L77.1169 211.747C76.9828 212.375 77.1037 213.03 77.4529 213.569C77.8021 214.108 78.351 214.485 78.9789 214.62L80.1626 214.872L79.6572 217.24L78.4735 216.987C77.8456 216.853 77.1902 216.974 76.6515 217.323C76.1127 217.672 75.7347 218.221 75.6007 218.849L74.5899 223.584C74.4559 224.212 74.0779 224.76 73.5392 225.11C73.0004 225.459 72.345 225.58 71.7172 225.446L69.3498 224.94L69.8552 222.573L72.2226 223.078L73.486 217.16C73.6201 216.532 73.998 215.983 74.5368 215.634C75.0755 215.285 75.7309 215.164 76.3588 215.298C75.7309 215.164 75.182 214.786 74.8328 214.247C74.4836 213.708 74.3628 213.053 74.4968 212.425L75.7603 206.507L73.3929 206.001L73.8983 203.634L76.2656 204.139ZM64.9475 216.575C65.2614 216.642 65.5359 216.831 65.7105 217.1C65.8851 217.369 65.9455 217.697 65.8785 218.011C65.8115 218.325 65.6225 218.599 65.3531 218.774C65.0837 218.949 64.756 219.009 64.4421 218.942C64.1282 218.875 63.8537 218.686 63.6791 218.417C63.5045 218.147 63.4441 217.82 63.5111 217.506C63.5781 217.192 63.7671 216.917 64.0365 216.743C64.3059 216.568 64.6336 216.508 64.9475 216.575ZM60.2127 215.564C60.5267 215.631 60.8011 215.82 60.9757 216.089C61.1503 216.359 61.2108 216.686 61.1437 217C61.0767 217.314 60.8877 217.589 60.6184 217.763C60.349 217.938 60.0213 217.998 59.7074 217.931C59.3934 217.864 59.119 217.675 58.9444 217.406C58.7698 217.137 58.7093 216.809 58.7764 216.495C58.8434 216.181 59.0324 215.907 59.3017 215.732C59.5711 215.557 59.8988 215.497 60.2127 215.564ZM69.6823 217.585C69.9962 217.652 70.2706 217.841 70.4452 218.111C70.6198 218.38 70.6803 218.708 70.6133 219.022C70.5462 219.336 70.3573 219.61 70.0879 219.785C69.8185 219.959 69.4908 220.02 69.1769 219.953C68.8629 219.886 68.5885 219.697 68.4139 219.427C68.2393 219.158 68.1789 218.83 68.2459 218.516C68.3129 218.202 68.5019 217.928 68.7713 217.753C69.0406 217.579 69.3683 217.518 69.6823 217.585Z" fill="#0EC281"/>
</g>
<g clip-path="url(#clip3_59_2979)">
<path d="M112.616 285.149L110.163 294.516M116.363 286.13L113.91 295.497M109.07 287.223L118.437 289.676M108.089 290.97L117.456 293.423M107.353 293.78L106.501 293.959C105.587 294.152 104.638 294.108 103.745 293.831C102.852 293.554 102.045 293.053 101.4 292.376C100.755 291.699 100.294 290.869 100.061 289.963C99.8275 289.058 99.8296 288.108 100.067 287.204L100.232 286.574C100.469 285.67 100.933 284.841 101.58 284.167C102.227 283.492 103.036 282.995 103.929 282.721C104.823 282.447 105.772 282.405 106.686 282.601C107.6 282.797 108.449 283.223 109.152 283.839L109.806 284.413M94.9307 291.528L97.8742 280.287L110.832 276.674L120.355 286.175L117.412 297.415L104.454 301.028L94.9307 291.528Z" stroke="#0EC281" stroke-width="1.93658"/>
</g>
<path d="M112.537 157.756C112.209 157.801 111.891 157.926 111.63 158.126L103.409 164.474C102.878 164.885 102.604 165.563 102.693 166.229L103.953 175.567C104.044 176.241 104.487 176.814 105.108 177.069L107.629 178.103C108.838 178.508 109.242 178.453 109.755 178.384C111.437 178.157 112.263 177.011 112.025 175.248L110.726 165.612C110.717 165.543 110.68 165.481 110.625 165.438C110.569 165.396 110.499 165.377 110.43 165.387L109.305 165.538C109.271 165.543 109.238 165.554 109.207 165.571C109.177 165.588 109.151 165.611 109.13 165.639C109.109 165.666 109.094 165.698 109.085 165.732C109.076 165.765 109.074 165.8 109.08 165.834L110.378 175.461C110.484 176.252 109.77 177.136 108.359 176.658L105.722 175.575C105.675 175.558 105.633 175.528 105.602 175.488C105.571 175.449 105.551 175.402 105.545 175.352L104.287 166.023C104.272 165.915 104.314 165.818 104.397 165.751L112.618 159.403C112.656 159.371 112.703 159.351 112.752 159.344C112.802 159.338 112.852 159.345 112.897 159.366L122.506 163.309C122.604 163.351 122.67 163.434 122.683 163.533L123.942 172.871C123.956 172.97 123.915 173.076 123.84 173.132L115.611 179.49C115.571 179.518 115.525 179.536 115.476 179.543C115.428 179.549 115.378 179.544 115.332 179.528L112.855 178.479C112.821 178.46 112.783 178.452 112.744 178.454C112.706 178.456 112.668 178.468 112.637 178.49C112.046 178.936 111.935 178.997 111.37 179.284C111.232 179.348 111.019 179.469 111.503 179.66L114.718 181.021C115.028 181.145 115.364 181.191 115.688 181.147C116.021 181.102 116.332 180.969 116.598 180.768L124.828 174.41C125.359 173.999 125.635 173.33 125.544 172.655L124.286 163.326C124.195 162.651 123.751 162.079 123.13 161.824L113.511 157.872C113.205 157.749 112.866 157.712 112.537 157.756ZM115.907 164.635C113.361 164.979 111.986 166.263 112.229 168.063C112.492 170.015 114.076 170.349 116.556 170.262C119.518 170.155 119.802 170.559 119.879 171.134C120.013 172.124 119.269 172.655 117.389 172.908C115.023 173.227 114.421 172.703 114.092 171.557C114.075 171.497 114.038 171.446 113.986 171.413C113.934 171.379 113.872 171.366 113.811 171.375L112.651 171.531C112.584 171.54 112.523 171.575 112.483 171.629C112.442 171.683 112.424 171.75 112.433 171.817C112.635 173.32 113.695 174.999 117.6 174.473C120.425 174.092 121.894 172.758 121.632 170.815C121.372 168.89 119.998 168.553 117.214 168.553C114.385 168.568 114.081 168.416 113.994 167.769C113.921 167.229 114.068 166.485 116.119 166.209C117.945 165.963 118.682 166.266 119.127 167.461C119.17 167.574 119.281 167.651 119.407 167.634L120.568 167.478C120.64 167.468 120.698 167.423 120.745 167.362C120.766 167.332 120.78 167.299 120.786 167.263C120.792 167.227 120.79 167.191 120.781 167.156C120.315 165.057 118.768 164.25 115.907 164.635Z" fill="#0EC281"/>
<g clip-path="url(#clip4_59_2979)">
<path d="M103.772 208.305L98.3356 227.522L117.552 232.958L122.989 213.742L103.772 208.305ZM105.025 210.546L120.747 214.994L116.3 230.717L100.577 226.269L105.025 210.546ZM112.311 214.495C108.889 213.526 105.542 215.386 104.576 218.802C103.802 221.538 104.857 224.367 107.084 225.887C107.387 226.033 107.553 225.868 107.598 225.709C107.641 225.557 107.874 224.71 108.021 224.19C108.021 224.19 106.182 224.074 106.136 222.864C106.136 222.864 106.056 222.069 105.707 221.769C105.707 221.769 105.254 221.223 105.855 221.4C105.855 221.4 106.452 221.622 106.625 222.307C106.894 223.416 107.879 223.394 108.278 223.335C108.444 222.955 108.684 222.723 108.908 222.616C107.572 222.074 106.236 221.479 106.906 219.109C107.098 218.429 107.382 218.144 107.9 217.818C107.883 217.641 107.857 216.916 108.438 216.159C109.003 216.146 109.954 217.306 109.954 217.306C110.498 217.313 111.039 217.391 111.563 217.537C112.087 217.687 112.589 217.905 113.057 218.185C113.057 218.185 114.475 217.695 114.949 218.001C115.045 218.957 114.643 219.554 114.536 219.696C114.808 220.244 114.954 220.653 114.762 221.331C114.088 223.714 112.58 223.49 111.159 223.252C111.333 223.511 111.424 223.933 111.259 224.515C111.023 225.347 110.724 226.379 110.667 226.579C110.622 226.738 110.679 226.963 111.006 226.996C113.698 226.867 116.031 224.998 116.805 222.261C117.771 218.846 115.735 215.463 112.311 214.495ZM106.172 221.707C106.127 221.679 106.083 221.676 106.061 221.7C106.039 221.724 106.048 221.769 106.089 221.812C106.125 221.844 106.175 221.851 106.199 221.82C106.221 221.796 106.213 221.749 106.172 221.707ZM106.335 221.976C106.313 221.965 106.29 221.961 106.267 221.973C106.225 221.992 106.216 222.049 106.244 222.108C106.276 222.155 106.325 222.192 106.369 222.166C106.412 222.148 106.422 222.093 106.393 222.032C106.378 222.009 106.358 221.99 106.335 221.976ZM106.503 222.37C106.493 222.362 106.48 222.357 106.467 222.355C106.454 222.352 106.441 222.353 106.428 222.357C106.378 222.373 106.36 222.436 106.386 222.503C106.413 222.57 106.468 222.615 106.511 222.597C106.56 222.581 106.58 222.511 106.554 222.445C106.546 222.415 106.528 222.389 106.503 222.37ZM106.689 222.797C106.676 222.791 106.662 222.788 106.648 222.79C106.634 222.791 106.621 222.796 106.609 222.804C106.565 222.829 106.56 222.901 106.601 222.965C106.64 223.037 106.706 223.065 106.753 223.032C106.796 223.014 106.797 222.932 106.762 222.869C106.746 222.837 106.721 222.812 106.689 222.797ZM107.086 223.208C107.029 223.177 106.948 223.174 106.92 223.219C106.892 223.264 106.925 223.335 106.99 223.368C107.043 223.414 107.128 223.406 107.156 223.362C107.19 223.319 107.156 223.25 107.086 223.208ZM108.015 223.494C107.943 223.489 107.88 223.524 107.871 223.581C107.865 223.631 107.926 223.678 107.999 223.683C108.079 223.691 108.141 223.657 108.141 223.604C108.148 223.553 108.088 223.506 108.016 223.494L108.015 223.494ZM107.542 223.42C107.465 223.398 107.4 223.424 107.386 223.473C107.37 223.528 107.413 223.586 107.498 223.603C107.575 223.624 107.641 223.598 107.655 223.549C107.671 223.493 107.614 223.433 107.542 223.42Z" fill="#0EC281"/>
</g>
<g clip-path="url(#clip5_59_2979)">
<path d="M133.875 256.386L157.176 249.31L162.66 271.942L153.464 278.985L141.903 278.245L133.875 256.386ZM137.033 257.957L143.631 275.929L152.713 276.511L159.936 270.978L155.425 252.372L137.033 257.957ZM139.601 259.707L154.263 255.255L154.839 257.631L152.841 258.216L142.756 261.279L144.167 265.122L155.798 261.59L157.821 269.937L152.055 274.353L144.808 273.888L143.392 270.033L145.736 269.321L146.181 270.603L146.536 271.574L151.304 271.879L155.097 268.974L154.05 264.65L142.681 268.102L139.601 259.707Z" fill="#0EC281"/>
</g>
<g clip-path="url(#clip6_59_2979)">
<path d="M156.535 200.15L158.377 200.748M152.875 202.017L154.369 197.412C154.528 196.923 154.874 196.518 155.332 196.284C155.789 196.051 156.321 196.009 156.809 196.167L164.177 198.558C164.666 198.716 165.072 199.062 165.305 199.52C165.538 199.977 165.58 200.509 165.422 200.997L162.434 210.208C162.275 210.696 161.929 211.102 161.472 211.335C161.014 211.569 160.483 211.611 159.994 211.452L152.626 209.062C152.137 208.903 151.606 208.945 151.148 209.179C150.691 209.412 150.345 209.818 150.186 210.306L147.198 219.516C147.04 220.005 147.082 220.537 147.315 220.994C147.548 221.452 147.954 221.798 148.442 221.956L155.811 224.347C156.299 224.505 156.831 224.463 157.288 224.23C157.746 223.996 158.092 223.591 158.25 223.102L159.744 218.497M159.024 205.03L147.05 201.145C146.562 200.987 146.03 201.029 145.573 201.262C145.115 201.495 144.769 201.901 144.611 202.39L141.623 211.6C141.464 212.088 141.506 212.62 141.74 213.077C141.973 213.535 142.379 213.881 142.867 214.039L148.393 215.832M153.596 215.484L165.569 219.369C166.058 219.527 166.589 219.485 167.047 219.252C167.505 219.019 167.851 218.613 168.009 218.124L170.997 208.914C171.156 208.426 171.114 207.894 170.88 207.437C170.647 206.979 170.241 206.633 169.753 206.474L164.227 204.682M154.243 219.766L156.085 220.364" stroke="#0EC281" stroke-width="1.93658"/>
</g>
<g clip-path="url(#clip7_59_2979)">
<path d="M193.161 222.71L195.471 221.985L201.819 242.817L199.509 243.542L193.161 222.71ZM205.529 228.317L199.624 226.618L197.966 223.62L208.526 226.659L205.482 237.209L203.824 234.212L205.529 228.317ZM186.453 238.867L189.493 228.307L191.15 231.304L189.451 237.209L195.35 238.898L197.008 241.896L186.453 238.867Z" fill="#0EC281"/>
</g>
<g clip-path="url(#clip8_59_2979)">
<path d="M199.341 338.407C199.392 338.521 199.522 338.574 199.628 338.526L204.408 336.358C204.513 336.31 204.559 336.177 204.508 336.064L203.945 334.824C203.894 334.71 203.764 334.657 203.658 334.705L198.878 336.872C198.772 336.92 198.727 337.053 198.778 337.167L199.341 338.407ZM194.377 340.848L197.451 334.439C197.511 334.312 197.442 334.16 197.307 334.121L190.461 332.214C190.419 332.202 190.375 332.203 190.334 332.215C190.293 332.227 190.256 332.251 190.228 332.284C190.2 332.317 190.181 332.357 190.176 332.4C190.17 332.443 190.176 332.486 190.194 332.525L190.929 334.145C190.957 334.207 191.008 334.252 191.075 334.269L194.992 335.364L193.236 339.033C193.221 339.063 193.214 339.095 193.213 339.128C193.212 339.161 193.219 339.194 193.232 339.224L193.967 340.844C194.047 341.02 194.294 341.023 194.377 340.848ZM202.171 319.649L183.157 328.272C182.699 328.48 182.498 329.017 182.705 329.474L191.329 348.489C191.536 348.946 192.073 349.148 192.53 348.94L211.545 340.317C212.002 340.109 212.204 339.572 211.997 339.115L203.373 320.1C203.166 319.643 202.629 319.441 202.171 319.649ZM209.668 338.925L192.72 346.612L185.034 329.664L201.981 321.977L209.668 338.925Z" fill="#0EC281"/>
</g>
<g clip-path="url(#clip9_59_2979)">
<path d="M191.478 270.831L193.846 271.336L193.34 273.703L190.973 273.198L189.709 279.116C189.575 279.744 189.197 280.293 188.659 280.642C188.12 280.992 187.465 281.112 186.837 280.978C187.465 281.112 188.013 281.49 188.363 282.029C188.712 282.568 188.833 283.223 188.699 283.851L187.435 289.77L189.803 290.275L189.297 292.642L186.93 292.137C185.731 291.547 184.79 290.566 185.068 289.264L186.079 284.53C186.213 283.902 186.092 283.246 185.743 282.707C185.393 282.169 184.844 281.791 184.217 281.657L183.033 281.404L183.538 279.037L184.722 279.289C185.35 279.423 186.005 279.303 186.544 278.953C187.083 278.604 187.461 278.055 187.595 277.427L188.606 272.693C188.74 272.065 189.118 271.516 189.656 271.167C190.195 270.817 190.85 270.697 191.478 270.831ZM208.05 274.368C208.678 274.502 209.227 274.88 209.576 275.419C209.925 275.958 210.046 276.613 209.912 277.241L208.901 281.976C208.767 282.604 208.888 283.259 209.237 283.798C209.586 284.337 210.135 284.715 210.763 284.849L211.947 285.101L211.441 287.469L210.258 287.216C209.63 287.082 208.975 287.203 208.436 287.552C207.897 287.901 207.519 288.45 207.385 289.078L206.374 293.813C206.24 294.441 205.862 294.99 205.323 295.339C204.785 295.688 204.129 295.809 203.501 295.675L201.134 295.169L201.639 292.802L204.007 293.307L205.27 287.389C205.404 286.761 205.782 286.212 206.321 285.863C206.86 285.514 207.515 285.393 208.143 285.527C207.515 285.393 206.966 285.015 206.617 284.476C206.268 283.937 206.147 283.282 206.281 282.654L207.545 276.736L205.177 276.23L205.683 273.863L208.05 274.368ZM196.732 286.804C197.046 286.871 197.32 287.06 197.495 287.329C197.669 287.598 197.73 287.926 197.663 288.24C197.596 288.554 197.407 288.829 197.137 289.003C196.868 289.178 196.54 289.238 196.226 289.171C195.912 289.104 195.638 288.915 195.463 288.646C195.289 288.376 195.228 288.049 195.295 287.735C195.362 287.421 195.551 287.146 195.821 286.972C196.09 286.797 196.418 286.737 196.732 286.804ZM191.997 285.793C192.311 285.86 192.585 286.049 192.76 286.318C192.935 286.588 192.995 286.915 192.928 287.229C192.861 287.543 192.672 287.818 192.403 287.992C192.133 288.167 191.806 288.227 191.492 288.16C191.178 288.093 190.903 287.904 190.729 287.635C190.554 287.366 190.494 287.038 190.561 286.724C190.628 286.41 190.817 286.136 191.086 285.961C191.355 285.786 191.683 285.726 191.997 285.793ZM201.467 287.815C201.78 287.882 202.055 288.071 202.23 288.34C202.404 288.609 202.465 288.937 202.398 289.251C202.331 289.565 202.142 289.839 201.872 290.014C201.603 290.188 201.275 290.249 200.961 290.182C200.647 290.115 200.373 289.926 200.198 289.657C200.024 289.387 199.963 289.059 200.03 288.746C200.097 288.432 200.286 288.157 200.556 287.983C200.825 287.808 201.153 287.747 201.467 287.815Z" fill="#0EC281"/>
</g>
<g clip-path="url(#clip10_59_2979)">
<path d="M244.401 355.378L241.948 364.745M248.148 356.359L245.695 365.726M240.855 357.452L250.222 359.905M239.874 361.199L249.241 363.652M239.138 364.009L238.286 364.188C237.371 364.381 236.422 364.337 235.529 364.06C234.636 363.783 233.829 363.282 233.184 362.605C232.54 361.928 232.079 361.097 231.845 360.192C231.612 359.287 231.614 358.337 231.851 357.432L232.016 356.803C232.253 355.899 232.717 355.07 233.364 354.396C234.011 353.721 234.82 353.223 235.714 352.949C236.608 352.675 237.556 352.634 238.47 352.83C239.384 353.026 240.233 353.452 240.936 354.068L241.591 354.642M226.715 361.757L229.659 350.516L242.616 346.903L252.14 356.403L249.196 367.644L236.239 371.257L226.715 361.757Z" stroke="#0EC281" stroke-width="1.93658"/>
</g>
<path d="M244.322 227.985C243.993 228.029 243.676 228.155 243.414 228.355L235.194 234.703C234.663 235.113 234.388 235.792 234.478 236.457L235.737 245.796C235.828 246.47 236.271 247.042 236.892 247.298L239.413 248.332C240.622 248.737 241.027 248.682 241.539 248.613C243.222 248.386 244.047 247.24 243.81 245.476L242.51 235.841C242.501 235.772 242.464 235.709 242.409 235.667C242.353 235.625 242.283 235.606 242.214 235.616L241.09 235.767C241.055 235.771 241.022 235.782 240.992 235.8C240.962 235.817 240.935 235.84 240.914 235.868C240.893 235.895 240.878 235.927 240.869 235.96C240.861 235.994 240.859 236.029 240.864 236.063L242.162 245.689C242.269 246.481 241.554 247.365 240.143 246.887L237.506 245.804C237.459 245.787 237.418 245.757 237.386 245.717C237.355 245.678 237.335 245.631 237.329 245.581L236.071 236.252C236.057 236.144 236.098 236.046 236.181 235.98L244.403 229.632C244.441 229.6 244.487 229.58 244.537 229.573C244.586 229.566 244.636 229.574 244.681 229.595L254.291 233.538C254.388 233.58 254.454 233.663 254.467 233.762L255.727 243.1C255.74 243.199 255.699 243.305 255.624 243.361L247.395 249.719C247.355 249.747 247.309 249.765 247.26 249.772C247.212 249.778 247.163 249.773 247.116 249.757L244.639 248.708C244.605 248.689 244.567 248.681 244.528 248.683C244.49 248.684 244.453 248.697 244.421 248.719C243.831 249.165 243.72 249.226 243.154 249.513C243.016 249.577 242.803 249.697 243.287 249.889L246.503 251.25C246.812 251.373 247.148 251.42 247.472 251.376C247.805 251.331 248.117 251.197 248.383 250.997L256.612 244.638C257.143 244.228 257.419 243.559 257.328 242.884L256.07 233.555C255.979 232.88 255.535 232.308 254.915 232.053L245.295 228.101C244.989 227.978 244.651 227.941 244.322 227.985ZM247.691 234.864C245.145 235.208 243.77 236.492 244.013 238.291C244.276 240.244 245.86 240.578 248.34 240.491C251.303 240.384 251.586 240.788 251.664 241.363C251.797 242.353 251.053 242.884 249.173 243.137C246.807 243.456 246.205 242.932 245.877 241.786C245.86 241.726 245.822 241.675 245.77 241.642C245.719 241.608 245.656 241.595 245.596 241.604L244.435 241.76C244.368 241.769 244.308 241.804 244.267 241.858C244.226 241.911 244.208 241.979 244.217 242.046C244.42 243.548 245.48 245.228 249.384 244.702C252.209 244.321 253.678 242.987 253.416 241.044C253.156 239.118 251.783 238.782 248.998 238.782C246.17 238.797 245.865 238.645 245.778 237.997C245.705 237.458 245.852 236.714 247.903 236.438C249.73 236.191 250.467 236.495 250.912 237.69C250.955 237.803 251.066 237.88 251.192 237.863L252.352 237.706C252.424 237.697 252.482 237.652 252.529 237.591C252.55 237.561 252.564 237.527 252.57 237.492C252.577 237.456 252.575 237.419 252.565 237.384C252.099 235.286 250.552 234.478 247.691 234.864Z" fill="#0EC281"/>
<g clip-path="url(#clip11_59_2979)">
<path d="M235.556 278.534L230.12 297.751L249.336 303.187L254.773 283.97L235.556 278.534ZM236.809 280.775L252.532 285.223L248.084 300.946L232.361 296.498L236.809 280.775ZM244.096 284.724C240.673 283.755 237.326 285.615 236.36 289.031C235.586 291.767 236.641 294.596 238.868 296.115C239.171 296.262 239.337 296.097 239.382 295.938C239.425 295.786 239.658 294.939 239.806 294.419C239.806 294.419 237.966 294.303 237.92 293.092C237.92 293.092 237.84 292.298 237.491 291.998C237.491 291.998 237.038 291.452 237.639 291.629C237.639 291.629 238.236 291.851 238.409 292.536C238.678 293.645 239.663 293.622 240.062 293.564C240.228 293.184 240.468 292.952 240.692 292.845C239.356 292.303 238.02 291.708 238.69 289.338C238.882 288.658 239.166 288.372 239.685 288.047C239.667 287.87 239.641 287.144 240.222 286.388C240.787 286.375 241.738 287.535 241.738 287.535C242.282 287.542 242.823 287.619 243.347 287.766C243.871 287.916 244.373 288.134 244.841 288.414C244.841 288.414 246.259 287.924 246.733 288.23C246.829 289.186 246.427 289.783 246.32 289.925C246.592 290.473 246.738 290.882 246.546 291.56C245.872 293.943 244.364 293.719 242.943 293.481C243.117 293.74 243.208 294.162 243.043 294.744C242.808 295.576 242.508 296.608 242.451 296.808C242.406 296.967 242.463 297.192 242.79 297.225C245.482 297.096 247.815 295.227 248.589 292.49C249.555 289.075 247.519 285.692 244.096 284.724ZM237.956 291.936C237.911 291.908 237.867 291.905 237.845 291.929C237.823 291.953 237.832 291.998 237.873 292.041C237.909 292.072 237.959 292.08 237.983 292.049C238.005 292.025 237.997 291.978 237.956 291.936ZM238.119 292.205C238.097 292.194 238.074 292.19 238.052 292.202C238.009 292.22 238 292.277 238.028 292.337C238.06 292.384 238.109 292.42 238.154 292.395C238.196 292.377 238.206 292.321 238.178 292.261C238.162 292.238 238.142 292.219 238.119 292.205ZM238.287 292.599C238.277 292.591 238.264 292.586 238.251 292.584C238.238 292.581 238.225 292.582 238.212 292.586C238.162 292.602 238.144 292.665 238.171 292.732C238.197 292.799 238.252 292.844 238.295 292.826C238.344 292.81 238.364 292.74 238.338 292.674C238.33 292.644 238.312 292.618 238.287 292.599ZM238.473 293.026C238.461 293.02 238.446 293.017 238.432 293.019C238.418 293.02 238.405 293.025 238.393 293.033C238.349 293.058 238.344 293.129 238.385 293.194C238.424 293.265 238.49 293.293 238.537 293.261C238.58 293.243 238.581 293.161 238.546 293.098C238.531 293.066 238.505 293.041 238.473 293.026ZM238.87 293.437C238.813 293.406 238.732 293.403 238.704 293.448C238.676 293.493 238.709 293.564 238.774 293.597C238.827 293.643 238.912 293.635 238.94 293.591C238.975 293.548 238.94 293.479 238.87 293.437ZM239.799 293.723C239.727 293.718 239.664 293.753 239.655 293.81C239.649 293.86 239.71 293.906 239.783 293.912C239.863 293.92 239.925 293.886 239.925 293.832C239.932 293.782 239.872 293.735 239.8 293.723L239.799 293.723ZM239.326 293.649C239.249 293.627 239.184 293.653 239.17 293.702C239.154 293.757 239.197 293.815 239.282 293.832C239.359 293.853 239.425 293.827 239.439 293.778C239.455 293.722 239.398 293.662 239.326 293.649Z" fill="#0EC281"/>
</g>
<g clip-path="url(#clip12_59_2979)">
<path d="M265.66 326.615L288.96 319.54L294.444 342.171L285.249 349.214L273.688 348.474L265.66 326.615ZM268.817 328.186L275.416 346.158L284.497 346.74L291.72 341.207L287.21 322.601L268.817 328.186ZM271.385 329.936L286.047 325.484L286.623 327.86L284.625 328.446L274.54 331.508L275.951 335.351L287.583 331.819L289.605 340.166L283.84 344.582L276.592 344.117L275.176 340.262L277.52 339.55L277.965 340.832L278.32 341.803L283.088 342.108L286.881 339.203L285.834 334.879L274.466 338.331L271.385 329.936Z" fill="#0EC281"/>
</g>
<g clip-path="url(#clip13_59_2979)">
<path d="M288.319 270.379L290.161 270.977M284.66 272.246L286.154 267.641C286.312 267.152 286.658 266.747 287.116 266.513C287.573 266.28 288.105 266.238 288.593 266.396L295.962 268.787C296.45 268.945 296.856 269.292 297.089 269.749C297.323 270.207 297.365 270.738 297.206 271.227L294.218 280.437C294.06 280.926 293.713 281.331 293.256 281.564C292.798 281.798 292.267 281.84 291.778 281.681L284.41 279.291C283.922 279.132 283.39 279.174 282.933 279.408C282.475 279.641 282.129 280.047 281.97 280.535L278.982 289.746C278.824 290.234 278.866 290.766 279.099 291.223C279.333 291.681 279.738 292.027 280.227 292.185L287.595 294.576C288.084 294.734 288.615 294.692 289.073 294.459C289.53 294.225 289.876 293.82 290.035 293.331L291.529 288.726M290.808 275.259L278.835 271.374C278.346 271.216 277.815 271.258 277.357 271.491C276.9 271.725 276.554 272.13 276.395 272.619L273.407 281.829C273.248 282.318 273.291 282.849 273.524 283.307C273.757 283.764 274.163 284.11 274.651 284.269L280.178 286.062M285.38 285.714L297.354 289.598C297.842 289.757 298.374 289.714 298.831 289.481C299.289 289.248 299.635 288.842 299.793 288.354L302.782 279.143C302.94 278.655 302.898 278.123 302.665 277.666C302.431 277.208 302.026 276.862 301.537 276.704L296.011 274.911M286.027 289.995L287.869 290.593" stroke="#0EC281" stroke-width="1.93658"/>
</g>
<g clip-path="url(#clip14_59_2979)">
<path d="M153.737 48.4172L156.047 47.6928L162.396 68.5249L160.086 69.2494L153.737 48.4172ZM166.106 54.025L160.2 52.3255L158.542 49.3281L169.103 52.3672L166.058 62.9172L164.4 59.9198L166.106 54.025ZM147.03 64.575L150.069 54.0144L151.727 57.0118L150.027 62.9172L155.927 64.606L157.585 67.6035L147.03 64.575Z" fill="#0EC281"/>
</g>
<g clip-path="url(#clip15_59_2979)">
<path d="M159.917 164.115C159.969 164.228 160.099 164.282 160.205 164.234L164.984 162.066C165.09 162.018 165.136 161.885 165.084 161.771L164.522 160.531C164.47 160.418 164.34 160.364 164.234 160.412L159.455 162.58C159.349 162.628 159.303 162.761 159.355 162.875L159.917 164.115ZM154.953 166.556L158.027 160.147C158.088 160.02 158.019 159.867 157.883 159.829L151.037 157.922C150.996 157.91 150.952 157.91 150.911 157.923C150.869 157.935 150.832 157.959 150.804 157.992C150.776 158.025 150.758 158.065 150.752 158.107C150.746 158.15 150.752 158.194 150.771 158.233L151.505 159.853C151.533 159.915 151.585 159.96 151.652 159.976L155.569 161.072L153.812 164.74C153.798 164.77 153.79 164.803 153.79 164.836C153.789 164.869 153.796 164.902 153.809 164.932L154.543 166.552C154.623 166.728 154.871 166.731 154.953 166.556ZM162.748 145.356L143.733 153.98C143.276 154.187 143.074 154.724 143.281 155.182L151.905 174.196C152.113 174.654 152.65 174.855 153.107 174.648L172.121 166.024C172.579 165.817 172.781 165.28 172.573 164.823L163.949 145.808C163.742 145.351 163.205 145.149 162.748 145.356ZM170.244 164.633L153.297 172.319L145.61 155.371L162.558 147.685L170.244 164.633Z" fill="#0EC281"/>
</g>
<g clip-path="url(#clip16_59_2979)">
<path d="M152.055 96.5381L154.422 97.0435L153.917 99.4109L151.55 98.9055L150.286 104.824C150.152 105.452 149.774 106.001 149.235 106.35C148.697 106.699 148.041 106.82 147.413 106.686C148.041 106.82 148.59 107.198 148.939 107.737C149.289 108.275 149.409 108.931 149.275 109.559L148.012 115.477L150.379 115.983L149.874 118.35L147.507 117.845C146.308 117.255 145.367 116.274 145.645 114.972L146.655 110.237C146.789 109.609 146.669 108.954 146.319 108.415C145.97 107.876 145.421 107.498 144.793 107.364L143.61 107.112L144.115 104.744L145.299 104.997C145.927 105.131 146.582 105.01 147.121 104.661C147.66 104.312 148.037 103.763 148.172 103.135L149.182 98.4001C149.316 97.7722 149.694 97.2233 150.233 96.8741C150.772 96.5249 151.427 96.4041 152.055 96.5381ZM168.627 100.076C169.255 100.21 169.803 100.588 170.153 101.127C170.502 101.665 170.623 102.321 170.489 102.949L169.478 107.683C169.344 108.311 169.465 108.967 169.814 109.505C170.163 110.044 170.712 110.422 171.34 110.556L172.524 110.809L172.018 113.176L170.835 112.923C170.207 112.789 169.551 112.91 169.013 113.259C168.474 113.609 168.096 114.158 167.962 114.785L166.951 119.52C166.817 120.148 166.439 120.697 165.9 121.046C165.362 121.395 164.706 121.516 164.078 121.382L161.711 120.877L162.216 118.509L164.584 119.015L165.847 113.096C165.981 112.469 166.359 111.92 166.898 111.57C167.437 111.221 168.092 111.1 168.72 111.234C168.092 111.1 167.543 110.722 167.194 110.184C166.845 109.645 166.724 108.989 166.858 108.362L168.121 102.443L165.754 101.938L166.259 99.5704L168.627 100.076ZM157.309 112.511C157.623 112.578 157.897 112.767 158.072 113.037C158.246 113.306 158.307 113.634 158.24 113.948C158.173 114.262 157.984 114.536 157.714 114.711C157.445 114.885 157.117 114.946 156.803 114.879C156.489 114.812 156.215 114.623 156.04 114.353C155.866 114.084 155.805 113.756 155.872 113.442C155.939 113.128 156.128 112.854 156.398 112.679C156.667 112.505 156.995 112.444 157.309 112.511ZM152.574 111.5C152.888 111.567 153.162 111.756 153.337 112.026C153.511 112.295 153.572 112.623 153.505 112.937C153.438 113.251 153.249 113.525 152.979 113.7C152.71 113.874 152.382 113.935 152.068 113.868C151.755 113.801 151.48 113.612 151.305 113.342C151.131 113.073 151.07 112.745 151.137 112.431C151.204 112.118 151.393 111.843 151.663 111.668C151.932 111.494 152.26 111.433 152.574 111.5ZM162.043 113.522C162.357 113.589 162.632 113.778 162.806 114.047C162.981 114.317 163.041 114.644 162.974 114.958C162.907 115.272 162.718 115.547 162.449 115.721C162.18 115.896 161.852 115.956 161.538 115.889C161.224 115.822 160.95 115.633 160.775 115.364C160.6 115.095 160.54 114.767 160.607 114.453C160.674 114.139 160.863 113.865 161.132 113.69C161.402 113.515 161.729 113.455 162.043 113.522Z" fill="#0EC281"/>
</g>
<g clip-path="url(#clip17_59_2979)">
<path d="M204.977 181.085L202.524 190.453M208.724 182.067L206.271 191.434M201.431 183.16L210.798 185.613M200.45 186.907L209.817 189.359M199.714 189.717L198.863 189.896C197.948 190.089 196.999 190.045 196.106 189.768C195.213 189.491 194.406 188.99 193.761 188.313C193.116 187.636 192.655 186.805 192.422 185.9C192.189 184.994 192.191 184.044 192.428 183.14L192.593 182.511C192.83 181.607 193.294 180.778 193.941 180.103C194.588 179.429 195.397 178.931 196.29 178.657C197.184 178.383 198.133 178.342 199.047 178.538C199.961 178.734 200.81 179.16 201.513 179.776L202.167 180.35M187.292 187.464L190.235 176.224L203.193 172.611L212.716 182.111L209.773 193.352L196.815 196.965L187.292 187.464Z" stroke="#0EC281" stroke-width="1.93658"/>
</g>
<path d="M204.898 53.6929C204.57 53.7372 204.252 53.8625 203.991 54.0626L195.77 60.4106C195.24 60.8211 194.965 61.4994 195.054 62.1651L196.314 71.5032C196.405 72.178 196.848 72.7502 197.469 73.0054L199.99 74.0394C201.199 74.4443 201.603 74.3897 202.116 74.3206C203.799 74.0937 204.624 72.9473 204.386 71.1841L203.087 61.549C203.078 61.4799 203.041 61.4172 202.986 61.3749C202.93 61.3325 202.86 61.314 202.791 61.3233L201.666 61.475C201.632 61.4791 201.599 61.4902 201.569 61.5074C201.538 61.5246 201.512 61.5477 201.491 61.5753C201.47 61.6029 201.455 61.6345 201.446 61.6681C201.437 61.7017 201.436 61.7367 201.441 61.7711L202.739 71.3971C202.846 72.1888 202.131 73.0728 200.72 72.5944L198.083 71.512C198.036 71.4944 197.994 71.4643 197.963 71.4249C197.932 71.3855 197.912 71.3383 197.906 71.2885L196.648 61.9594C196.633 61.8514 196.675 61.7542 196.758 61.6881L204.979 55.3399C205.018 55.3079 205.064 55.2874 205.113 55.2807C205.163 55.2741 205.213 55.2816 205.258 55.3023L214.867 59.246C214.965 59.2878 215.031 59.3705 215.044 59.4695L216.303 68.8076C216.317 68.9066 216.276 69.0128 216.201 69.0687L207.972 75.427C207.932 75.4549 207.886 75.4729 207.837 75.4795C207.789 75.486 207.739 75.4809 207.693 75.4646L205.216 74.4156C205.182 74.397 205.144 74.3883 205.105 74.3903C205.067 74.3922 205.029 74.4048 204.998 74.4267C204.407 74.8727 204.297 74.9334 203.731 75.2204C203.593 75.2848 203.38 75.4051 203.864 75.5963L207.079 76.958C207.389 77.0811 207.725 77.1274 208.049 77.0838C208.382 77.0389 208.694 76.9052 208.96 76.7045L217.189 70.3462C217.72 69.9356 217.996 69.2664 217.905 68.5917L216.647 59.2625C216.556 58.5878 216.112 58.0156 215.492 57.7603L205.872 53.8089C205.566 53.6853 205.228 53.6485 204.898 53.6929ZM208.268 60.5719C205.722 60.9153 204.347 62.1998 204.59 63.9991C204.853 65.9513 206.437 66.2854 208.917 66.1984C211.879 66.092 212.163 66.4953 212.24 67.071C212.374 68.0606 211.63 68.5914 209.75 68.845C207.384 69.164 206.782 68.6397 206.453 67.4933C206.436 67.434 206.399 67.383 206.347 67.3495C206.295 67.316 206.233 67.3025 206.172 67.3113L205.012 67.4678C204.945 67.4768 204.885 67.512 204.844 67.5656C204.803 67.6192 204.785 67.6869 204.794 67.7537C204.996 69.2561 206.057 70.9359 209.961 70.4094C212.786 70.0285 214.255 68.6946 213.993 66.7514C213.733 64.8262 212.359 64.4893 209.575 64.4892C206.746 64.5043 206.442 64.3529 206.355 63.7052C206.282 63.1654 206.429 62.422 208.48 62.1454C210.306 61.8991 211.043 62.2027 211.489 63.3976C211.531 63.5109 211.642 63.5876 211.768 63.5706L212.929 63.4141C213.001 63.4044 213.059 63.3599 213.106 63.2986C213.127 63.269 213.141 63.2352 213.147 63.1995C213.153 63.1638 213.152 63.1272 213.142 63.0922C212.676 60.9934 211.129 60.1861 208.268 60.5719Z" fill="#0EC281"/>
<g clip-path="url(#clip18_59_2979)">
<path d="M196.133 104.242L190.696 123.459L209.913 128.895L215.35 109.678L196.133 104.242ZM197.385 106.483L213.108 110.931L208.66 126.654L192.938 122.206L197.385 106.483ZM204.672 110.431C201.25 109.463 197.903 111.323 196.937 114.738C196.163 117.475 197.218 120.304 199.445 121.823C199.748 121.969 199.914 121.805 199.959 121.646C200.002 121.494 200.235 120.647 200.382 120.127C200.382 120.127 198.543 120.01 198.496 118.8C198.496 118.8 198.416 118.006 198.067 117.705C198.067 117.705 197.615 117.159 198.216 117.337C198.216 117.337 198.813 117.558 198.986 118.243C199.255 119.352 200.24 119.33 200.639 119.271C200.805 118.892 201.045 118.66 201.269 118.552C199.933 118.01 198.597 117.415 199.267 115.045C199.459 114.366 199.743 114.08 200.261 113.755C200.244 113.577 200.218 112.852 200.799 112.096C201.364 112.083 202.315 113.243 202.315 113.243C202.859 113.25 203.4 113.327 203.924 113.473C204.448 113.624 204.95 113.842 205.418 114.121C205.418 114.121 206.836 113.632 207.31 113.938C207.406 114.893 207.004 115.491 206.897 115.632C207.168 116.181 207.315 116.589 207.123 117.268C206.449 119.651 204.941 119.427 203.519 119.189C203.693 119.448 203.784 119.87 203.62 120.451C203.384 121.284 203.085 122.315 203.028 122.516C202.983 122.675 203.04 122.899 203.367 122.933C206.059 122.804 208.392 120.934 209.166 118.198C210.132 114.782 208.096 111.4 204.672 110.431ZM198.533 117.643C198.488 117.616 198.444 117.613 198.422 117.637C198.4 117.661 198.409 117.705 198.45 117.748C198.486 117.78 198.536 117.788 198.559 117.757C198.581 117.733 198.574 117.685 198.533 117.643ZM198.695 117.913C198.674 117.901 198.651 117.898 198.628 117.91C198.585 117.928 198.577 117.985 198.605 118.045C198.637 118.092 198.685 118.128 198.73 118.103C198.773 118.085 198.782 118.029 198.754 117.968C198.739 117.946 198.719 117.927 198.695 117.913ZM198.864 118.307C198.853 118.299 198.841 118.294 198.828 118.291C198.815 118.289 198.802 118.29 198.789 118.293C198.739 118.309 198.721 118.373 198.747 118.44C198.774 118.507 198.829 118.552 198.872 118.534C198.921 118.517 198.94 118.447 198.915 118.382C198.907 118.352 198.889 118.325 198.864 118.307ZM199.05 118.733C199.037 118.727 199.023 118.725 199.009 118.726C198.995 118.728 198.981 118.733 198.97 118.741C198.926 118.766 198.921 118.837 198.962 118.902C199.001 118.973 199.067 119.001 199.114 118.969C199.156 118.951 199.158 118.868 199.123 118.806C199.107 118.774 199.082 118.748 199.05 118.733ZM199.447 119.144C199.39 119.113 199.308 119.111 199.281 119.156C199.253 119.201 199.286 119.271 199.351 119.305C199.404 119.35 199.489 119.342 199.517 119.298C199.551 119.256 199.517 119.187 199.447 119.144ZM200.375 119.431C200.303 119.425 200.241 119.461 200.232 119.518C200.225 119.568 200.287 119.614 200.36 119.62C200.44 119.627 200.502 119.594 200.502 119.54C200.509 119.489 200.448 119.443 200.376 119.431L200.375 119.431ZM199.903 119.357C199.826 119.335 199.76 119.361 199.747 119.409C199.731 119.464 199.774 119.523 199.859 119.539C199.936 119.561 200.002 119.534 200.016 119.486C200.031 119.43 199.975 119.369 199.903 119.357Z" fill="#0EC281"/>
</g>
<g clip-path="url(#clip19_59_2979)">
<path d="M226.236 152.322L249.537 145.247L255.021 167.879L245.825 174.921L234.264 174.182L226.236 152.322ZM229.394 153.894L235.992 171.866L245.074 172.447L252.297 166.915L247.786 148.308L229.394 153.894ZM231.962 155.644L246.624 151.191L247.2 153.568L245.202 154.153L235.117 157.215L236.528 161.059L248.159 157.527L250.182 165.873L244.416 170.289L237.169 169.825L235.753 165.969L238.097 165.257L238.542 166.539L238.897 167.51L243.665 167.815L247.458 164.91L246.411 160.586L235.042 164.038L231.962 155.644Z" fill="#0EC281"/>
</g>
<g clip-path="url(#clip20_59_2979)">
<path d="M248.896 96.0868L250.738 96.6844M245.236 97.9535L246.73 93.3483C246.889 92.8598 247.235 92.4542 247.693 92.2208C248.15 91.9875 248.682 91.9454 249.17 92.1039L256.538 94.4944C257.027 94.6529 257.433 94.999 257.666 95.4565C257.899 95.914 257.941 96.4455 257.783 96.9341L254.795 106.144C254.636 106.633 254.29 107.038 253.833 107.272C253.375 107.505 252.844 107.547 252.355 107.389L244.987 104.998C244.498 104.84 243.967 104.882 243.509 105.115C243.052 105.349 242.706 105.754 242.547 106.243L239.559 115.453C239.4 115.942 239.443 116.473 239.676 116.931C239.909 117.388 240.315 117.734 240.803 117.893L248.172 120.283C248.66 120.442 249.192 120.4 249.649 120.166C250.107 119.933 250.453 119.527 250.611 119.039L252.105 114.434M251.385 100.966L239.411 97.0816C238.923 96.9231 238.391 96.9652 237.934 97.1986C237.476 97.432 237.13 97.8375 236.972 98.3261L233.984 107.536C233.825 108.025 233.867 108.556 234.101 109.014C234.334 109.471 234.74 109.818 235.228 109.976L240.754 111.769M245.957 111.421L257.93 115.305C258.419 115.464 258.95 115.422 259.408 115.189C259.866 114.955 260.212 114.55 260.37 114.061L263.358 104.851C263.517 104.362 263.475 103.831 263.241 103.373C263.008 102.916 262.602 102.57 262.114 102.411L256.588 100.618M246.604 115.703L248.446 116.3" stroke="#0EC281" stroke-width="1.93658"/>
</g>
<g clip-path="url(#clip21_59_2979)">
<path d="M232.363 193.036L226.926 212.253L246.143 217.689L251.58 198.472L232.363 193.036ZM233.615 195.277L249.338 199.725L244.89 215.448L229.168 211L233.615 195.277ZM240.902 199.225C237.48 198.257 234.133 200.117 233.167 203.532C232.393 206.269 233.448 209.098 235.675 210.617C235.978 210.763 236.144 210.599 236.189 210.44C236.232 210.288 236.465 209.441 236.612 208.921C236.612 208.921 234.773 208.805 234.726 207.594C234.726 207.594 234.646 206.8 234.297 206.499C234.297 206.499 233.845 205.954 234.446 206.131C234.446 206.131 235.043 206.353 235.216 207.038C235.485 208.147 236.47 208.124 236.869 208.065C237.035 207.686 237.275 207.454 237.499 207.347C236.163 206.805 234.827 206.209 235.497 203.84C235.689 203.16 235.973 202.874 236.491 202.549C236.474 202.372 236.448 201.646 237.029 200.89C237.594 200.877 238.545 202.037 238.545 202.037C239.089 202.044 239.63 202.121 240.154 202.267C240.678 202.418 241.18 202.636 241.648 202.916C241.648 202.916 243.066 202.426 243.54 202.732C243.636 203.688 243.234 204.285 243.127 204.427C243.398 204.975 243.545 205.383 243.353 206.062C242.679 208.445 241.171 208.221 239.749 207.983C239.923 208.242 240.014 208.664 239.85 209.246C239.614 210.078 239.315 211.109 239.258 211.31C239.213 211.469 239.269 211.694 239.597 211.727C242.289 211.598 244.622 209.729 245.396 206.992C246.362 203.577 244.326 200.194 240.902 199.225ZM234.763 206.438C234.718 206.41 234.674 206.407 234.652 206.431C234.63 206.455 234.639 206.5 234.68 206.542C234.716 206.574 234.766 206.582 234.789 206.551C234.811 206.527 234.804 206.479 234.763 206.438ZM234.925 206.707C234.904 206.696 234.881 206.692 234.858 206.704C234.815 206.722 234.807 206.779 234.835 206.839C234.867 206.886 234.915 206.922 234.96 206.897C235.003 206.879 235.012 206.823 234.984 206.763C234.969 206.74 234.949 206.721 234.925 206.707ZM235.094 207.101C235.083 207.093 235.071 207.088 235.058 207.085C235.045 207.083 235.032 207.084 235.019 207.087C234.969 207.104 234.951 207.167 234.977 207.234C235.004 207.301 235.059 207.346 235.102 207.328C235.151 207.312 235.17 207.242 235.145 207.176C235.137 207.146 235.119 207.12 235.094 207.101ZM235.28 207.527C235.267 207.522 235.253 207.519 235.239 207.52C235.225 207.522 235.211 207.527 235.2 207.535C235.156 207.56 235.151 207.631 235.192 207.696C235.231 207.767 235.297 207.795 235.344 207.763C235.386 207.745 235.388 207.663 235.353 207.6C235.337 207.568 235.312 207.543 235.28 207.527ZM235.677 207.939C235.62 207.907 235.538 207.905 235.511 207.95C235.483 207.995 235.516 208.066 235.581 208.099C235.634 208.144 235.719 208.137 235.747 208.092C235.781 208.05 235.747 207.981 235.677 207.939ZM236.605 208.225C236.533 208.22 236.471 208.255 236.462 208.312C236.455 208.362 236.517 208.408 236.59 208.414C236.67 208.421 236.732 208.388 236.732 208.334C236.739 208.283 236.678 208.237 236.606 208.225L236.605 208.225ZM236.133 208.151C236.056 208.129 235.99 208.155 235.977 208.204C235.961 208.259 236.004 208.317 236.089 208.334C236.166 208.355 236.232 208.329 236.246 208.28C236.261 208.224 236.205 208.164 236.133 208.151Z" fill="#0EC281"/>
</g>
<g clip-path="url(#clip22_59_2979)">
<path d="M21.6348 9.6856L23.9451 8.96113L30.2936 29.7933L27.9833 30.5178L21.6348 9.6856ZM34.0033 15.2933L28.0979 13.5939L26.4401 10.5965L37.0007 13.6356L33.9558 24.1856L32.298 21.1881L34.0033 15.2933ZM14.9277 25.8433L17.9668 15.2827L19.6246 18.2802L17.9251 24.1855L23.8247 25.8744L25.4824 28.8718L14.9277 25.8433Z" fill="#0EC281"/>
</g>
<g clip-path="url(#clip23_59_2979)">
<path d="M21.2165 122.243C21.2681 122.357 21.3981 122.41 21.504 122.362L26.2835 120.194C26.3894 120.146 26.4351 120.013 26.3835 119.9L25.8211 118.66C25.7696 118.546 25.6395 118.493 25.5336 118.541L20.7541 120.708C20.6482 120.757 20.6026 120.889 20.6541 121.003L21.2165 122.243ZM16.2528 124.684L19.3266 118.275C19.3873 118.148 19.3182 117.996 19.1825 117.957L12.3369 116.05C12.2954 116.038 12.2514 116.039 12.2101 116.051C12.1687 116.063 12.1318 116.087 12.1037 116.12C12.0756 116.153 12.0575 116.193 12.0515 116.236C12.0455 116.279 12.0519 116.322 12.07 116.361L12.8046 117.981C12.8327 118.043 12.8844 118.088 12.951 118.105L16.868 119.2L15.1116 122.869C15.0973 122.899 15.0896 122.931 15.089 122.964C15.0884 122.997 15.0949 123.03 15.1082 123.06L15.8429 124.68C15.9225 124.856 16.17 124.859 16.2528 124.684ZM24.0472 103.485L5.03265 112.108C4.57537 112.316 4.37349 112.853 4.58088 113.31L13.2046 132.325C13.412 132.782 13.949 132.984 14.4063 132.776L33.4208 124.153C33.8781 123.945 34.08 123.408 33.8726 122.951L25.2489 103.936C25.0415 103.479 24.5045 103.277 24.0472 103.485ZM31.5438 122.761L14.5961 130.448L6.90968 113.5L23.8574 105.813L31.5438 122.761Z" fill="#0EC281"/>
</g>
<g clip-path="url(#clip24_59_2979)">
<path d="M19.9525 57.8067L22.3199 58.3121L21.8145 60.6795L19.4471 60.1741L18.1837 66.0925C18.0496 66.7204 17.6717 67.2693 17.1329 67.6185C16.5942 67.9677 15.9388 68.0886 15.3109 67.9545C15.9388 68.0886 16.4877 68.4665 16.8369 69.0053C17.1861 69.544 17.3069 70.1994 17.1729 70.8273L15.9094 76.7457L18.2768 77.2511L17.7714 79.6185L15.4041 79.1131C14.2057 78.5231 13.2641 77.5424 13.5421 76.2404L14.5528 71.5056C14.6869 70.8777 14.566 70.2223 14.2168 69.6836C13.8676 69.1448 13.3187 68.7669 12.6908 68.6328L11.5071 68.3801L12.0125 66.0128L13.1962 66.2654C13.8241 66.3995 14.4795 66.2786 15.0182 65.9294C15.557 65.5802 15.9349 65.0313 16.069 64.4034L17.0797 59.6687C17.2138 59.0408 17.5917 58.4919 18.1305 58.1427C18.6692 57.7935 19.3246 57.6727 19.9525 57.8067ZM36.5242 61.3444C37.152 61.4784 37.701 61.8564 38.0501 62.3951C38.3993 62.9339 38.5202 63.5893 38.3862 64.2171L37.3754 68.9519C37.2414 69.5798 37.3622 70.2352 37.7114 70.7739C38.0606 71.3127 38.6095 71.6906 39.2374 71.8247L40.4211 72.0774L39.9157 74.4447L38.732 74.192C38.1042 74.058 37.4488 74.1789 36.91 74.5281C36.3713 74.8773 35.9933 75.4262 35.8593 76.054L34.8485 80.7888C34.7145 81.4167 34.3365 81.9656 33.7977 82.3148C33.259 82.664 32.6036 82.7848 31.9757 82.6508L29.6083 82.1454L30.1137 79.778L32.4811 80.2834L33.7446 74.365C33.8786 73.7371 34.2566 73.1882 34.7953 72.839C35.3341 72.4898 35.9895 72.3689 36.6173 72.503C35.9895 72.3689 35.4406 71.991 35.0914 71.4522C34.7422 70.9135 34.6213 70.2581 34.7553 69.6302L36.0188 63.7118L33.6514 63.2064L34.1568 60.839L36.5242 61.3444ZM25.206 73.7798C25.52 73.8468 25.7944 74.0358 25.969 74.3052C26.1436 74.5746 26.2041 74.9023 26.137 75.2162C26.07 75.5301 25.881 75.8046 25.6117 75.9792C25.3423 76.1538 25.0146 76.2142 24.7007 76.1472C24.3867 76.0802 24.1123 75.8912 23.9377 75.6218C23.7631 75.3525 23.7026 75.0248 23.7697 74.7108C23.8367 74.3969 24.0257 74.1224 24.295 73.9478C24.5644 73.7732 24.8921 73.7128 25.206 73.7798ZM20.4713 72.7691C20.7852 72.8361 21.0597 73.0251 21.2343 73.2944C21.4089 73.5638 21.4693 73.8915 21.4023 74.2054C21.3353 74.5194 21.1463 74.7938 20.8769 74.9684C20.6075 75.143 20.2798 75.2034 19.9659 75.1364C19.652 75.0694 19.3775 74.8804 19.2029 74.6111C19.0283 74.3417 18.9679 74.014 19.0349 73.7C19.1019 73.3861 19.2909 73.1117 19.5603 72.9371C19.8296 72.7625 20.1573 72.702 20.4713 72.7691ZM29.9408 74.7906C30.2547 74.8576 30.5292 75.0466 30.7038 75.316C30.8784 75.5853 30.9388 75.913 30.8718 76.227C30.8048 76.5409 30.6158 76.8154 30.3464 76.99C30.0771 77.1646 29.7494 77.225 29.4354 77.158C29.1215 77.0909 28.847 76.902 28.6724 76.6326C28.4978 76.3632 28.4374 76.0355 28.5044 75.7216C28.5714 75.4077 28.7604 75.1332 29.0298 74.9586C29.2992 74.784 29.6269 74.7236 29.9408 74.7906Z" fill="#0EC281"/>
</g>
<g clip-path="url(#clip25_59_2979)">
<path d="M70.4263 117.081L67.9733 126.448M74.1731 118.063L71.7201 127.43M66.8803 119.156L76.2473 121.609M65.8991 122.902L75.2661 125.355M65.1632 125.713L64.3115 125.892C63.3967 126.085 62.4478 126.041 61.5549 125.764C60.662 125.486 59.8548 124.986 59.21 124.309C58.5652 123.632 58.1042 122.801 57.8709 121.896C57.6376 120.99 57.6397 120.04 57.8769 119.136L58.0418 118.507C58.2786 117.602 58.7427 116.774 59.3898 116.099C60.037 115.425 60.8458 114.927 61.7394 114.653C62.6331 114.379 63.5819 114.338 64.4959 114.534C65.4099 114.73 66.2587 115.156 66.9617 115.772L67.6162 116.346M52.7408 123.46L55.6843 112.22L68.6418 108.607L78.1652 118.107L75.2217 129.348L62.2641 132.961L52.7408 123.46Z" stroke="#0EC281" stroke-width="1.93658"/>
</g>
<path d="M72.7958 14.9613C72.4674 15.0056 72.15 15.1308 71.8884 15.331L63.6679 21.679C63.137 22.0895 62.8621 22.7677 62.9519 23.4335L64.2111 32.7716C64.3021 33.4463 64.7457 34.0185 65.3663 34.2738L67.8874 35.3078C69.0961 35.7127 69.5009 35.6581 70.0137 35.589C71.696 35.3621 72.5215 34.2157 72.2838 32.4524L70.9845 22.8174C70.9751 22.7482 70.9387 22.6856 70.8832 22.6432C70.8276 22.6009 70.7576 22.5824 70.6884 22.5917L69.5639 22.7433C69.5294 22.7475 69.4961 22.7585 69.466 22.7758C69.4359 22.793 69.4095 22.8161 69.3885 22.8437C69.3674 22.8713 69.3521 22.9028 69.3435 22.9365C69.3348 22.9701 69.333 23.0051 69.3381 23.0394L70.6362 32.6654C70.743 33.4571 70.0287 34.3412 68.6176 33.8628L65.9802 32.7804C65.9331 32.7628 65.8918 32.7327 65.8606 32.6933C65.8295 32.6539 65.8097 32.6067 65.8035 32.5569L64.5454 23.2277C64.5309 23.1198 64.5727 23.0225 64.6554 22.9564L72.8768 16.6083C72.915 16.5763 72.9614 16.5558 73.0108 16.5491C73.0602 16.5424 73.1104 16.5499 73.1557 16.5707L82.7649 20.5143C82.8622 20.5562 82.9283 20.6388 82.9416 20.7378L84.2009 30.076C84.2142 30.1749 84.1736 30.2812 84.0987 30.3371L75.8695 36.6954C75.8294 36.7233 75.7831 36.7413 75.7346 36.7478C75.6861 36.7544 75.6368 36.7493 75.5906 36.733L73.1134 35.6839C73.0795 35.6654 73.0412 35.6566 73.0027 35.6586C72.9641 35.6606 72.9269 35.6732 72.8951 35.695C72.3049 36.141 72.194 36.2018 71.6281 36.4888C71.4902 36.5531 71.2775 36.6734 71.7613 36.8647L74.9768 38.2264C75.2865 38.3495 75.6225 38.3958 75.9464 38.3521C76.2792 38.3072 76.591 38.1736 76.857 37.9728L85.0862 31.6145C85.6171 31.204 85.8932 30.5347 85.8022 29.86L84.5442 20.5309C84.4532 19.8561 84.0096 19.2839 83.389 19.0287L73.7695 15.0773C73.4634 14.9537 73.125 14.9169 72.7958 14.9613ZM76.1654 21.8403C73.6195 22.1836 72.2447 23.4682 72.4873 25.2674C72.7506 27.2196 74.3345 27.5538 76.8142 27.4667C79.7769 27.3603 80.0602 27.7636 80.1379 28.3394C80.2713 29.329 79.5277 29.8598 77.6475 30.1133C75.2814 30.4324 74.6795 29.9081 74.3508 28.7616C74.334 28.7024 74.2962 28.6513 74.2445 28.6179C74.1928 28.5844 74.1307 28.5708 74.0698 28.5797L72.9093 28.7362C72.8425 28.7452 72.782 28.7804 72.7411 28.834C72.7002 28.8876 72.6823 28.9552 72.6914 29.022C72.894 30.5244 73.954 32.2043 77.8584 31.6778C80.6833 31.2968 82.1522 29.9629 81.8901 28.0197C81.6305 26.0945 80.2569 25.7577 77.4723 25.7576C74.6439 25.7726 74.3395 25.6213 74.2522 24.9736C74.1794 24.4338 74.3265 23.6903 76.3776 23.4137C78.2039 23.1675 78.941 23.4711 79.386 24.666C79.4288 24.7793 79.5399 24.8559 79.6658 24.8389L80.8264 24.6824C80.8983 24.6727 80.9565 24.6282 81.0032 24.567C81.0241 24.5374 81.0382 24.5035 81.0445 24.4679C81.0507 24.4322 81.049 24.3955 81.0394 24.3606C80.5732 22.2617 79.0262 21.4545 76.1654 21.8403Z" fill="#0EC281"/>
<g clip-path="url(#clip26_59_2979)">
<path d="M64.0303 65.5102L58.594 84.727L77.8108 90.1633L83.2471 70.9464L64.0303 65.5102ZM65.2831 67.7513L81.0059 72.1992L76.558 87.9221L60.8352 83.4742L65.2831 67.7513ZM72.5699 71.6995C69.1476 70.7314 65.8007 72.5912 64.8345 76.0065C64.0603 78.7432 65.1158 81.5719 67.3425 83.0915C67.6455 83.2376 67.8118 83.0733 67.8568 82.9143C67.8998 82.7623 68.1329 81.9151 68.2799 81.3953C68.2799 81.3953 66.4402 81.2787 66.3939 80.0684C66.3939 80.0684 66.3139 79.2741 65.965 78.9735C65.965 78.9735 65.5128 78.4277 66.1135 78.6052C66.1135 78.6052 66.7103 78.8268 66.8835 79.5117C67.1528 80.6208 68.1374 80.5984 68.5361 80.5395C68.7029 80.1603 68.9422 79.928 69.1668 79.8208C67.8306 79.2786 66.4942 78.6836 67.1646 76.3138C67.3568 75.6342 67.6405 75.3484 68.1589 75.0234C68.1412 74.8457 68.1152 74.1205 68.6962 73.3641C69.2611 73.3512 70.2123 74.5109 70.2123 74.5109C70.7565 74.5179 71.2974 74.5954 71.8216 74.7416C72.3455 74.8922 72.8477 75.1101 73.3156 75.3897C73.3156 75.3897 74.7333 74.9002 75.2072 75.206C75.3039 76.1616 74.9018 76.7592 74.7948 76.9006C75.0661 77.4491 75.2128 77.8576 75.0208 78.5363C74.3467 80.9191 72.8383 80.6953 71.4169 80.4573C71.5909 80.716 71.6819 81.138 71.5174 81.7197C71.2819 82.5521 70.9826 83.5835 70.9257 83.7844C70.8808 83.9434 70.9371 84.1678 71.2645 84.201C73.9566 84.072 76.2892 82.2026 77.0634 79.466C78.0296 76.0506 75.9931 72.6679 72.5699 71.6995ZM66.4306 78.9118C66.3856 78.884 66.3412 78.8809 66.3193 78.9049C66.2974 78.9289 66.3064 78.9739 66.3472 79.0165C66.3834 79.0485 66.4332 79.056 66.457 79.025C66.4789 79.001 66.4716 78.9536 66.4306 78.9118ZM66.593 79.1814C66.5718 79.1697 66.5483 79.1659 66.5259 79.1784C66.4831 79.1965 66.4745 79.2535 66.5028 79.3134C66.5349 79.3602 66.5831 79.3965 66.6279 79.3714C66.6708 79.3533 66.68 79.2975 66.6519 79.2367C66.6368 79.2139 66.6167 79.1949 66.593 79.1814ZM66.7617 79.5753C66.7511 79.5674 66.7387 79.562 66.7257 79.5596C66.7126 79.5572 66.6992 79.5579 66.6864 79.5615C66.6365 79.5776 66.6185 79.6414 66.6449 79.7083C66.6712 79.7752 66.7265 79.8201 66.7693 79.802C66.8183 79.7856 66.838 79.7158 66.8123 79.65C66.8043 79.6201 66.7865 79.5938 66.7617 79.5753ZM66.9478 80.0015C66.9349 79.9957 66.9207 79.9933 66.9066 79.9946C66.8925 79.9959 66.879 80.0009 66.8674 80.009C66.8234 80.0343 66.8184 80.1055 66.8595 80.17C66.8988 80.2414 66.9644 80.2694 67.0112 80.2374C67.0541 80.2193 67.0557 80.1368 67.0206 80.074C67.0049 80.0422 66.9798 80.0169 66.9478 80.0015ZM67.3446 80.4128C67.2874 80.3816 67.206 80.3793 67.1782 80.4243C67.1504 80.4692 67.1832 80.5398 67.2483 80.5733C67.3015 80.6186 67.3868 80.6106 67.4143 80.5665C67.4489 80.5244 67.4147 80.4553 67.3446 80.4128ZM68.2731 80.6991C68.201 80.6938 68.1382 80.7289 68.1297 80.7859C68.1231 80.8359 68.1844 80.8825 68.2574 80.888C68.3373 80.8956 68.3996 80.8622 68.3997 80.8085C68.4065 80.7576 68.346 80.7112 68.2739 80.6993L68.2731 80.6991ZM67.8007 80.6249C67.7238 80.6031 67.658 80.6289 67.6442 80.6778C67.6286 80.7328 67.6715 80.7912 67.7565 80.8077C67.8334 80.8294 67.8994 80.8028 67.9132 80.7539C67.929 80.698 67.8725 80.6377 67.8007 80.6249Z" fill="#0EC281"/>
</g>
<g clip-path="url(#clip27_59_2979)">
<path d="M94.1339 113.591L117.435 106.516L122.918 129.147L113.723 136.19L102.162 135.45L94.1339 113.591ZM97.2914 115.162L103.89 133.134L112.972 133.716L120.194 128.183L115.684 109.577L97.2914 115.162ZM99.8594 116.912L114.521 112.46L115.098 114.836L113.1 115.421L103.015 118.484L104.426 122.327L116.057 118.795L118.079 127.142L112.314 131.558L105.066 131.093L103.65 127.238L105.994 126.526L106.439 127.808L106.795 128.779L111.563 129.084L115.356 126.179L114.308 121.855L102.94 125.307L99.8594 116.912Z" fill="#0EC281"/>
</g>
<g clip-path="url(#clip28_59_2979)">
<path d="M116.794 57.3554L118.636 57.953M113.134 59.2221L114.628 54.6169C114.787 54.1284 115.133 53.7228 115.59 53.4894C116.048 53.256 116.579 53.214 117.068 53.3725L124.436 55.763C124.925 55.9215 125.33 56.2675 125.563 56.7251C125.797 57.1826 125.839 57.7141 125.68 58.2026L122.692 67.413C122.534 67.9015 122.188 68.3071 121.73 68.5404C121.273 68.7738 120.741 68.8159 120.253 68.6574L112.884 66.2669C112.396 66.1084 111.864 66.1505 111.407 66.3839C110.949 66.6172 110.603 67.0228 110.445 67.5113L107.457 76.7216C107.298 77.2102 107.34 77.7417 107.574 78.1992C107.807 78.6568 108.212 79.0028 108.701 79.1613L116.069 81.5518C116.558 81.7103 117.089 81.6683 117.547 81.4349C118.004 81.2015 118.35 80.7959 118.509 80.3074L120.003 75.7022M119.282 62.2348L107.309 58.3502C106.82 58.1917 106.289 58.2338 105.831 58.4672C105.374 58.7006 105.028 59.1061 104.869 59.5947L101.881 68.805C101.723 69.2935 101.765 69.825 101.998 70.2826C102.232 70.7401 102.637 71.0862 103.126 71.2447L108.652 73.0375M113.855 72.6895L125.828 76.5741C126.317 76.7326 126.848 76.6905 127.306 76.4571C127.763 76.2237 128.109 75.8182 128.268 75.3296L131.256 66.1193C131.414 65.6308 131.372 65.0993 131.139 64.6417C130.905 64.1842 130.5 63.8381 130.011 63.6796L124.485 61.8868M114.501 76.9713L116.343 77.5689" stroke="#0EC281" stroke-width="1.93658"/>
</g>
<g clip-path="url(#clip29_59_2979)">
<path d="M284.456 127.955L286.767 127.231L293.115 148.063L290.805 148.787L284.456 127.955ZM296.825 133.563L290.919 131.863L289.262 128.866L299.822 131.905L296.777 142.455L295.12 139.458L296.825 133.563ZM277.749 144.113L280.788 133.552L282.446 136.55L280.747 142.455L286.646 144.144L288.304 147.141L277.749 144.113Z" fill="#0EC281"/>
</g>
<g clip-path="url(#clip30_59_2979)">
<path d="M284.038 240.513C284.089 240.626 284.22 240.679 284.325 240.631L289.105 238.464C289.211 238.416 289.256 238.283 289.205 238.169L288.643 236.929C288.591 236.815 288.461 236.762 288.355 236.81L283.576 238.978C283.47 239.026 283.424 239.159 283.476 239.273L284.038 240.513ZM279.074 242.954L282.148 236.545C282.209 236.418 282.14 236.265 282.004 236.227L275.158 234.32C275.117 234.308 275.073 234.308 275.031 234.321C274.99 234.333 274.953 234.357 274.925 234.39C274.897 234.422 274.879 234.463 274.873 234.505C274.867 234.548 274.873 234.592 274.891 234.631L275.626 236.251C275.654 236.313 275.706 236.358 275.772 236.374L279.689 237.47L277.933 241.138C277.919 241.168 277.911 241.201 277.91 241.234C277.91 241.267 277.916 241.3 277.93 241.33L278.664 242.95C278.744 243.125 278.991 243.128 279.074 242.954ZM286.869 221.754L267.854 230.378C267.397 230.585 267.195 231.122 267.402 231.58L276.026 250.594C276.233 251.051 276.77 251.253 277.228 251.046L296.242 242.422C296.7 242.215 296.901 241.678 296.694 241.22L288.07 222.206C287.863 221.749 287.326 221.547 286.869 221.754ZM294.365 241.031L277.417 248.717L269.731 231.769L286.679 224.083L294.365 241.031Z" fill="#0EC281"/>
</g>
<g clip-path="url(#clip31_59_2979)">
<path d="M282.774 176.076L285.141 176.582L284.636 178.949L282.269 178.444L281.005 184.362C280.871 184.99 280.493 185.539 279.954 185.888C279.416 186.237 278.76 186.358 278.132 186.224C278.76 186.358 279.309 186.736 279.658 187.275C280.008 187.814 280.128 188.469 279.994 189.097L278.731 195.015L281.098 195.521L280.593 197.888L278.226 197.383C277.027 196.793 276.086 195.812 276.364 194.51L277.374 189.775C277.508 189.147 277.388 188.492 277.038 187.953C276.689 187.414 276.14 187.036 275.512 186.902L274.329 186.65L274.834 184.282L276.018 184.535C276.646 184.669 277.301 184.548 277.84 184.199C278.379 183.85 278.756 183.301 278.891 182.673L279.901 177.938C280.035 177.31 280.413 176.761 280.952 176.412C281.491 176.063 282.146 175.942 282.774 176.076ZM299.346 179.614C299.974 179.748 300.522 180.126 300.872 180.665C301.221 181.203 301.342 181.859 301.208 182.487L300.197 187.221C300.063 187.849 300.184 188.505 300.533 189.043C300.882 189.582 301.431 189.96 302.059 190.094L303.243 190.347L302.737 192.714L301.554 192.462C300.926 192.328 300.27 192.448 299.732 192.798C299.193 193.147 298.815 193.696 298.681 194.324L297.67 199.058C297.536 199.686 297.158 200.235 296.619 200.584C296.081 200.933 295.425 201.054 294.797 200.92L292.43 200.415L292.935 198.048L295.303 198.553L296.566 192.634C296.7 192.007 297.078 191.458 297.617 191.109C298.156 190.759 298.811 190.638 299.439 190.772C298.811 190.638 298.262 190.26 297.913 189.722C297.564 189.183 297.443 188.528 297.577 187.9L298.84 181.981L296.473 181.476L296.978 179.109L299.346 179.614ZM288.028 192.049C288.342 192.116 288.616 192.305 288.791 192.575C288.965 192.844 289.026 193.172 288.959 193.486C288.892 193.8 288.703 194.074 288.433 194.249C288.164 194.423 287.836 194.484 287.522 194.417C287.208 194.35 286.934 194.161 286.759 193.891C286.585 193.622 286.524 193.294 286.591 192.98C286.658 192.666 286.847 192.392 287.117 192.217C287.386 192.043 287.714 191.982 288.028 192.049ZM283.293 191.039C283.607 191.106 283.881 191.295 284.056 191.564C284.23 191.833 284.291 192.161 284.224 192.475C284.157 192.789 283.968 193.063 283.698 193.238C283.429 193.413 283.101 193.473 282.787 193.406C282.473 193.339 282.199 193.15 282.024 192.881C281.85 192.611 281.789 192.283 281.856 191.97C281.923 191.656 282.112 191.381 282.382 191.207C282.651 191.032 282.979 190.972 283.293 191.039ZM292.762 193.06C293.076 193.127 293.351 193.316 293.525 193.585C293.7 193.855 293.76 194.183 293.693 194.496C293.626 194.81 293.437 195.085 293.168 195.259C292.899 195.434 292.571 195.494 292.257 195.427C291.943 195.36 291.669 195.171 291.494 194.902C291.319 194.633 291.259 194.305 291.326 193.991C291.393 193.677 291.582 193.403 291.851 193.228C292.121 193.054 292.448 192.993 292.762 193.06Z" fill="#0EC281"/>
</g>
<g clip-path="url(#clip32_59_2979)">
<path d="M333.248 235.351L330.795 244.718M336.995 236.332L334.542 245.699M329.702 237.425L339.069 239.878M328.721 241.172L338.088 243.625M327.985 243.982L327.133 244.161C326.218 244.354 325.269 244.31 324.376 244.033C323.484 243.756 322.676 243.255 322.032 242.578C321.387 241.901 320.926 241.071 320.692 240.165C320.459 239.26 320.461 238.31 320.698 237.406L320.863 236.776C321.1 235.872 321.564 235.043 322.211 234.369C322.859 233.694 323.667 233.197 324.561 232.923C325.455 232.649 326.403 232.607 327.317 232.803C328.231 232.999 329.08 233.425 329.783 234.041L330.438 234.615M315.562 241.73L318.506 230.489L331.463 226.876L340.987 236.377L338.043 247.617L325.086 251.23L315.562 241.73Z" stroke="#0EC281" stroke-width="1.93658"/>
</g>
<path d="M335.617 133.231C335.289 133.275 334.971 133.401 334.71 133.601L326.489 139.949C325.959 140.359 325.684 141.037 325.773 141.703L327.033 151.041C327.124 151.716 327.567 152.288 328.188 152.543L330.709 153.578C331.918 153.982 332.322 153.928 332.835 153.859C334.518 153.632 335.343 152.485 335.105 150.722L333.806 141.087C333.797 141.018 333.76 140.955 333.705 140.913C333.649 140.871 333.579 140.852 333.51 140.861L332.385 141.013C332.351 141.017 332.318 141.028 332.288 141.045C332.257 141.063 332.231 141.086 332.21 141.113C332.189 141.141 332.174 141.173 332.165 141.206C332.156 141.24 332.155 141.275 332.16 141.309L333.458 150.935C333.565 151.727 332.85 152.611 331.439 152.133L328.802 151.05C328.755 151.033 328.713 151.002 328.682 150.963C328.651 150.924 328.631 150.876 328.625 150.827L327.367 141.497C327.352 141.39 327.394 141.292 327.477 141.226L335.698 134.878C335.736 134.846 335.783 134.825 335.832 134.819C335.882 134.812 335.932 134.82 335.977 134.84L345.586 138.784C345.684 138.826 345.75 138.909 345.763 139.008L347.022 148.346C347.036 148.445 346.995 148.551 346.92 148.607L338.691 154.965C338.651 154.993 338.605 155.011 338.556 155.018C338.508 155.024 338.458 155.019 338.412 155.003L335.935 153.954C335.901 153.935 335.863 153.926 335.824 153.928C335.786 153.93 335.748 153.943 335.717 153.965C335.126 154.411 335.016 154.472 334.45 154.758C334.312 154.823 334.099 154.943 334.583 155.134L337.798 156.496C338.108 156.619 338.444 156.666 338.768 156.622C339.101 156.577 339.413 156.443 339.679 156.243L347.908 149.884C348.439 149.474 348.715 148.804 348.624 148.13L347.366 138.801C347.275 138.126 346.831 137.554 346.211 137.298L336.591 133.347C336.285 133.223 335.947 133.187 335.617 133.231ZM338.987 140.11C336.441 140.453 335.066 141.738 335.309 143.537C335.572 145.489 337.156 145.824 339.636 145.736C342.598 145.63 342.882 146.033 342.959 146.609C343.093 147.599 342.349 148.13 340.469 148.383C338.103 148.702 337.501 148.178 337.172 147.031C337.155 146.972 337.118 146.921 337.066 146.888C337.014 146.854 336.952 146.841 336.891 146.849L335.731 147.006C335.664 147.015 335.604 147.05 335.563 147.104C335.522 147.157 335.504 147.225 335.513 147.292C335.715 148.794 336.776 150.474 340.68 149.948C343.505 149.567 344.974 148.233 344.712 146.289C344.452 144.364 343.078 144.027 340.294 144.027C337.465 144.042 337.161 143.891 337.074 143.243C337.001 142.704 337.148 141.96 339.199 141.683C341.025 141.437 341.762 141.741 342.208 142.936C342.25 143.049 342.361 143.126 342.487 143.109L343.648 142.952C343.72 142.942 343.778 142.898 343.825 142.837C343.846 142.807 343.86 142.773 343.866 142.738C343.872 142.702 343.871 142.665 343.861 142.63C343.395 140.531 341.848 139.724 338.987 140.11Z" fill="#0EC281"/>
<g clip-path="url(#clip33_59_2979)">
<path d="M326.852 183.78L321.415 202.997L340.632 208.433L346.069 189.216L326.852 183.78ZM328.104 186.021L343.827 190.469L339.379 206.192L323.657 201.744L328.104 186.021ZM335.391 189.969C331.969 189.001 328.622 190.861 327.656 194.276C326.882 197.013 327.937 199.842 330.164 201.361C330.467 201.507 330.633 201.343 330.678 201.184C330.721 201.032 330.954 200.185 331.101 199.665C331.101 199.665 329.262 199.548 329.215 198.338C329.215 198.338 329.135 197.544 328.786 197.243C328.786 197.243 328.334 196.697 328.935 196.875C328.935 196.875 329.532 197.097 329.705 197.781C329.974 198.891 330.959 198.868 331.358 198.809C331.524 198.43 331.764 198.198 331.988 198.091C330.652 197.548 329.316 196.953 329.986 194.584C330.178 193.904 330.462 193.618 330.98 193.293C330.963 193.115 330.937 192.39 331.518 191.634C332.083 191.621 333.034 192.781 333.034 192.781C333.578 192.788 334.119 192.865 334.643 193.011C335.167 193.162 335.669 193.38 336.137 193.659C336.137 193.659 337.555 193.17 338.029 193.476C338.125 194.431 337.723 195.029 337.616 195.17C337.887 195.719 338.034 196.127 337.842 196.806C337.168 199.189 335.66 198.965 334.238 198.727C334.412 198.986 334.503 199.408 334.339 199.989C334.103 200.822 333.804 201.853 333.747 202.054C333.702 202.213 333.758 202.438 334.086 202.471C336.778 202.342 339.111 200.472 339.885 197.736C340.851 194.32 338.815 190.938 335.391 189.969ZM329.252 197.182C329.207 197.154 329.163 197.151 329.141 197.175C329.119 197.199 329.128 197.244 329.169 197.286C329.205 197.318 329.255 197.326 329.278 197.295C329.3 197.271 329.293 197.223 329.252 197.182ZM329.414 197.451C329.393 197.439 329.37 197.436 329.347 197.448C329.304 197.466 329.296 197.523 329.324 197.583C329.356 197.63 329.404 197.666 329.449 197.641C329.492 197.623 329.501 197.567 329.473 197.506C329.458 197.484 329.438 197.465 329.414 197.451ZM329.583 197.845C329.572 197.837 329.56 197.832 329.547 197.829C329.534 197.827 329.521 197.828 329.508 197.831C329.458 197.847 329.44 197.911 329.466 197.978C329.493 198.045 329.548 198.09 329.591 198.072C329.64 198.055 329.659 197.986 329.634 197.92C329.626 197.89 329.608 197.864 329.583 197.845ZM329.769 198.271C329.756 198.265 329.742 198.263 329.728 198.264C329.714 198.266 329.7 198.271 329.689 198.279C329.645 198.304 329.64 198.375 329.681 198.44C329.72 198.511 329.786 198.539 329.833 198.507C329.875 198.489 329.877 198.407 329.842 198.344C329.826 198.312 329.801 198.287 329.769 198.271ZM330.166 198.683C330.109 198.651 330.027 198.649 330 198.694C329.972 198.739 330.005 198.81 330.07 198.843C330.123 198.888 330.208 198.88 330.236 198.836C330.27 198.794 330.236 198.725 330.166 198.683ZM331.094 198.969C331.022 198.964 330.96 198.999 330.951 199.056C330.944 199.106 331.006 199.152 331.079 199.158C331.159 199.165 331.221 199.132 331.221 199.078C331.228 199.027 331.167 198.981 331.095 198.969L331.094 198.969ZM330.622 198.895C330.545 198.873 330.479 198.899 330.466 198.948C330.45 199.003 330.493 199.061 330.578 199.077C330.655 199.099 330.721 199.073 330.735 199.024C330.75 198.968 330.694 198.907 330.622 198.895Z" fill="#0EC281"/>
</g>
<g clip-path="url(#clip34_59_2979)">
<path d="M356.955 231.861L380.256 224.785L385.74 247.417L376.544 254.46L364.983 253.72L356.955 231.861ZM360.113 233.432L366.711 251.404L375.793 251.986L383.016 246.453L378.505 227.847L360.113 233.432ZM362.681 235.182L377.343 230.73L377.919 233.106L375.921 233.691L365.836 236.754L367.247 240.597L378.878 237.065L380.901 245.412L375.135 249.828L367.888 249.363L366.472 245.508L368.816 244.796L369.261 246.078L369.616 247.049L374.384 247.354L378.177 244.449L377.13 240.125L365.761 243.577L362.681 235.182Z" fill="#0EC281"/>
</g>
<g clip-path="url(#clip35_59_2979)">
<path d="M379.615 175.625L381.457 176.223M375.955 177.492L377.449 172.886C377.608 172.398 377.954 171.992 378.412 171.759C378.869 171.526 379.401 171.483 379.889 171.642L387.257 174.032C387.746 174.191 388.151 174.537 388.385 174.995C388.618 175.452 388.66 175.984 388.502 176.472L385.514 185.682C385.355 186.171 385.009 186.577 384.552 186.81C384.094 187.043 383.563 187.085 383.074 186.927L375.706 184.536C375.217 184.378 374.686 184.42 374.228 184.653C373.771 184.887 373.425 185.292 373.266 185.781L370.278 194.991C370.119 195.48 370.162 196.011 370.395 196.469C370.628 196.926 371.034 197.272 371.522 197.431L378.891 199.821C379.379 199.98 379.911 199.938 380.368 199.704C380.826 199.471 381.172 199.065 381.33 198.577L382.824 193.972M382.104 180.504L370.13 176.62C369.642 176.461 369.11 176.503 368.653 176.737C368.195 176.97 367.849 177.376 367.691 177.864L364.703 187.074C364.544 187.563 364.586 188.095 364.82 188.552C365.053 189.01 365.459 189.356 365.947 189.514L371.473 191.307M376.676 190.959L388.649 194.844C389.138 195.002 389.669 194.96 390.127 194.727C390.585 194.493 390.931 194.088 391.089 193.599L394.077 184.389C394.236 183.9 394.194 183.369 393.96 182.911C393.727 182.454 393.321 182.108 392.833 181.949L387.307 180.156M377.323 195.241L379.165 195.838" stroke="#0EC281" stroke-width="1.93658"/>
</g>
</mask>
<g mask="url(#mask0_59_2979)">
<rect x="-13.8328" y="-13.8327" width="424.664" height="403.915" fill="url(#paint0_radial_59_2979)"/>
</g>
<defs>
<radialGradient id="paint0_radial_59_2979" cx="0" cy="0" r="1" gradientUnits="userSpaceOnUse" gradientTransform="translate(198.499 188.125) rotate(90) scale(222.707 255.098)">
<stop stop-color="#0EC281"/>
<stop offset="1" stop-color="#075C3D" stop-opacity="0"/>
</radialGradient>
<clipPath id="clip0_59_2979">
<rect width="29.0487" height="29.0487" fill="white" transform="translate(45.9661 156.854) rotate(-28.9453)"/>
</clipPath>
<clipPath id="clip1_59_2979">
<rect width="29.0487" height="29.0487" fill="white" transform="translate(46.3396 256.837) rotate(-24.3959)"/>
</clipPath>
<clipPath id="clip2_59_2979">
<rect width="29.0487" height="29.0487" fill="white" transform="translate(54.5334 195.787) rotate(12.0505)"/>
</clipPath>
<clipPath id="clip3_59_2979">
<rect width="29.0487" height="29.0487" fill="white" transform="translate(97.2717 271.121) rotate(14.6746)"/>
</clipPath>
<clipPath id="clip4_59_2979">
<rect width="29.0487" height="29.0487" fill="white" transform="translate(100.64 202.702) rotate(15.7958)"/>
</clipPath>
<clipPath id="clip5_59_2979">
<rect width="29.0487" height="29.0487" fill="white" transform="translate(131.276 255.91) rotate(-16.8916)"/>
</clipPath>
<clipPath id="clip6_59_2979">
<rect width="29.0487" height="29.0487" fill="white" transform="translate(146.977 191.959) rotate(17.9747)"/>
</clipPath>
<clipPath id="clip7_59_2979">
<rect width="29.0487" height="29.0487" fill="white" transform="translate(177.75 227.083) rotate(-28.9453)"/>
</clipPath>
<clipPath id="clip8_59_2979">
<rect width="29.0487" height="29.0487" fill="white" transform="translate(178.124 327.066) rotate(-24.3959)"/>
</clipPath>
<clipPath id="clip9_59_2979">
<rect width="29.0487" height="29.0487" fill="white" transform="translate(186.318 266.016) rotate(12.0505)"/>
</clipPath>
<clipPath id="clip10_59_2979">
<rect width="29.0487" height="29.0487" fill="white" transform="translate(229.056 341.35) rotate(14.6746)"/>
</clipPath>
<clipPath id="clip11_59_2979">
<rect width="29.0487" height="29.0487" fill="white" transform="translate(232.424 272.931) rotate(15.7958)"/>
</clipPath>
<clipPath id="clip12_59_2979">
<rect width="29.0487" height="29.0487" fill="white" transform="translate(263.06 326.14) rotate(-16.8916)"/>
</clipPath>
<clipPath id="clip13_59_2979">
<rect width="29.0487" height="29.0487" fill="white" transform="translate(278.761 262.189) rotate(17.9747)"/>
</clipPath>
<clipPath id="clip14_59_2979">
<rect width="29.0487" height="29.0487" fill="white" transform="translate(138.327 52.7903) rotate(-28.9453)"/>
</clipPath>
<clipPath id="clip15_59_2979">
<rect width="29.0487" height="29.0487" fill="white" transform="translate(138.701 152.774) rotate(-24.3959)"/>
</clipPath>
<clipPath id="clip16_59_2979">
<rect width="29.0487" height="29.0487" fill="white" transform="translate(146.895 91.7237) rotate(12.0505)"/>
</clipPath>
<clipPath id="clip17_59_2979">
<rect width="29.0487" height="29.0487" fill="white" transform="translate(189.633 167.058) rotate(14.6746)"/>
</clipPath>
<clipPath id="clip18_59_2979">
<rect width="29.0487" height="29.0487" fill="white" transform="translate(193.001 98.6387) rotate(15.7958)"/>
</clipPath>
<clipPath id="clip19_59_2979">
<rect width="29.0487" height="29.0487" fill="white" transform="translate(223.637 151.847) rotate(-16.8916)"/>
</clipPath>
<clipPath id="clip20_59_2979">
<rect width="29.0487" height="29.0487" fill="white" transform="translate(239.338 87.8961) rotate(17.9747)"/>
</clipPath>
<clipPath id="clip21_59_2979">
<rect width="29.0487" height="29.0487" fill="white" transform="translate(229.231 187.433) rotate(15.7958)"/>
</clipPath>
<clipPath id="clip22_59_2979">
<rect width="29.0487" height="29.0487" fill="white" transform="translate(6.22473 14.0588) rotate(-28.9453)"/>
</clipPath>
<clipPath id="clip23_59_2979">
<rect width="29.0487" height="29.0487" fill="white" transform="translate(0 110.902) rotate(-24.3959)"/>
</clipPath>
<clipPath id="clip24_59_2979">
<rect width="29.0487" height="29.0487" fill="white" transform="translate(14.7921 52.9922) rotate(12.0505)"/>
</clipPath>
<clipPath id="clip25_59_2979">
<rect width="29.0487" height="29.0487" fill="white" transform="translate(55.0818 103.054) rotate(14.6746)"/>
</clipPath>
<clipPath id="clip26_59_2979">
<rect width="29.0487" height="29.0487" fill="white" transform="translate(60.8984 59.9072) rotate(15.7958)"/>
</clipPath>
<clipPath id="clip27_59_2979">
<rect width="29.0487" height="29.0487" fill="white" transform="translate(91.5343 113.116) rotate(-16.8916)"/>
</clipPath>
<clipPath id="clip28_59_2979">
<rect width="29.0487" height="29.0487" fill="white" transform="translate(107.235 49.1646) rotate(17.9747)"/>
</clipPath>
<clipPath id="clip29_59_2979">
<rect width="29.0487" height="29.0487" fill="white" transform="translate(269.046 132.328) rotate(-28.9453)"/>
</clipPath>
<clipPath id="clip30_59_2979">
<rect width="29.0487" height="29.0487" fill="white" transform="translate(262.822 229.172) rotate(-24.3959)"/>
</clipPath>
<clipPath id="clip31_59_2979">
<rect width="29.0487" height="29.0487" fill="white" transform="translate(277.614 171.262) rotate(12.0505)"/>
</clipPath>
<clipPath id="clip32_59_2979">
<rect width="29.0487" height="29.0487" fill="white" transform="translate(317.903 221.323) rotate(14.6746)"/>
</clipPath>
<clipPath id="clip33_59_2979">
<rect width="29.0487" height="29.0487" fill="white" transform="translate(323.72 178.177) rotate(15.7958)"/>
</clipPath>
<clipPath id="clip34_59_2979">
<rect width="29.0487" height="29.0487" fill="white" transform="translate(354.356 231.385) rotate(-16.8916)"/>
</clipPath>
<clipPath id="clip35_59_2979">
<rect width="29.0487" height="29.0487" fill="white" transform="translate(370.057 167.434) rotate(17.9747)"/>
</clipPath>
</defs>
</svg>
