<svg width="39" height="38" viewBox="0 0 39 38" fill="none" xmlns="http://www.w3.org/2000/svg">
<g clip-path="url(#clip0_172_21768)">
<g filter="url(#filter0_d_172_21768)">
<path fill-rule="evenodd" clip-rule="evenodd" d="M9.00981 5.34315C10.5101 3.84285 12.5449 3 14.6667 3C16.7884 3 18.8232 3.84285 20.3235 5.34315C21.8238 6.84344 22.6667 8.87827 22.6667 11C22.6667 13.1217 21.8238 15.1566 20.3235 16.6569C20.0539 16.9264 19.7671 17.1748 19.4656 17.4009C20.5309 17.913 21.4905 18.597 22.3113 19.4257L22.3131 19.4275C23.4489 20.5787 24.2984 21.9804 24.7934 23.5199L22.2546 24.3361C21.8877 23.1945 21.2578 22.1551 20.4158 21.3014C19.0059 19.8785 17.0054 19 14.6667 19C10.0697 19 6.66667 22.403 6.66667 27V32.3333H18.6667V35H4V27C4 22.6768 6.33214 19.1007 9.8675 17.4007C9.56609 17.1747 9.27932 16.9264 9.00981 16.6569C7.50952 15.1566 6.66667 13.1217 6.66667 11C6.66667 8.87827 7.50952 6.84344 9.00981 5.34315ZM14.6667 16.3333C16.0812 16.3333 17.4377 15.7714 18.4379 14.7712C19.4381 13.771 20 12.4145 20 11C20 9.58551 19.4381 8.22896 18.4379 7.22876C17.4377 6.22857 16.0812 5.66667 14.6667 5.66667C13.2522 5.66667 11.8956 6.22857 10.8954 7.22876C9.89524 8.22896 9.33333 9.58551 9.33333 11C9.33333 12.4145 9.89524 13.771 10.8954 14.7712C11.8956 15.7714 13.2522 16.3333 14.6667 16.3333ZM35.7299 21.1379L25.8447 34.202L19.1946 29.1612L20.8054 27.0361L25.3286 30.4647L33.6034 19.5288L35.7299 21.1379Z" fill="url(#paint0_linear_172_21768)"/>
</g>
</g>
<defs>
<filter id="filter0_d_172_21768" x="0" y="-1" width="39.7305" height="40" filterUnits="userSpaceOnUse" color-interpolation-filters="sRGB">
<feFlood flood-opacity="0" result="BackgroundImageFix"/>
<feColorMatrix in="SourceAlpha" type="matrix" values="0 0 0 0 0 0 0 0 0 0 0 0 0 0 0 0 0 0 127 0" result="hardAlpha"/>
<feOffset/>
<feGaussianBlur stdDeviation="2"/>
<feComposite in2="hardAlpha" operator="out"/>
<feColorMatrix type="matrix" values="0 0 0 0 0.0557298 0 0 0 0 0.759948 0 0 0 0 0.504226 0 0 0 1 0"/>
<feBlend mode="normal" in2="BackgroundImageFix" result="effect1_dropShadow_172_21768"/>
<feBlend mode="normal" in="SourceGraphic" in2="effect1_dropShadow_172_21768" result="shape"/>
</filter>
<linearGradient id="paint0_linear_172_21768" x1="19.865" y1="3" x2="19.865" y2="35" gradientUnits="userSpaceOnUse">
<stop stop-color="#00AB26"/>
<stop offset="1" stop-color="#01B473"/>
</linearGradient>
<clipPath id="clip0_172_21768">
<rect width="39" height="38" fill="white"/>
</clipPath>
</defs>
</svg>
